<svg xmlns="http://www.w3.org/2000/svg" width="1706.7" height="1706.7" viewBox="0 0 1280 1280"><path fill="#c9a85c" d="M609.5.6 590 2a637 637 0 0 0-402.9 186.1A638 638 0 0 0 2.3 585a841 841 0 0 0 0 110 638 638 0 0 0 160.3 371c12.4 14 42.3 43.8 55.7 55.4 19.3 16.8 30.1 25.1 74.7 57.7 17.7 13 42.4 26.5 69.7 38.3l26.4 11.4a642 642 0 0 0 502.9-.5l26-11.2a365 365 0 0 0 76.9-43.7c56.3-41.6 71.4-54.4 107.2-91 79.6-81.4 139-193 163.3-306.4a600 600 0 0 0 14-136c.1-59.4-6-107.7-20.4-162.5A640 640 0 0 0 696 2.4C681.5 1 620.6-.2 609.5.6M633 48.5c0 18.4-.2 33.5-.5 33.5s-4.5-2-9.3-4.4A339 339 0 0 0 526.5 48a422 422 0 0 0-82.3-1.5 627 627 0 0 1 178.1-31.4L633 15zM678.2 16q64.2 4.3 121.6 19.6a302 302 0 0 1 36 10.9 422 422 0 0 0-82.3 1.5 339 339 0 0 0-106 34c-.3 0-.5-15.1-.5-33.5V15h7.9c4.4 0 14.8.5 23.3 1M510.3 61a315 315 0 0 1 95 24.9 55 55 0 0 1-13.5 2 556 556 0 0 0-222.3 67.9C368.1 154 336 97.5 336 96.9c0-1.2 15.7-9 28.9-14.4A326 326 0 0 1 454 60.7c8.1-.9 46.4-.6 56.3.3M844 62.9a315 315 0 0 1 100.8 33.6c.3.2-32.5 57.4-33.7 58.8-.4.4-5.4-1.8-11.1-4.9a557 557 0 0 0-211.8-62.6 53 53 0 0 1-13.5-1.9A284 284 0 0 1 712.5 72C731 66.6 749 63.2 773 60.6c1.9-.2 15.7-.3 30.5-.1 21.4.2 29.8.7 40.5 2.4m-231.5 40.6L599 114.1a324 324 0 0 0-120.5 214.2c-.8 6.6-1.6 12.2-1.8 12.3-.4.4-98.6-169.7-98.9-171.1-.2-1.3 25.5-14.6 44.7-23.1A534 534 0 0 1 612 101.2l3.5-.1zm72-1c72.7 6.2 139 25.2 203 58.3q15.2 7.8 14.7 9.2c-.4 1.6-98.5 172-98.9 171.6l-1.8-12.9a322 322 0 0 0-120-214.1l-14-11.1c-3.6-2.9-4.4-2.8 17-1M339 132.6a923 923 0 0 1 16.8 29.9c.2.6-5.2 4.7-12 9a548 548 0 0 0-100.3 81.6 563 563 0 0 0-61 73.9c-7.8 11.4-7.8 11.3-7 5.5 12.3-93.6 59.2-170.2 136-221.7 5.5-3.7 10.2-6.8 10.5-6.8s7.9 12.9 17 28.6m638.1-15.9a309 309 0 0 1 127.4 215.8c.8 5.9.7 5.8-7.1-5.5a544 544 0 0 0-60.9-73.9 548 548 0 0 0-100.2-81.6c-6.8-4.2-12.3-7.9-12.3-8.2 0-.4 17.2-30.4 28.7-50l5.4-9.3 5.7 3.6c3.1 2 9.1 6.1 13.3 9.1M633 212.9c0 93.8-.2 103.9-1.6 104.5-.9.3-4.6.6-8.2.6-7.8 0-29 2.4-41.2 4.6a331 331 0 0 0-73.5 22.9l-16.2 7.2c-1.5.6-1.2-3.9 1.3-24.7a309 309 0 0 1 114.9-202.5 192 192 0 0 1 23.7-16.5c.4 0 .8 46.8.8 103.9m23.1-98.8a310 310 0 0 1 125.8 187.7c3.4 15.8 8 51.2 6.6 51.2-.4 0-6-2.5-12.6-5.6a320 320 0 0 0-127.3-30c-1.4-.6-1.6-10.7-1.6-104.5 0-57.1.4-103.9.8-103.9s4.2 2.3 8.3 5.1m-440.4 70.1a349 349 0 0 0-33.2 61.7 333 333 0 0 0-22.6 93.8c-1.2 13-1.2 13.2-3.3 12.1a2852 2852 0 0 1-53-30.8c-1-1 4.4-10.1 18.1-30.4 14.9-22 34-46.7 51.6-66.6 7.4-8.3 46-47 46.5-46.5.2.2-1.6 3.2-4.1 6.7m166.3 23 50.7 87.8a2421 2421 0 0 1 32.8 57.8c-.1.2-2.6-.8-5.4-2.3a328 328 0 0 0-71.2-24 366 366 0 0 0-93.6-5.6c-34.2 3-67.1 11.1-97 23.7l-12.2 5.2c-1.7.6 12.5-20.3 23.8-35.3a558 558 0 0 1 116.3-113.2 422 422 0 0 1 37.3-24.3c.6 0 8.9 13.6 18.5 30.2m547.5-22.3a544 544 0 0 1 158.1 154c4.3 6.3 7.1 11.2 6.3 10.9l-12.2-5.2a323 323 0 0 0-97-23.7 418 418 0 0 0-72.7 2c-32.9 4.9-60.8 13-87.4 25.5-6 2.8-9.6 4-9.2 3.1.5-1.4 96.4-167.8 99.2-172.3.8-1.2 1.7-2.2 2-2.2s6.1 3.5 12.9 7.9m162.5 23.6a639 639 0 0 1 68.7 85.5 278 278 0 0 1 16.3 26.7c-.1.6-51.9 30.9-54.9 32.1-.4.1-1.3-5.7-2-13-3.1-33.2-11.4-67-23.5-96.1a347 347 0 0 0-32.2-59.4 48 48 0 0 1-4.4-6.9c0-.9 16.4 15 32 31.1M632.5 333.2c.3.7.4 50.1.3 109.8l-.3 108.5-3.4-10a336 336 0 0 0-53.7-99.5 351 351 0 0 0-71.1-66.2 95 95 0 0 1-9.1-6.7c-.3-1 22.7-12 34.3-16.5a322 322 0 0 1 101.3-20.5q1.2.1 1.7 1.1m44 1.4c23.5 2.7 49.2 8.8 71.2 17a304 304 0 0 1 37.3 17.3c0 .3-4.2 3.5-9.4 6.9a354 354 0 0 0-68.7 63.2 341 341 0 0 0-56 102.5l-3.4 10-.3-108.5c-.1-59.7 0-109 .2-109.6.5-1.3 10.6-.9 29.1 1.2m-552.8 15.5c15.3 8.8 28.2 16.4 28.6 16.8s-3.6 3.7-9 7.3A323 323 0 0 0 35.8 494.5c-3.8 7.1-6.6 11.6-6.2 10a662 662 0 0 1 34.6-108c8.9-21.1 29.6-62.5 31.3-62.5.2 0 13 7.2 28.2 16.1m1069-2.3a642 642 0 0 1 57.9 157.7c.3 1.1-2.6-3.9-6.3-11A326 326 0 0 0 1137.9 375a51 51 0 0 1-9.8-7.7c.3-1.2 56.2-33.2 57.1-32.7.4.3 3.8 6.2 7.5 13.2m-835.8-11.3c26.4 3 53.2 9.6 77.6 19.2a197 197 0 0 1 29.5 13.7 342 342 0 0 0-62.8 53.9 319 319 0 0 0-29.3 37.3l-7.5 11.3-90.4-52.2-90.3-52.2 9.1-4.3c27.9-13.1 62.8-23 94-26.6 16.3-1.9 53.6-1.9 70.1-.1m635 0c24.9 2.8 51.1 9.1 74.1 17.8 15.5 5.9 30.3 12.8 29.3 13.8a16900 16900 0 0 1-179.8 103.7l-7.2-10.8a328 328 0 0 0-92.3-91.6c0-.9 16.6-8.6 29.5-13.7a317 317 0 0 1 76.3-19.1c16.3-1.9 53.6-1.9 70.1-.1m-725.4 96c48.4 27.9 88.5 51.2 89.2 51.7s-1 5.3-6.7 17.1a326 326 0 0 0-30.8 116l-.7 10.8-10.5-7.2a309 309 0 0 1-133-237.2c0-4.7 0-4.7 2.3-3.3zm209.9-50.3A325 325 0 0 0 525.5 539c5.6 9 22.1 31.3 30.2 40.9 2.1 2.5 3.4 4.2 2.8 3.9C542.4 575 378 479.5 378 479s3-5.2 6.6-10.6a323 323 0 0 1 90.5-88.4q.6.2 1.3 2.2m339 4.9c29.8 21 55.5 46.6 76.2 75.9 8.5 11.9 10.8 16 9.8 17-.5.5-39.4 23.1-86.4 50.3l-90.5 52.2-5 3 5.8-7A328 328 0 0 0 803 389c0-4.6.9-9 1.7-9 .3 0 5.1 3.2 10.7 7.1m290.6-2.8a309 309 0 0 1-133 236.6l-10.5 7.2-.7-10.8A325 325 0 0 0 931 501.2l-7.9-16.2 5.2-3 90.7-52.4a6010 6010 0 0 1 86.3-49.5c.4-.1.7 1.8.7 4.2m-965.7 15.4a555 555 0 0 0-53.9 216l-.7 16.3H15v-3a309 309 0 0 1 128.6-237c.2 0-1.3 3.5-3.3 7.7m1010.2 3c6.1 4.8 16.6 14.4 23.5 21.3a307 307 0 0 1 90 192l1 13.7v2.3h-70.7l-.7-16.3a558 558 0 0 0-57.6-223.3c0-1 4 1.9 14.5 10.3m-987.4 16.8a324 324 0 0 0 132.8 212.1c.2.2-43.5.4-97.2.4H101v-8.3a541 541 0 0 1 51.4-214.2l7.1-14.9.8 5.9c.4 3.3 1.6 11.8 2.8 19m977.8 20.5a533 533 0 0 1 38.1 183.7v8.3h-97.7c-53.7 0-97.4-.2-97.2-.4l6.9-5.2A325 325 0 0 0 1119.6 401l.7-6.5 6.8 14c3.8 7.7 10 21.9 13.8 31.5M769 401.7 652.4 602.8a303 303 0 0 1 88.1-178.3c12.1-12.1 28.5-26.5 30.2-26.5.3 0-.5 1.7-1.7 3.7m-250.2 3.5c11.2 9 33.4 31.6 43.5 44.3a308 308 0 0 1 64 143.8c.8 4.9 1.1 8.5.7 8s-26.8-45.8-58.5-100.8l-58.2-100.8q-1.8-3 8.5 5.5m36 101.3c32.7 56.6 60.3 104.5 61.4 106.2s1.7 3.3 1.4 3.3-5.1-3.7-10.8-8.1a436 436 0 0 1-48.2-47.9A314 314 0 0 1 493 402c.1-2.4.1-2.4 1.2-.5zM786 409.7a311 311 0 0 1-40.5 115.2 287 287 0 0 1-48.7 61.7c-12.3 12.1-32.4 29.2-33.2 28.3-.5-.5 122.8-213.9 123.2-213.4.2.2-.1 3.9-.8 8.2m-320 138 96.5 55.6c4.2 2.2 2.9 2.1-12.5-1.2-26-5.7-34.7-6.6-68-6.6q-30.4 0-40 1.3a346 346 0 0 0-99.4 29.1c-4.9 2.2-9.2 4.1-9.5 4.1-1.4 0 1.2-28.8 4-44.5 2.6-14.7 7.9-34.6 12.7-48 5.2-14.2 6.1-16.5 13.5-31.8 4.5-9.4 6.5-12.7 7.6-12.4.9.2 43.7 24.7 95.1 54.4m450.8-42c13.2 27.8 21 51.7 26.1 79.8 2.7 15.6 5.4 44.5 4 44.5-.3 0-4.6-1.9-9.5-4.1a346 346 0 0 0-99.4-29.1c-6.3-.8-19.9-1.3-40-1.3-33.2 0-42 .9-67.9 6.5-7.4 1.7-13.6 2.9-13.7 2.7-.4-.3 192-111.5 193.2-111.6.6-.1 3.8 5.6 7.2 12.6M513 611.1a328 328 0 0 1 81 19.7c1.8.8-31.5 1.1-112.5 1.1h-115l7.5-3a331 331 0 0 1 68.4-17c22.3-2.9 46.8-3.1 70.6-.8m320.5.5c23.8 2.6 53.4 9.7 72.5 17.3l7.5 3h-115c-98.8 0-114.6-.2-111.8-1.4 4.8-2 26.7-9.2 35.4-11.4 16.9-4.5 42.3-8.2 63.4-9.5 9.9-.6 34.1.4 48 2M86.4 663.7c3 75.5 22.4 152.3 55 218.1 3.6 7.3 6.3 13.2 6 13.2s-3.8-2.4-7.7-5.3A310 310 0 0 1 47 778.5a297 297 0 0 1-31.6-119.3l-.7-12.2h71zm217.5-16.3A326 326 0 0 0 206.1 749 322 322 0 0 0 162 872c-.7 5.2-1.5 10.3-1.9 11.4-.5 1.4-2.5-2-7.8-13A542 542 0 0 1 101 655.8V647h101.7c55.9 0 101.4.2 101.2.4m303.5.5c-1.4 1.3-22.7 9.5-33.9 13.1a310 310 0 0 1-185.6-.5c-12.2-4-30.8-11.2-32.3-12.6-.6-.5 53.9-.9 125.9-.9 71.6 0 126.5.4 125.9.9m317 0a299 299 0 0 1-134.9 26.8 298 298 0 0 1-116.9-26.8c-.6-.5 54.3-.9 125.9-.9 72 0 126.5.4 125.9.9m254.6 8.3a540 540 0 0 1-51.7 215.1c-6.6 13.6-8.2 15.3-8.3 8.2-.1-9.7-7.3-43.1-13.5-61.9a326 326 0 0 0-129.4-170.2c-.2-.2 45.3-.4 101.2-.4H1179zm86-4c0 14.6-3.8 42.5-8.4 62a311 311 0 0 1-124 180.8c-.2 0 3.3-7.8 7.9-17.3a547 547 0 0 0 53.5-223V647h71zm-891 19.2a322 322 0 0 0 160.9 14c7.9-1.3 14.5-2.3 14.7-2.1.3.4-179.7 104-180 103.6l-4.9-9.4a307 307 0 0 1-31.3-113.2l-.7-10.2 13.9 6.3c7.6 3.5 20 8.5 27.4 11m572.6-7.2a299 299 0 0 1-36.7 122.6c-1.6-.7-178.8-103.2-178.6-103.4.1-.1 6.5.8 14.2 2.1 63 10.7 130.9 1.5 188.5-25.4l12.9-6c.2-.1.1 4.5-.3 10.1m-628.1 1.5a324 324 0 0 0 33.3 118.9l5.1 10.2-90.6 52.3-91.6 52.8c-1.7.7 1.4-25.8 5.4-45.9a313 313 0 0 1 102.4-171.7c10-8.4 33-25.3 34.5-25.3a27 27 0 0 1 1.5 8.7m658.2.5a304 304 0 0 1 97.3 114.3 302 302 0 0 1 31.6 112.3l.6 7.4-4.9-2.9-91.5-52.8-86.6-50 5-10a326 326 0 0 0 33.4-118.8c.5-7.5.9-8.7 2.2-8.2.9.3 6.7 4.2 12.9 8.7m-365.8 9L555.2 772l-57.6 99.8c-1.7 2.9-3.2 4.8-3.4 4.2s.4-5.4 1.3-10.8A307 307 0 0 1 580 700.9a276 276 0 0 1 31.6-27.9q.3.2-.7 2.2m67.3 5.5a311 311 0 0 1 106.3 184.6 56 56 0 0 1 1.3 10.3c-.3.2-21.2-35.5-46.6-79.3l-58.6-101.6c-6.9-11.9-12.3-21.7-12.1-21.7s4.6 3.5 9.7 7.7M714.4 783a8189 8189 0 0 1 61.1 106.8c-1.5 1.5-30.5-24.4-45.2-40.3a305 305 0 0 1-76.2-156c-2.6-15.9-2.9-18.7-1.9-17.7.4.4 28.4 48.7 62.2 107.2M626 693.2A308 308 0 0 1 504.7 890c-.3 0 13.9-24.9 31.4-55.3l61.7-106.8c20.8-36.1 29.8-50.8 30-49.3.2 1.3-.6 7.9-1.8 14.6M802.5 742l93.7 54.2 6.8 3.9-3.7 5.7a341 341 0 0 1-51.5 61c-14.4 13-41.1 33.2-44 33.2-.4 0-.8-2.2-.8-4.9a324 324 0 0 0-89.4-202c-4.8-5.1-4.9-5.3-1.6-3.3zm-242.1-42.3A322 322 0 0 0 477 895.1c0 2.7-.3 4.9-.6 4.9-3.2 0-28.5-19-45.2-34a358 358 0 0 1-50.4-60.1l-3.6-5.6 96.1-55.6 96.5-55.7c.2 0-4.1 4.8-9.4 10.7m72.2 246.9q-.4 1.2-7.8.7c-38-2.1-74.5-10.6-107.3-25A87 87 0 0 1 499 913c0-.4 3.2-2.8 7.1-5.5a327 327 0 0 0 121.4-160c2-6.1 4-11.7 4.4-12.5.7-1.6 1.4 209.8.7 211.6m16.4-210a328 328 0 0 0 121 168.1c5.8 4.1 10.6 7.8 10.8 8.2.5 1.3-21 11.1-38.3 17.3-26.2 9.4-60.1 16-87 17l-8 .3-.3-106.8q-.2-107 .8-106.2c.5.3 1 1.3 1 2.1M36 790.5a313 313 0 0 0 56 76.8c14.8 15.2 27.3 26 44.3 38.2a94 94 0 0 1 11.5 8.9 588 588 0 0 1-53 31c-1.3-.8-14.1-25.6-21.9-42.4A641 641 0 0 1 35 797.5c-1.7-6.6-3.3-12.9-3.7-14-.9-3.3.3-1.5 4.7 7m1210 3.1a655 655 0 0 1-38.4 108.4c-8.9 19.3-21.5 43-22.8 43-.7 0-52.2-29.2-53.5-30.4-.1-.1 5.3-4.1 12-8.9A326 326 0 0 0 1244 790.2c2.4-4.6 4.4-8.1 4.6-8 .1.2-1 5.3-2.6 11.4m-873.2 26.9a323 323 0 0 0 85.1 85.7l10.4 7.1-8.9 4.5a308 308 0 0 1-267.3 3.1c-7.4-3.6-12.1-6.3-11.5-6.8 1.6-1.6 182.9-106 183.5-105.8.4.1 4.3 5.6 8.7 12.2m636.7 41 91.7 53-10.8 5.2a309 309 0 0 1-269.8-1.9l-8.9-4.5 10.4-7.1a325 325 0 0 0 86-87 51 51 0 0 1 8.5-11c.6.2 42.4 24.1 92.9 53.3m141.8 81.9a258 258 0 0 1 25.7 16 471 471 0 0 1-27.6 42.9 626 626 0 0 1-66.9 78.7l-14.7 14.5 5-8.1c21-34 36.8-75.4 43.7-114.9 2-11.3 4.5-34.3 4.5-41.4 0-5.3 0-5.3 2.3-3.9 1.2.8 13.8 8.1 28 16.2m-991.5-1.2c4 50.1 19.7 99.3 45.1 141.3l7.2 12-14.6-14.5a638 638 0 0 1-66.9-78.7c-10-14-27.6-41.3-27.6-42.8 0-.9 53.5-32.4 55-32.5.3 0 1.1 6.9 1.8 15.2m345.3-9.3A317 317 0 0 0 617 961.6c6.3.3 12.5.7 13.8 1l2.2.4v106.5c0 58.6-.3 106.5-.7 106.5-1.1-.1-19.5-13.3-28.4-20.5A310 310 0 0 1 492 943c-1.2-14-1.2-16-.2-16 .5 0 6.5 2.6 13.3 5.9m283.4 3.3A309 309 0 0 1 647.8 1176c-.5 0-.8-47.9-.8-106.5V963l2.3-.4c1.2-.3 7.4-.7 13.7-1a316 316 0 0 0 112.5-29.1 100 100 0 0 1 12.4-5.4c1.1-.1 1.2 1.7.6 9.1M461 934.6c0 .9-95.1 165.7-96.5 167.3-1.1 1.1-3.2.1-12.6-5.9A551 551 0 0 1 219 977a488 488 0 0 1-28.7-39.6c.2-.2 6 1.8 12.8 4.5a323 323 0 0 0 249.4-4.4c7.3-3.5 8.5-3.9 8.5-2.9m370 4.5a324 324 0 0 0 245.9 2.8c6.8-2.7 12.6-4.8 12.8-4.6.5.6-19.5 28.3-28.7 39.7a551 551 0 0 1-132.9 119c-6.2 4-11.6 6.8-12 6.3-.6-.5-87.2-150.6-96.9-167.7q-.4-.8.9-.3zm23.1 85.8c47 81.5 49.2 85.4 47.3 86.8a533 533 0 0 1-196.9 63.8c-13.6 1.7-33.3 3-32.5 2.3l10.9-8.8A327 327 0 0 0 803 941.2q0-3.4.9-2.7c.5.6 23.1 39.4 50.2 86.4m-375.5-68.4a326 326 0 0 0 68.5 162.6 413 413 0 0 0 60.9 58.7c.8.7-18.9-.6-32.5-2.3a533 533 0 0 1-196.8-63.7c-1.6-1.2 1.9-7.7 45.9-83.8 26.1-45.4 48.5-84.1 49.7-86l2.2-3.5.3 3c.1 1.6.9 8.4 1.8 15M200 977c14.5 19 28.2 34.4 48.9 55.1a517 517 0 0 0 88.5 72.1 170 170 0 0 1 18.1 12.8c0 1.7-34 60-35 60a340 340 0 0 1-37.9-24.8A308 308 0 0 1 175 945.3c0-3.5.3-3.3 8.1 8.3 4.5 6.5 12.1 17.1 16.9 23.4m904-21.5a310 310 0 0 1-77.3 168.4 310 310 0 0 1-36.3 33.8c-11.2 7.9-30.6 19.5-31.4 18.7-1-1.1-33.9-57.9-34.2-59.3-.2-.5 7.9-6.3 17.8-12.9 34.9-23 59.1-42.8 89-72.6 27.1-27.2 51.1-56 67.9-81.9 5.9-9 6.4-8.3 4.5 5.8m-731.3 170a546 546 0 0 0 239.2 68.1c3.1.7 3.1.7.9 1.8a309 309 0 0 1-230.8 13.1c-9.7-3.4-44-20.1-46.7-22.8-.9-.9 2.9-8.3 16.4-31.5a504 504 0 0 1 18.2-30.2c.3 0 1.6.7 2.8 1.5m556.1 28.7c14.1 24.6 17.1 30.4 16 31.4a375 375 0 0 1-45.3 22.4 309 309 0 0 1-221.4-7.8c-14.5-6.1-14.9-6.9-3.3-7.1 16.8-.3 55-5.6 81.2-11.2a547 547 0 0 0 145-53.1c4.7-2.5 9-4.7 9.5-4.7s8.8 13.5 18.3 30.1M633 1234v31h-7.3c-27.5 0-73.7-5.1-108.7-12.1a581 581 0 0 1-51.5-12.7c-.7-.4 7.7-.7 18.8-.8 21-.1 33.2-1.1 52.7-4.5 28.7-4.9 64-16.5 87.5-28.7 3.3-1.7 6.6-3.1 7.3-3.2.9 0 1.2 6.8 1.2 31m22.8-27.6a335 335 0 0 0 109.2 31.7c5.8.7 19.6 1.3 30.7 1.3 11.1.1 19.5.4 18.8.8-2.3 1.4-35.8 9.6-51.5 12.7a659 659 0 0 1-108.7 12.1H647v-31q0-30.9 1-31c.6 0 4.1 1.5 7.8 3.4"/></svg>