<svg xmlns="http://www.w3.org/2000/svg" width="1706.7" height="1706.7" viewBox="0 0 1280 1280"><g fill="#c9a85c"><path d="M609.5.6 590 2a638 638 0 0 0-303.5 104.5A641 641 0 0 0 51.2 891.2a642 642 0 0 0 367.1 349.2 644 644 0 0 0 312.7 33.1 639 639 0 0 0 409.6-234.9A640 640 0 0 0 696.5 2.4c-15-1.4-75.6-2.7-87-1.8m63.1 9.4a630 630 0 0 1 473.8 253.9 631 631 0 0 1 114 490.9A632 632 0 0 1 606.9 1270a631 631 0 0 1-232.7-57.8A632 632 0 0 1 18 745.5c-6.3-37.4-8.4-63.8-8.4-105.5s2.1-68.1 8.4-105.5A632 632 0 0 1 439 41.9 635 635 0 0 1 672.6 10"/><path d="m615.5 53.5-32 3a582 582 0 0 0-358 169 584 584 0 0 0-169.2 357c-2.6 23-2.6 92 0 115 5 45.1 13.1 83.9 25.8 123.2A589 589 0 0 0 274 1098.1a591 591 0 0 0 247.5 116.3 598 598 0 0 0 272.3-8.5c47.4-13 98.6-34.3 139.2-57.9a591 591 0 0 0 192.8-179.5l15.2-21.8c7-10.1 10.8-17.2 27.3-52.2a591 591 0 0 0 55.4-197c2.5-23.2 2.5-92.3 0-115a591 591 0 0 0-58.5-203.6c-4.4-9.1-8.7-18.6-9.6-21.2-2-6.1-9-17.5-18.6-30.7l-17.2-24a565 565 0 0 0-65.3-77.5A585 585 0 0 0 697 56.5l-27.5-2.6c-17.9-1.7-38-1.9-54-.4m15.4 13.7c-5.3 10.4-24.9 31.9-39.4 43.3a190 190 0 0 1-97.1 39.5c-15.2 1.8-15.1 1.8-9.9-6.1a195 195 0 0 1 50.4-50.1c27.5-18.4 62.2-30.6 87.9-30.7L633 63zm44.5-2.6a191 191 0 0 1 94 47.4c12.6 11.8 33 37 31.3 38.7A189 189 0 0 1 651 69l-4.1-6h9.8c5.4 0 13.8.7 18.7 1.6m-123.6 8.7a199 199 0 0 0-78.9 71.8l-3.4 5.6-10.5.6a199 199 0 0 0-153.4 89l-5.7 8.5-6.7.6A204 204 0 0 0 187 288.1c-5.1 3.8-9.4 6.9-9.6 6.9s1.9-3 4.8-6.8A579 579 0 0 1 560.4 68.1c1-.1-2.8 2.3-8.6 5.2M737.5 71a578 578 0 0 1 352.4 207.2c3.4 4.3 6 7.8 5.7 7.8s-4.1-2.4-8.3-5.2a202 202 0 0 0-91.5-31.8c-16.1-1.5-16.9-1.9-22.5-10.2A199 199 0 0 0 817.9 151h-5.7l-4.2-6.7a199 199 0 0 0-77.3-70.4c-6.6-3.5-10-5.7-8.2-5.4zm-94.2 6.7A192 192 0 0 1 653.5 202c-4.7 17.7-12.7 37.2-14.5 35.4-1.6-1.6-9.7-22.8-12.3-32.4a145 145 0 0 1-6.2-50c0-23.5.6-29.2 5.1-47.2C629.5 92 637.5 72 639.9 72c.4 0 2 2.6 3.4 5.7m37.7 37.5a210 210 0 0 0 74.8 38.2l8.7 2.3-4.5 1.2a205 205 0 0 0-94.9 55.7 57 57 0 0 1-7.1 7c0-.4 1.3-5.1 2.9-10.5a200 200 0 0 0-.6-111.8c-.3-1 2.9 1.6 7.3 5.7a353 353 0 0 0 13.4 12.2m-65.4-4.6a173 173 0 0 0-4.3 49.6c.5 20.5 2.1 32.1 6.4 46.8l3.1 10.4c.3 1.1-2.6-1.3-6.4-5.3-24.8-26.4-53-42.7-96.4-55.8-.8-.3 2.6-1.5 7.5-2.8a198 198 0 0 0 86.4-48.9c3-3.1 5.6-5.4 5.8-5.3.1.2-.8 5.3-2.1 11.3M464 160.9c0 2-10.2 16-18.2 25a190 190 0 0 1-134.4 62.8c-.7-.7 10.4-15.7 18.5-25 27.7-32 72.3-56.1 113.6-61.6 16.8-2.3 20.5-2.5 20.5-1.2m34 1.1a190 190 0 0 1 124.4 73.7l6.6 8.8-4 .3A184 184 0 0 1 507.9 191c-11.1-11-24.9-27.6-24.9-30 0-.5 1.5-.7 3.3-.5zm299-1.1c0 2.5-13.6 19-24.9 30.1A184 184 0 0 1 655 244.8l-4-.3 6.6-8.8A190 190 0 0 1 788 161.1l8.3-1q.7 0 .7.8m42.5 1.7A190 190 0 0 1 968 247.4c0 1.4-17.5-.1-29.2-2.4-26.8-5.5-54-17.6-75.8-33.9-15.6-11.6-37.1-34.5-43.5-46.3l-2.7-5 6.8.7c3.8.3 11 1.3 15.9 2.1m-24.3 15.7a188 188 0 0 1-7.1 158.7c-1.3-.1-9.2-19.3-12.6-30.7a188 188 0 0 1 10.6-137.5l2.1-4 1.6 2.3c.9 1.3 3.3 6.3 5.4 11.2m-337.6-.4a188 188 0 0 1-1.7 151l-3.3 7.3-2.7-5.3a215 215 0 0 1-16.1-51.9c-.8-4.9-1.3-15.3-1.2-30 0-20.4.3-23.7 2.7-35.1 1.4-6.9 4-16.8 5.7-22 3.7-11.4 10-25.1 11.3-24.6.5.1 2.9 4.9 5.3 10.6m40.9 35.2a205 205 0 0 0 71.7 35.3l11.9 3.3-10.8 2.7c-26.4 6.8-51 18.8-72.8 35.5a250 250 0 0 0-16.8 15L491 315.3l2-5.9a198 198 0 0 0-.7-118.9c-.3-1.1 4.1 2.5 9.8 8s13.1 12.1 16.4 14.6M785.4 198a166 166 0 0 0-6.8 53c0 15.8.4 24 1.7 31 1.5 8.8 5.6 25.9 7.3 30.5.4 1.1-4-2.5-9.7-8s-13.1-12.1-16.4-14.6a202 202 0 0 0-72.8-35.5l-10.8-2.7 11.9-3.3a199 199 0 0 0 90.1-51.8c4.1-4.1 7.6-7.4 7.7-7.3s-.9 4-2.2 8.7m69.1 18.1A205 205 0 0 0 929 252c4.6 0 1.4 1.8-7.5 4.3a199 199 0 0 0-83.8 50.2l-10.4 10.4 3.3-10.7a201 201 0 0 0 .7-109.7c-.3-1.1 3.3 1.7 8.3 6.5 4.9 4.7 11.6 10.6 14.9 13.1m-406.6-11.6a180 180 0 0 0-4.6 50.5c.3 11.7 1.1 23.1 2.1 28.5 1.4 8 6.4 27.2 8.1 31.6.3.9-4-2.9-9.7-8.5a198 198 0 0 0-82.3-48.7l-12.5-3.6c-.8-.3 3.7-2 10-3.8a198 198 0 0 0 82.5-46.8c4.4-4.1 8.1-7.4 8.2-7.3.1 0-.7 3.7-1.8 8.1M628 258.8c0 1.9-14.6 19.8-23.5 28.7a187 187 0 0 1-122.2 55.2c-1-1.1 13.8-19 25.1-30.2a181 181 0 0 1 81.7-48c16.5-4.6 38.9-8 38.9-5.7m48.9 2.3a188 188 0 0 1 99.1 54.5c9 9.4 22.5 26.2 21.6 27.1-.8.8-24.3-2.7-34.4-5.2a202 202 0 0 1-64.2-29.3 218 218 0 0 1-46.6-47.6l-1.8-2.9 7.9.7c4.4.4 12.7 1.6 18.4 2.7m286 1.5a191 191 0 0 1-142.6 80.1c-.6-.7 8-12.3 16.2-21.7q23.3-26.7 57-43.5a180 180 0 0 1 67.8-19.4l4.8-.1zm37.6-3.1c16.9 1.4 40.9 8 58.4 16.1a178 178 0 0 1 50 34.8 142 142 0 0 1 24 29l4.3 6.9-8.8-.7a191 191 0 0 1-125.6-64.3 184 184 0 0 1-16.8-22.7c0-.3 1.7-.4 3.8-.2zm-707.2 2.2c-8.3 13.3-25.2 32-38.3 42.6a190 190 0 0 1-100.5 41.3c-10.3.8-10.2 1.1-3.1-8.9a193 193 0 0 1 109.5-73.2c8.6-2.2 22.4-4.3 28.9-4.4l5.2-.1zm38.5-1.2c50 7.5 94 33.8 124.4 74.3q6 7.8 4.4 8a190 190 0 0 1-142.7-78l-4-5.8h4c2.3 0 8.5.7 13.9 1.5M308 271.4a196 196 0 0 1 12.8 38.6 193 193 0 0 1-3.9 94.8A172 172 0 0 1 304 436c-.4 0-2.8-4.6-5.3-10.3a188 188 0 0 1-7-135.2c3.3-10.4 10.7-27.5 11.9-27.5.3 0 2.3 3.8 4.4 8.4m334-3.7c19.9 43 23.4 91.2 9.9 135.8C648.4 415 641.1 433 640 433a181 181 0 0 1-19.7-77.5c-1.1-29.4 3.7-55 15.2-81.8 2-4.8 4.1-8.7 4.5-8.7s1.3 1.2 2 2.7m340.3 6.7a189 189 0 0 1-4.3 158c-2.3 2.3-13.2-27.7-17.1-46.9a234 234 0 0 1-1.5-61.5c2-13.2 5.6-28.2 9.2-37.8 4.2-11.3 8.7-21.1 9.5-20.7.4.3 2.3 4.3 4.2 8.9m-24.5 15.3c-7 21.5-10.5 50.1-8.8 73.1 1.3 18 2.9 26.4 9.8 50.7.3 1.1-2.7-1.4-6.6-5.6a203 203 0 0 0-105.8-58.7c.3-.3 5.5-1.8 11.7-3.3 35.5-9.2 70-29.7 94.4-56.2l8.1-8.7zm-339.4 4.5c-1.7 6.2-4 15.6-4.9 20.8-2.3 12.7-3.1 43-1.6 55.7A252 252 0 0 0 622 415c0 .4-4.4-3.8-9.7-9.2a181 181 0 0 0-32.7-27.2c-17.9-12-45.9-24-64.3-27.7-3.5-.7-6.3-1.6-6.3-1.9s2.8-1.2 6.3-1.9a218 218 0 0 0 42.2-15 208 208 0 0 0 63.9-49.1c.1 0-1.2 5.1-3 11.2m74.1 20.5a204 204 0 0 0 66.7 31.2c6.2 1.6 10.6 3.1 9.8 3.4l-9.8 2.7a198 198 0 0 0-91 51.6c-5.7 5.6-9.1 8.4-8.7 7.1 3.1-10.6 6.7-26.4 7.9-35.6 2-14.2 2-37.7.1-52.5-1.3-10-5.8-29.9-8.1-36.1-.4-1.1 4.6 3.2 11.2 9.5 6.6 6.4 16.4 14.8 21.9 18.7m-341-2.7c11 8.3 19.5 13.5 32.3 19.9 13.8 6.9 34.1 14 45 15.7 2.3.4 4 .9 3.8 1.2s-5.6 1.8-11.7 3.4a197 197 0 0 0-85.2 46.8c-8.8 8.3-9.9 9.1-9.3 6.5 6.3-24.8 8.1-39.8 7.3-62.8-.5-17.3-2-28.2-5.7-41.8s-4-13.3 5.7-4.1c4.8 4.6 12.9 11.5 17.8 15.2m674.3 3.3a194 194 0 0 0 71.5 34.2q7.6 1.6 1.1 3a222 222 0 0 0-61.4 27 227 227 0 0 0-34.8 28.9 34 34 0 0 1-6.2 6c0-.3 1.1-4.3 2.5-8.8a202 202 0 0 0-.1-113.7c-.2-.9 3.5 2.3 8.4 7.1 4.8 4.7 13.4 12 19 16.3m-746.7-14.2a211 211 0 0 0-3.7 77.4c1.6 10 5.4 26.1 7.2 31 .4 1.1-3.9-2.4-9.5-7.8A197 197 0 0 0 195 355c-14.5-4.4-14-4.2-10-5.3 21.2-5.8 43-15.5 59.5-26.4 9.8-6.5 24.5-18.4 31.4-25.7 2.5-2.5 4.6-4.4 4.8-4.2.2.1-.6 3.6-1.6 7.7m-118.2 55.4A189 189 0 0 1 292 438.9c0 1-13.9-.5-26-3a188 188 0 0 1-95.4-51.5c-9.6-9.6-23.8-27.3-23-28.6.7-1 1.1-1 13.3.7m300.1-1a137 137 0 0 1-23.8 28.8 188 188 0 0 1-124 55.2c-.2-.1 3-4.7 7.1-10.1a231 231 0 0 1 40.7-39.6 204 204 0 0 1 64.7-29.4c14.3-3.5 35.3-6.3 35.3-4.9m38.5 1.6c29.7 4.4 61 17.8 86 36.7 8.1 6.1 24.4 22.1 31.4 30.7a59 59 0 0 1 10 14A189 189 0 0 1 504 380.4c-7.6-8-20-23.3-20-24.8 0-.6 2.4-.4 15.5 1.5m297.5-1.5c0 1.3-8.9 13-15.4 20.4a191 191 0 0 1-130.2 62.8c-.9-1 14.1-19.5 23-28.4a191 191 0 0 1 108.3-53.9c11.6-1.5 14.3-1.7 14.3-.9m35.4.9A189 189 0 0 1 965 439c0 1-15.5-.8-27-3.1a189 189 0 0 1-119-80.2c0-.9.2-.9 13.4.8m299.6.4c0 1.9-14.2 19.1-23.1 28a187 187 0 0 1-93 50.5c-11.9 2.7-25.9 4.4-25.9 3.2s11.6-15.9 18.3-23.2a193 193 0 0 1 115.7-58.3l7.8-1q.2 0 .2.8m16.5 9.6a172 172 0 0 1 17.7 65.4c2.6 31-3.8 66.2-17.1 93.6l-4.9 10-4.2-9a181 181 0 0 1-18.1-81 181 181 0 0 1 21.6-87.5c.2 0 2.5 3.8 5 8.5m-1006.8 1.1a192 192 0 0 1 5.4 142.1c-4.5 12-10 23.5-11 22.9-1.8-1.1-11.3-25.9-14.1-36.9-8-31-8.1-64.3-.4-95.2 3.8-14.9 13.9-40.5 16-40.5.3 0 2.1 3.4 4.1 7.6m334.8 1.6a202 202 0 0 1 13.1 40.3c2 9.5 2.7 16 3.1 30.9.7 22.4-.5 34.7-5.2 53.2-4 15.7-13.1 39.4-15.1 39.4a191 191 0 0 1-11.8-145.9c3.9-11.5 10.2-26.1 11.4-26.1a37 37 0 0 1 4.5 8.2m336 0c10.1 22 16.4 51.7 16.5 77.3 0 18.4-4.2 43.3-10.3 61-3.5 10-8.9 22.5-9.7 22.5-.4 0-2.2-3.5-4-7.8a190 190 0 0 1 3.8-160.2c.2 0 1.8 3.3 3.7 7.2m-24 19a203 203 0 0 0-.1 115.4l2.4 7.6-9.4-9.6a195 195 0 0 0-54.9-39.6 220 220 0 0 0-42.3-15.1c-3.5-.6-6-1.5-5.5-1.9s4.4-1.5 8.8-2.5a199 199 0 0 0 93.6-52.8c5.2-5.3 9.5-9.4 9.6-9.3s-.9 3.6-2.2 7.8m-271 17c21.1 16.8 47.5 30 73.4 36.7 6.2 1.5 11.4 3 11.6 3.3.3.2-2.5 1-6.2 1.7a201 201 0 0 0-95 51.8c-7.5 7.2-8.1 7.4-6.3 2.8a203 203 0 0 0-1.3-112.9l-2.6-7.8 9.7 9.4a298 298 0 0 0 16.7 15m-68.1-12.7a169 169 0 0 0-6.8 53.5c0 23 1.1 32.7 5.9 50.8l2.5 9.5c0 .1-4.2-3.8-9.2-8.7a202 202 0 0 0-92.2-50.7c-6.8-1.5-6.8-1.5 7.9-5.5a193 193 0 0 0 86.4-50.8c4.1-4.1 7.6-7.4 7.8-7.3.1.2-.9 4.3-2.3 9.2m397.8 8.8c21.7 19 52.4 34.9 80 41.4 6.5 1.5 11.8 3 11.8 3.3s-3.6 1.3-8 2.3c-13.1 3-25.7 7.5-39.8 14.2a192 192 0 0 0-54.1 37.9c-5.2 5-9.1 8.2-8.7 7.1a250 250 0 0 0 7.3-30c2.4-14 2.4-49.1-.1-62.5-1.4-8-4.9-22.6-7.2-30.5-.4-1.1 2.2.9 6 4.7 3.6 3.6 9.4 9.1 12.8 12.1m-659.3 10.1c19 13.6 44.5 25.7 65.7 31 5.3 1.4 9.8 2.7 10.1 2.9.2.3-1.5.8-3.9 1.2a202 202 0 0 0-92.4 49.7c-4.6 4.4-8.4 7.9-8.4 7.7l2.4-10.1c8-31.2 8-65.7.1-96.9l-2.5-10.4c0-.4 4.7 3.7 10.3 9.1 5.7 5.5 14.1 12.6 18.6 15.8m930.7-14.7a178 178 0 0 0-5.9 48.8c0 19.5 2 34.6 6.8 52.1l2.4 8.8-7.2-7.1a201 201 0 0 0-91.7-50.7l-9-2.3c-.8-.2 3.5-1.7 9.5-3.3a192 192 0 0 0 88-48.1 78 78 0 0 1 9.3-8.4c.2.1-.8 4.7-2.2 10.2M108 423c-1.7 12.1-1.4 39.7.5 52.5 3 19.9 10 42.6 18 58.5 1.3 2.6 2.2 5 1.9 5.3s-.1 1.5.6 2.6c.9 1.7.4 3.6-3.1 10.7a188 188 0 0 0-19.6 79.9 194 194 0 0 0 17.8 90.4c2.2 4.7 4.7 10.5 5.5 12.8 1.4 4.1 1.4 4.4-1.9 11a205 205 0 0 0-18.4 58.8 267 267 0 0 0 .3 62.2c-.6.7-11.3-27.4-17.7-46.7A559 559 0 0 1 63 640c0-63.6 9.1-120.7 28.6-180.3 3.9-12 6.7-19.6 15.2-41.4.9-2.3 1.8-4.1 2-3.9s-.2 4.1-.8 8.6m1073.1 15.5A569 569 0 0 1 1217 640a563 563 0 0 1-30.9 187c-4.1 12.1-10.8 30-11.4 30.7-.1.1-.1-7.8.1-17.5.7-34.5-6-64.5-21.1-94l-4.2-8.3 5.2-10.7a199 199 0 0 0 .3-171.9l-5.1-10.8 4-7.5a215 215 0 0 0 19.8-60.5c1.2-7.2 1.7-15.9 1.7-31.2.1-11.6.2-21 .3-20.9zM295 451.7a189 189 0 0 1-141.7 86l-8.7.6 2.2-3.4a209 209 0 0 1 47.5-49.2 198 198 0 0 1 63.2-29.2c15.7-4 37.6-6.7 37.5-4.8m34.7.8A190 190 0 0 1 462 536.9c0 1.1-17.6-.8-28.4-3A190 190 0 0 1 313 451.8c0-1.2 5.2-.9 16.7.7m299.3-.3c0 1.4-6.2 9.8-15.4 20.7a194 194 0 0 1-77.6 53.4c-16.2 6-41.4 11.3-50.3 10.5l-3.8-.3 4.9-7c30-42.3 80-71.4 133.2-77.4l8.3-1q.7 0 .7 1.1m33 .3A192 192 0 0 1 764.5 498c9.3 8 22.6 22.8 29.4 32.5l4.2 6-3.8.3c-8.9.8-34.1-4.5-50.3-10.5-35-13-64.8-35.3-87.3-65.4-6.2-8.3-6.9-10.2-3.4-9.5 1.2.3 5.1.8 8.7 1.1m304 .4c0 1.9-12.7 17.9-21.4 26.9A178 178 0 0 1 912 507a196 196 0 0 1-84.2 29.8c-4.9.4-8.8.5-8.8.1 0-1.6 13.3-18.1 21.4-26.6 30.8-32.3 73.1-53 116.9-57.2l8.5-1q.2 0 .2.8m40.6 1.6a192 192 0 0 1 124.9 78.4l3.9 5.4-8-.8A190 190 0 0 1 989 453.8c0-1.3 8.1-.9 17.6.7m-698.8 12.7a189 189 0 0 1-1 154.8l-4 8.5-3.9-8a203 203 0 0 1-13.5-41.4c-3.5-16-4.4-46.2-2-63.1 2.2-15.1 6.5-31 12-44.8 5.2-12.8 6.3-15.2 7.5-15.2.5 0 2.7 4.2 4.9 9.2m337.1 4.2a177 177 0 0 1 13.8 77.6c-.5 21.4-2.4 33.6-7.9 51-3.7 11.8-10.7 28.2-11.8 27.5A187 187 0 0 1 629 484c3.4-10.1 9.6-25 10.5-25 .1 0 2.6 5.6 5.4 12.4M987 483.6a188 188 0 0 1-7.7 139.9l-2.5 4.9-3-6.4a192 192 0 0 1 .3-155.5l3.2-7 2.9 6.5c1.6 3.6 4.7 11.5 6.8 17.6m-300.2 21.2a202 202 0 0 0 77.1 37l8.4 1.8-11.4 2.8a202 202 0 0 0-96.3 55.7c-3.6 3.9-6.6 6.8-6.6 6.4s1.1-4.4 2.5-8.9a201 201 0 0 0-3.1-121.1c-.4-1.1 3.9 2.8 9.7 8.6s14.6 13.8 19.7 17.7m269.4-16.2a169 169 0 0 0-7.5 55.9c0 17 .4 23.2 2.1 32.7a234 234 0 0 0 7.9 31.3c.3 1.1-2.7-1.6-6.8-6a206 206 0 0 0-74.6-49.4c-7-2.6-19.2-6.1-29.8-8.6-2.7-.7-2.4-.9 3.5-2.1 11.9-2.5 31.5-9.4 44.6-15.8a193 193 0 0 0 55.9-40.7c3.9-4.1 7.1-7.4 7.3-7.3s-1 4.6-2.6 10m62.1 12a203 203 0 0 0 79 40.8l8.7 2.3-9.8 2.6q-52.8 13.8-92.1 53.7c-5.2 5.2-9.1 8.6-8.7 7.5a205 205 0 0 0 6.6-24.1c6.9-33.1 4.5-72-6.6-103.9-.3-1.1 2.6 1.5 6.5 5.7s11.3 11.2 16.4 15.4m-400.4-11.9a167 167 0 0 0-7.3 55.3c.1 17.5.5 23.6 2.2 33 1.8 9.9 5.4 23.9 7.8 30.5.4 1.1-4.2-2.8-10.2-8.7s-13.6-12.9-16.9-15.4a201 201 0 0 0-73.8-36.4c-5.9-1.5-10.9-2.9-11.2-3.2-.3-.2 2.6-1 6.3-1.7a226 226 0 0 0 37.5-12.6 203 203 0 0 0 58.7-40.6l9.6-9.8c.1-.1-1.1 4.3-2.7 9.6m-268.4 16.4c21.8 16.7 47 28.9 73.6 35.8l11.1 2.9-7.8 1.7a216 216 0 0 0-63.9 27.3c-11.8 7.7-20 14.3-30.9 25-4.9 4.8-8.6 7.8-8.2 6.7 1.7-4.7 5.7-20.7 7.1-29 2.5-13.8 3.1-41.5 1.1-56.1-1.4-10.6-5.9-31-8.2-36.9-.4-1.1 4 2.5 9.7 8s13.1 12.1 16.4 14.6m-71-9.9a204 204 0 0 0 0 96.6l2.5 10.5-8.2-7.6a199 199 0 0 0-82-47.4l-12.7-3.7 12.2-3.6c15.2-4.4 21.2-6.8 35.8-14.2a192 192 0 0 0 48.4-34.5l6.2-5.8c.2.1-.8 4.5-2.2 9.7m-115 55.3a189 189 0 0 1 125.9 77.6 31 31 0 0 1 4.3 7.5 188 188 0 0 1-123.5-55.7 200 200 0 0 1-24.2-30.1c0-1.2 6.5-.9 17.5.7m969.6 2.4a147 147 0 0 1-22.2 27.2 189 189 0 0 1-122.6 54.5 189 189 0 0 1 136.2-84.5c11.6-1.4 10.8-1.7 8.6 2.8m-675 4.3c-30 43.4-84 74.2-137.5 78.4l-8.8.7 4.1-6.2a193 193 0 0 1 77.6-63.9c21-9.2 46.8-15.6 64.8-16.1l4.8-.1zm36.9-5.8a190 190 0 0 1 127.8 75.4c2.9 4 5.2 7.6 4.9 7.8a190 190 0 0 1-126.1-59.8 147 147 0 0 1-18.6-24c0-1-.6-1 12 .6m302.3-.2-7 9.3a188 188 0 0 1-113.7 70.9c-14.4 2.9-25.6 4.1-25.6 2.9 0-1.4 10.4-15 17.7-23.2a191 191 0 0 1 110.3-59l10-1.5c6.1-.9 9.3-.6 8.3.6m36.6.4A189 189 0 0 1 965 633.9c0 1-13.9-.5-25.5-2.9a189 189 0 0 1-95-51.4c-8.7-8.7-23.5-26.8-23.5-28.7 0-1.2.5-1.2 12.9.7M147.4 578c7.7 22 10.7 39.8 10.7 63a178 178 0 0 1-21.1 86c-.4 0-2.7-4.4-5.2-9.8a189 189 0 0 1 .3-156l4.1-8.7 3.8 7.6c2.1 4.1 5.5 12.2 7.4 17.9m329.9-13.3a189 189 0 0 1-5.2 160.3c-1.3 0-7.9-14.9-11.5-26.2a189 189 0 0 1-.2-117.3 143 143 0 0 1 11.7-27.5c.3 0 2.7 4.8 5.2 10.7m676.6 11.5a174 174 0 0 1 10.8 70.3c-.6 22.5-2.8 35.9-9.1 54.3a140 140 0 0 1-11.8 27.2c-2.3.1-12.7-26-16.8-41.9a199 199 0 0 1 0-90.1c4-15.8 10.5-32.7 15.1-39.1l2.2-3.1 3.2 6.9c1.7 3.7 4.6 10.7 6.4 15.5M819 579.9A188 188 0 0 1 808 726c-1.2 0-9.6-21.2-13.1-33.3-5.4-18.7-6.3-26.1-6.3-51.7 0-18.2.4-25.6 1.7-32.7 3-15.9 8.6-33.5 15.3-47.7l2.7-5.9 3.4 6.8a160 160 0 0 1 7.3 18.4m39 23.7a199 199 0 0 0 74.5 35.2c8.4 2 8.4 2.2-1 4.2a224 224 0 0 0-58 24 204 204 0 0 0-36.4 28.9c-5.7 5.7-10.1 9.6-9.7 8.6a202 202 0 0 0 2.2-121.6l-2.3-7.5 10.6 10.5c5.8 5.9 14.9 13.8 20.1 17.7m-70.6-21.4a186 186 0 0 0-8.5 58.8c0 21.2 2 35.9 7.7 57 .5 1.9-1.9 0-9.2-7a169 169 0 0 0-30.4-24.2 206 206 0 0 0-62-26.5c-.8-.3 3-1.8 8.6-3.3a200 200 0 0 0 88.9-53.3c2.8-3 5.3-5.5 5.7-5.6s0 1.8-.8 4.1M519 603a200 200 0 0 0 67.4 34c5.6 1.5 9.4 3 8.6 3.3l-8 2.2a206 206 0 0 0-54 24.3 177 177 0 0 0-30.7 24.5l-10.1 9.8 2.3-8.1c5-17 6.9-31.9 6.9-53.5-.1-23-2.2-38.7-8.1-58-.3-1.1 3.6 2 8.8 6.9s12.8 11.4 16.9 14.6m-333.2 2.8a203 203 0 0 0 69.5 33.2c5.5 1.3 7.7 3 3.7 3s-29.2 9-40.2 14.4c-19.6 9.6-35.8 21-53.1 37.5l-7.7 7.4 1.5-4.4a202 202 0 0 0-.5-114.2c0-.5 4.2 3.1 9.3 8s13 11.8 17.5 15.1m261.8-12.6a161 161 0 0 0-5.1 46.8c0 12 .6 23.8 1.3 28.5a331 331 0 0 0 7 30.4c.3.9-3.7-2.5-8.9-7.4a181 181 0 0 0-50.4-35 228 228 0 0 0-39.5-14.6l-4.5-1.1 7-1.8a200 200 0 0 0 87.9-49.9c3.9-3.9 7.2-6.9 7.4-6.7s-.8 5.1-2.2 10.8m670.8-.2a203 203 0 0 0 2.2 104.5c.4 1.1-2.8-1.4-7.2-5.5a200 200 0 0 0-88-48.3 47 47 0 0 1-9.4-2.7c0-.4 2.8-1.2 6.3-1.9 30.6-6.2 69.1-27 92.2-49.8 2.8-2.8 5.3-5 5.6-5.1s-.5 3.8-1.7 8.8M626 651a190 190 0 0 1-116.8 77.5c-12.3 2.6-28.2 4.3-28.2 3.1 0-2.1 13.7-19.4 23-29a187 187 0 0 1 120.8-57.5l5.3-.1zm41.8-4.5A187 187 0 0 1 776 702.6c9.6 9.9 23 26.9 23 29.1 0 .5-3.7.6-8.7.1A194 194 0 0 1 688.5 690a209 209 0 0 1-37.7-41.8l-2-3.2h4.6c2.5 0 9 .7 14.4 1.5m-374.8.1c0 .3-1.4 2.6-3.2 5.2a204 204 0 0 1-45.5 45.8 203 203 0 0 1-69.6 30.4 149 149 0 0 1-27.4 3.6c-.8-.8 13.2-18.9 21.3-27.5a192 192 0 0 1 100.9-55c14.4-2.7 23.5-3.7 23.5-2.5m38.9 1c20.9 3 37.1 8 55.8 17.1a178 178 0 0 1 54.3 40c9.5 9.9 22.8 26.8 21.9 27.7a191 191 0 0 1-150.4-83.7l-1.7-2.7h4.7c2.6 0 9.5.7 15.4 1.6m632.6 2.1a194 194 0 0 1-119 79.2c-12 2.4-25.5 3.7-25.5 2.5a190 190 0 0 1 143.4-84.3l2.8-.1zm49.5.9a191 191 0 0 1 77 34.3c9.2 6.9 24.2 21.2 31.4 30a81 81 0 0 1 12.2 17.8 191 191 0 0 1-127-59.7 209 209 0 0 1-19.6-25.4c0-1.1 12 .3 26 3m-706.3 9.9a190 190 0 0 1-5.2 163.5c-1.1 0-7.5-14.7-11.1-25.5a161 161 0 0 1-9.1-54c-.9-32.5 3.5-54.8 16.4-84.3 2-4.5 4-8.1 4.5-8 .5.2 2.5 3.9 4.5 8.3m340.4 13.8a178 178 0 0 1 10.9 64.2c0 18.6-1.5 31.1-5.6 47a207 207 0 0 1-11.9 33.5l-2.3 4.5-3.2-7a203 203 0 0 1-17-78c0-24.9 6.8-55.7 17.1-78l3.2-7 3 6.5c1.6 3.6 4.2 10 5.8 14.3M981 662.7a189 189 0 0 1-.3 152.4l-3.3 7.3-3.1-7.1a191 191 0 0 1-8.3-133.4c3.5-11.4 9.9-26.9 11-26.9a25 25 0 0 1 4 7.7M618.6 681a202 202 0 0 0 0 115.5c.4 1.1-3.1-1.6-7.7-6.1a198 198 0 0 0-84.9-49.9c-6.3-1.8-10.8-3.6-10-3.9l5.7-1.6a203 203 0 0 0 99-61.6c.1.1-.8 3.5-2.1 7.6m337.4 2.7a185 185 0 0 0-7.3 53.8c.1 20.1 1.6 32.5 6.3 50.4 1.7 6.2 3 11.5 3 11.7s-4.5-4.1-9.9-9.5a198 198 0 0 0-87.9-50.5l-8.7-2.3 4.5-1.2c12.7-3.4 27.9-9.1 40-15.2 21.9-11 36.4-21.5 53.4-38.8 5-5 9.1-8.9 9.2-8.8s-1 4.8-2.6 10.4m62 11.7a198 198 0 0 0 86.8 42.7c1 0-2.8 1.3-8.3 2.8-15.7 4.4-22 6.8-37 14.1a185 185 0 0 0-54.6 39.2l-9.7 9.8 2.5-8.3a192 192 0 0 0 8-64.2c-.7-19.9-4.5-40.9-10.3-57-.4-1.1 2.5 1.5 6.5 5.7s11.2 11.1 16.1 15.2m-331.5 4.7c20.9 16 46 28.4 70.4 35l8.4 2.2-9.9 2.8a201 201 0 0 0-89.6 53.7c-3.8 3.8-6.8 6.9-6.8 6.7l3-11.6c4.6-17.8 6.2-31.3 6.2-50.4s-1.7-32.7-6.2-50c-1.5-6.1-3.2-11.9-3.6-13s4.4 3 10.7 9 14.1 13.1 17.4 15.6M279 688.5c-8.3 32-8.4 65.6-.5 98.3 2.9 12.2 3 12.3.9 9.4a210 210 0 0 0-33.8-28.3 197 197 0 0 0-68.1-29.4c-2.6-.6-1.2-1.2 9.4-4.1a197 197 0 0 0 89-51.8c3-3 5.6-5.4 5.7-5.3s-1 5.2-2.6 11.2m65.9 8.3a202 202 0 0 0 71 37.3c5.7 1.6 10.6 3 10.8 3.2s-3.3 1.3-7.7 2.5a199 199 0 0 0-85.7 48.9l-9.3 8.7 2.9-11.6c8-31 8-66.4.2-97l-2.8-10.8 7.1 6.8a327 327 0 0 0 13.5 12M462 742.7a193 193 0 0 1-98.5 76.2 199 199 0 0 1-47.3 9.1h-3.4l1.7-2.8A191 191 0 0 1 449 743.1q13.1-1.7 13-.4m41 1.9a190 190 0 0 1 126.8 83.9A192 192 0 0 1 484 746.6l-3.3-4.9 6.9.7c3.8.4 10.7 1.4 15.4 2.2m293 1.9a191 191 0 0 1-145.9 82 192 192 0 0 1 145.7-86.4l3.3-.1zm34-3.5a189 189 0 0 1 132.4 77.9c3.2 4.5 5.7 8.4 5.4 8.6a188 188 0 0 1-127.4-57.8c-8-8.3-17-19.5-21.9-27-1.7-2.7-1.7-2.7.7-2.7 1.3 0 6.2.5 10.8 1m-668 2.1a189 189 0 0 1 130 82.3c0 1.2-13.6-.3-26.6-2.9a187 187 0 0 1-97-53.6c-9.9-10.3-21.4-24.6-21.4-26.7q.2-1 3.3-.7zm972-.3a190 190 0 0 1-119.9 81.3c-11 2.3-25.1 3.6-25.1 2.4a189 189 0 0 1 128-82.4l10-1.5q7.1-1 7 .2m-655.8 13.7A192 192 0 0 1 490 873.9c-2.6 12.2-8.9 31-13.6 40.2l-3.7 7.4-3.8-8.1a189 189 0 0 1-.9-158.1c4.7-10 4.2-10.1 10.2 3.2m670.5-1.8c8.2 17.8 13.2 35 15.8 55.1 4.6 34.8-1.9 75.9-16.2 102l-4 7.3-3.9-5.3c-10.4-14.4-18.5-48.6-18.5-78.3A180 180 0 0 1 1144 748a40 40 0 0 1 4.7 8.7m-1006.9 2.5a181 181 0 0 1 16.3 77.8 178 178 0 0 1-20 84c-.7 0-6.1-11-9.6-19.4-3-7.5-7.5-24.5-9.6-36.2-1.7-9.4-2.1-16-2.1-30.9 0-20.7 1.8-34.5 6.8-51.8 3.6-12.9 11.7-32.7 13.3-32.7.4 0 2.6 4.2 4.9 9.2m677.6 14.9A189 189 0 0 1 808.1 919c-1 0-8.4-17.9-11.4-27.5a197 197 0 0 1-8.2-64.5c1.5-25.8 8.4-53.1 18.1-72.2l2.7-5.3 3.3 7a221 221 0 0 1 6.8 17.6m-28.9-4.1a201 201 0 0 0-4.6 116.9l1.9 7.3-9.6-9.4a197 197 0 0 0-90.5-50.3c-2.1-.4-3.6-.9-3.4-1.2s4.6-1.5 9.8-2.9a194 194 0 0 0 86.4-51.2c9.7-9.8 11.3-11.3 10-9.2M182 795.7a198 198 0 0 0 72.5 35.6l12.6 3.3-7.8 1.8a202 202 0 0 0-92.2 50.1c-4.7 4.4-8.1 7.2-7.8 6.2 7.3-19.8 10.2-58.9 6.3-84.2-1.6-9.9-6.1-28.9-8.1-34-.5-1.1 3.4 2.1 8.6 7s12.3 11.4 15.9 14.2m267.1-15a205 205 0 0 0 1.3 109.9l2.4 7.5-10.2-9.9a195 195 0 0 0-89.9-50.7l-11.9-3.1 10.9-2.7a200 200 0 0 0 93.7-53.6c2.8-2.8 5.2-4.9 5.4-4.7s-.6 3.5-1.7 7.3m69.2 15.4a190 190 0 0 0 66.5 33.9l12.3 3.6-8.3 2.3a199 199 0 0 0-85.3 48.3c-4.9 4.6-8.5 7.4-8.2 6.3 7-22.4 9.6-56.4 6.2-81.7a236 236 0 0 0-7-33c-.4-.9 2.8 1.7 7.2 5.8a257 257 0 0 0 16.6 14.5m333.1-1.6c21.6 18 51.4 32.6 80.5 39.5l5.4 1.3-11.9 3.4c-34.5 9.9-63 26.7-88.3 52.3a61 61 0 0 1-10.9 9.9c4.8-12.5 9.1-31.9 10.9-48.4 2.5-23-1-57.9-7.7-77.2-.4-1 2.9 1.6 7.2 5.8s11 10.2 14.8 13.4m267.5-7.7c-8 31.3-8.4 67.1-1 95.9 1.1 4 1.6 7.3 1.2 7.3s-2.7-2.1-5.1-4.6a198 198 0 0 0-85.5-47.4c-6-1.6-10.3-3.1-9.5-3.4l7.9-2.1a200 200 0 0 0 86.3-48.5l8.4-8c.1 0-1.1 4.9-2.7 10.8m-489.4 53.9A191 191 0 0 1 493 926.2c-6 .6-11.2.9-11.6.6-.8-.9 6.4-11.3 15-21.6a190 190 0 0 1 123.9-66.1c12-1.4 11.2-1.5 9.2 1.6m42-.1a193 193 0 0 1 87.1 38.7 237 237 0 0 1 36.2 38.5l6.3 9.2h-5.3c-14.4 0-38.9-5.5-57.6-13-25-10-43.5-22.3-63.2-42-11.3-11.3-25.3-28.5-26.9-33.1-.4-1.2 9.8-.5 23.4 1.7M292 841.8c0 .4-3 4.7-6.6 9.5a205 205 0 0 1-53.5 47.8 201 201 0 0 1-77.5 25.6c-7.6.6-7.6.6-6.5-1.5A190 190 0 0 1 276 842.5c9.9-1.5 16-1.8 16-.7m39.5.7a194 194 0 0 1 85 35.2 241 241 0 0 1 38.8 38.8c3.7 4.9 6.7 9.4 6.7 9.9 0 1.3-15.1-.1-27.7-2.5a191 191 0 0 1-120.8-80.2l-1.7-2.7h4.8c2.7 0 9.4.7 14.9 1.5m631.9 3.7a192 192 0 0 1-92.9 70.6c-16.7 5.7-42.3 11-48.5 10-2-.3-1.8-.7 2.1-6.3a190 190 0 0 1 138.7-79.4l4.4-.1zm51.5-2.1c31.1 6 64.6 22.5 87.8 43.4 15.6 14 30.2 32 30.3 37.2q-.2 2.4-23.5-2.3A189 189 0 0 1 989 841.6c0-1.2 13.5.1 25.9 2.5m-707.6 10.3a190 190 0 0 1-.5 155.6l-3.6 7.5-3.6-7.9a209 209 0 0 1-13.5-41.9c-6.8-35-4.3-67.7 7.5-101.2a103 103 0 0 1 9.3-20.5c.3 0 2.3 3.8 4.4 8.4m336-1.6A190 190 0 0 1 640 1015a178 178 0 0 1-19.7-77.5 187 187 0 0 1 16-83.8c1.6-3.7 3.3-6.7 3.7-6.7s1.9 2.6 3.3 5.8m338.1 1.2a181 181 0 0 1 15.9 77c-.1 20.1-1.9 34.2-6.9 51.3-2.4 8.6-9.1 26.4-11.9 31.6-1.3 2.6-1.4 2.6-4.5-4.4a230 230 0 0 1-13.1-41.5c-2.1-10.2-2.4-14.2-2.4-35.5s.3-25.3 2.4-35.5c3.6-17.6 14.6-49 17.1-49 .4 0 1.9 2.7 3.4 6m-25.9 26.4c-9 33.1-9.2 68.4-.4 102.4l2.9 11.8c0 .3-2.5-2.2-5.7-5.6a208 208 0 0 0-52.9-39.1c-12.4-6.3-23-10.3-37.6-14.3l-11.9-3.3 8.8-2.2c34.6-9 67.3-28.4 92.3-54.7 4.1-4.4 7.6-7.9 7.8-7.8.1 0-1.3 5.8-3.3 12.8m-337.1-4.2a221 221 0 0 0-6.5 76.5 251 251 0 0 0 9.8 43.3l-11.2-10.8A194 194 0 0 0 517 933q-1.8-.1-2-1 .2-1 2-1c4.1 0 29.5-9.1 40.6-14.6a208 208 0 0 0 57.1-42l5.9-6.4zm402.8 14.5c21.8 17.9 51 32.5 77.3 38.8 2.7.7 2.1 1-5.5 3a195 195 0 0 0-85.7 48.8c-5.3 5.1-9.3 8.3-9 7.2a204 204 0 0 0-1.3-119.9c0-.5 3.8 2.9 8.4 7.6a242 242 0 0 0 15.8 14.5M281 875.9a201 201 0 0 0-1.2 105.3c1.1 3.8 1.7 6.8 1.4 6.8s-4.6-4-9.6-8.8a189 189 0 0 0-50.5-34.8A228 228 0 0 0 183 931q-1.8-.1-2-1 .1-1 1.5-1c1.4 0 7.6-2 15.1-4.5 29-9.5 56.3-26.4 77.6-47.9 4-4.1 7.4-7.3 7.5-7.2s-.7 3-1.7 6.5m404.5 18.3a203 203 0 0 0 70 35.3c6.6 1.8 11.3 3.6 10.5 3.8-.8.3-5.1 1.6-9.4 2.7a197 197 0 0 0-87.8 52.2 222 222 0 0 1-11.8 11.5l2.5-7.6c3.2-9.6 7.1-27.2 8.6-39.4a221 221 0 0 0-6.1-75.1l-2-6.9 9.3 9c5 4.9 12.4 11.4 16.2 14.5m-334.3 2.3a193 193 0 0 0 62.6 31.6l12.2 3.6c.8.3-2.8 1.7-8 3.2a199 199 0 0 0-86.9 51.1c-4.6 4.7-8.1 7.6-7.7 6.5 1.8-4.7 5.7-20.7 7.3-30 1.2-7.3 1.7-15.7 1.7-31 0-22.1-1-31-5.9-49.7l-2.2-8.7 8.6 8c4.7 4.4 13 11.4 18.3 15.4m-176.6 42c36 7.3 68.9 25.1 95.4 51.7 8.2 8.3 22.1 25.3 25 30.8 1 1.8.8 2-2.2 2-4.7 0-22.5-2.7-30.5-4.5a194 194 0 0 1-98.4-58.8 149 149 0 0 1-17.9-24.3c0-1.2 15.7.5 28.6 3.1m960.3-1.3a164 164 0 0 1-38.6 45.1 197 197 0 0 1-82.3 38.7c-11.3 2.2-29 3.8-29 2.5s8.8-13.3 15.6-21.5a189 189 0 0 1 131.2-66.9c4.1-.1 4.2 0 3.1 2.1m-674.4 5a213 213 0 0 1-42.5 43.7 192 192 0 0 1-100.9 37.1h-4.2l4.8-6.9a187 187 0 0 1 93.4-69.4c15.7-5.3 35.8-9.2 48.2-9.6l4.9-.1zm36.4-3.7a191 191 0 0 1 75.5 27.7 202 202 0 0 1 49.7 45.8c8.1 11 8.1 10.2.7 9.5A189 189 0 0 1 483 937.8c0-1.1 1.8-1 13.9.7m299.5.7a191 191 0 0 1-138.7 82.2l-4.8.6 3-4.3c28-40.7 76.2-70.6 125.1-77.6l10-1.5c5.2-.7 6.1-.6 5.4.6m39.5.3a189 189 0 0 1 125.5 74.5c4 5.2 6.1 8.9 5.5 9.5-1.5 1.5-21.5-1.2-36.1-4.9a193 193 0 0 1-64.3-29.8 252 252 0 0 1-41.8-41.4 85 85 0 0 1-5.7-8.8q0-1.5 16.9.9m-358.6 15.3a185 185 0 0 1 14.8 60.4c2.6 29.1-3.7 64.5-16.1 91.3l-3.2 7-4-8.5a196 196 0 0 1-13.5-41.9 130 130 0 0 1-2.7-35.1c-.1-23.6.5-29.1 5-47.3 3.8-15.3 12.7-38.2 14.4-37.2.5.3 2.8 5.3 5.3 11.3M820 968.1c14.7 44.4 12 95.1-7.3 136.9l-3.5 7.5-3.2-7a228 228 0 0 1-13.2-41.6c-2-10-2.3-14.3-2.3-34.9s.3-24.9 2.3-34.9c2.8-13.6 8.6-31.8 13.7-42.7l3.7-7.9 3 6.5a202 202 0 0 1 6.8 18.1m-29.1-2.4a203 203 0 0 0 1.1 129.9c0 .1-4.4-4.2-9.7-9.8a196 196 0 0 0-94.8-54.8c-6-1.6-10.3-3-9.5-3.3l11-2.7a203 203 0 0 0 103.6-65c.2 0-.6 2.6-1.7 5.7M512 984.2a198 198 0 0 0 79 40.8l11 2.8c.8.2-2.1 1.3-6.5 2.3a211 211 0 0 0-77 36.8c-3.3 2.5-10.7 9.1-16.4 14.6s-10.1 9.1-9.7 8c1.9-5.1 5.6-21 7.2-31 2.7-16.4 2.5-44.8-.5-61.7-1.9-11-5.5-25.3-7.8-31.5-.4-1 2 1.1 5.2 4.6s10.2 9.9 15.5 14.3m-63.5-4.9a207 207 0 0 0 3.1 106.2c.4 1.1-3.1-1.6-7.7-6.1a192 192 0 0 0-52.1-36.4c-11.8-5.7-34.8-14-38.8-14s-2.7-1.7 2.3-3c32-8 66.8-27.9 89.1-50.9 3.3-3.3 6.1-5.9 6.3-5.8.1.2-.8 4.7-2.2 10m408.7 14A207 207 0 0 0 926 1027l4.5 1.2-11.5 3.5a198 198 0 0 0-80.8 47l-8.2 7.6 2.9-12a174 174 0 0 0 5.5-47.8c0-18.3-1.7-32.4-5.8-48.3l-2.4-9.3 9.7 9.3c5.3 5.1 13.1 11.9 17.3 15.1m-654.1 10.8a198 198 0 0 0 90.3 27.9c5.5 0 5.7.1 8.4 4.1q21.2 31.4 43.7 49.6c32.8 26.4 71 41.2 113.5 43.9l11.1.7 6.9 10.1a197 197 0 0 0 81 68.1c8.5 3.7 9.2 4.4 3.3 3.5l-12.8-2a577 577 0 0 1-367.7-220.3c-.5-1 2.4.6 6.5 3.7s11.2 7.9 15.8 10.7m889.8-6.4a604 604 0 0 1-85.4 87.4A581 581 0 0 1 735 1209.4l-16.8 2.6c-4 .7-7.5 1-7.8.7-.2-.2 1.7-1.2 4.3-2.2a215 215 0 0 0 51.4-30.3c14-11.3 31.7-31.1 41.3-46.3l2.9-4.6 13.6-1.2a200 200 0 0 0 148.6-85.9c2.7-4.1 5.1-6.8 5.3-6.2q.4 1 1.6-.4c1.2-1.4 4.8-1.8 13.6-2.6 16-1.4 33.8-5 47.1-9.5a261 261 0 0 0 45.9-22.4c8.3-5.6 8.8-5.9 6.9-3.4M343.1 1036a189 189 0 0 1 98.5 54.3c8.9 9.3 22.3 26.2 22.4 28.2 0 1.4-14.4.3-27.1-2.1a197 197 0 0 1-77.2-33.1 264 264 0 0 1-41-40.9 81 81 0 0 1-5.7-8.9c0-1.3 19 .3 30.1 2.5m623.9-2.3a190 190 0 0 1-127.4 83.3c-6.9 1.1-14.9 2-17.7 1.8l-5.1-.3 6.5-8.7c9.4-12.6 17-21 27.2-30 22.1-19.5 50-34.3 78-41.3 16.8-4.2 38.5-6.9 38.5-4.8m-339 2.1a189 189 0 0 1-132.5 82.2c-13.8 1.9-13.8 1.9-6.5-8a191 191 0 0 1 115.5-72.4c13-2.5 23.5-3.3 23.5-1.8m49.3 2.2a188 188 0 0 1 75.7 33.9 220 220 0 0 1 36.8 36.6c7.4 9.8 7.5 10 4.9 10.3a189 189 0 0 1-142.7-83.2c0-1.3 14.3.1 25.3 2.4m-30.4 18.5a188 188 0 0 1-.8 139.5c-5.7 14.6-5.5 14.4-8.6 7.4a195 195 0 0 1-15.7-90.4q3-34.3 15.4-62.5c3.9-8.9 3.9-8.9 9.7 6m-22.7 2.2a203 203 0 0 0-11.3 84.9c1 10.6 4.5 30 6.7 37.3.5 1.8-2.4-.3-10.7-7.8a198 198 0 0 0-83.1-45.5l-11.9-3.3 8.3-2.2a199 199 0 0 0 100.6-63.8c1.7-2.7 2.8-2.4 1.4.4m64.2 29.2c21.3 16 41.6 26.1 67.6 33.6l11.5 3.3-4.5 1.1c-18.9 4.7-30.8 9-45.3 16.2a190 190 0 0 0-48.6 34.4c-5.2 4.9-9.1 8.2-8.8 7.2 4.3-11.7 7.8-32.9 8.4-51.2.8-22.9-2.1-45.4-8.6-66.3l-1.9-6.3 10.4 10.5c5.8 5.8 14.7 13.7 19.8 17.5M505 1132.6c39.1 6 74.9 24.3 103.5 52.9 9 9 18.1 20 23 27.8l1.8 2.8-6.9-.6c-46-4.2-87.7-23.5-119.4-55.4-9.3-9.3-24-27.3-24-29.3 0-.9 9-.2 22 1.8m290.8 2.1a189 189 0 0 1-123 78.2c-16.8 2.7-23.8 3.3-23.8 2.2 0-2.4 15.8-21.6 25.6-31.2a174 174 0 0 1 50.9-35.5 192 192 0 0 1 72.4-17.7c.2.1-.7 2-2.1 4"/></g></svg>