<svg xmlns="http://www.w3.org/2000/svg" xml:space="preserve" style="fill-rule:evenodd;clip-rule:evenodd;stroke-linejoin:round;stroke-miterlimit:2" viewBox="0 0 2000 2000"><g fill="#fff"><path d="m1003.2 965.1-5.7-.5.7-.2zm-68.7-15.8-2.4-1-4.8-6 5.7 2.8zm125.5-4.6.7-2.9 2.6-.5-2 3.2zm29.7-6.4 5-6.2a211 211 0 0 0 88-63.3 210 210 0 0 1 15.5-5.2 213 213 0 0 1-22 24.6 210 210 0 0 1-86.5 50.1M853 883a232 232 0 0 0-15.3-7 230 230 0 0 1-33.1-59.3l12 4.6A231 231 0 0 0 853 883m348.6-41q7-11.8 12.4-24.7a208 208 0 0 0 10.8-32.9l11.2-1.8a209 209 0 0 1-21.6 56.6zm-393.2-45.2-11.2-3.5a231 231 0 0 1-7.3-57.7q5.3 1.3 10.5 2.8.4 30.3 8 58.4m420.3-33.4a213 213 0 0 0 1.9-28q0-14-1.8-27.6l10.3-1a211 211 0 0 1 1.8 38q-.4 8.7-1.3 17.2zm-427.5-45.6-10.5-2.5a229 229 0 0 1 11-52.9l10.2 2a230 230 0 0 0-10.7 53.4m424-29.7a207 207 0 0 0-11.2-34.5 206 206 0 0 0-6.5-14q4.9-.3 9.8-.3a211 211 0 0 1 10.4 23.1 209 209 0 0 1 7.6 24.7zM819 645.4l-10.1-2A230 230 0 0 1 833 601q5.3.5 10.4 1.2a230 230 0 0 0-24.4 43.2m377.2-25.2a211 211 0 0 0-30-36.3l9.6.2a213 213 0 0 1 29.8 35.4zm-338.5-36-10-1.6a232 232 0 0 1 28.3-27l11.4.4a232 232 0 0 0-29.7 28.3m286.1-19.1a209 209 0 0 0-33.5-20q4.8.2 9.5.6l.4.2a210 210 0 0 1 31.8 18.5zm-231.5-26.4-10-1.4 8-4.6a210 210 0 0 1 16.6-2.1 231 231 0 0 0-14.6 8m149-9.7q-7.5-1.5-15.1-2.4 8.8.6 17.4 2zm-30.8-3.7V506zm-85.2-2.9v-5zm32.3-10.2-9.9-1.2a231 231 0 0 1 80.2-4.3 233 233 0 0 0-17.4-.7 230 230 0 0 0-53 6.2m-54.7 457.4-2.6-.3a230 230 0 0 0-111-43 230 230 0 0 1-48.3-47.7 210 210 0 0 1 29 3.6 210 210 0 0 0 30.1 27.2 211 211 0 0 0 58.9 30.5 210 210 0 0 0 25.8 6.9 209 209 0 0 1 18.1 22.8m64.8-2.9 4.6-2.7 5.3.6zm-51.9-13.6-2-2.7h1.2zm125.6-13.9q1-4 2.3-8.2 3.4-11.6 8.2-22.7l6.2-4.9q31.7-25.8 51.6-62a215 215 0 0 0 9-18.6 211 211 0 0 1 27.6-17.6 232 232 0 0 1-30.7 64.8 231 231 0 0 0-68.7 66zm-19-6.2-.4-5.9 2.4-1.2zm-293-71.4v-3.3zm22.4-2.2a230 230 0 0 0-22.4-1.1h-2a231 231 0 0 1-23.2-53.4q5.4-.3 10.9-.3 5 0 10 .3a210 210 0 0 0 26.7 54.5m377.4-67.6a212 212 0 0 0 5-27.2 209 209 0 0 0 1.2-34.6 214 214 0 0 1 19.4-8.8 229 229 0 0 1-2.6 58.9 229 229 0 0 0-23 11.7m-429.9-6.6a229 229 0 0 1-4.3-53.8A209 209 0 0 1 735 730q-1.4 27.5 4.5 54.8a232 232 0 0 0-20.3.5m-2.6-74.1a230 230 0 0 1 11.3-47.4 211 211 0 0 1 22.6-3.2 209 209 0 0 0-13.5 49.3 229 229 0 0 0-20.4 1.3m436.5-2.3a213 213 0 0 0-6-27.4q-4-13.5-9.5-26a208 208 0 0 1 18.8-6.9 231 231 0 0 1 9.9 27.3 231 231 0 0 1 5.8 25 234 234 0 0 0-19 8m-416.1-67a232 232 0 0 1 19.6-33.8 209 209 0 0 1 30.2-6.2 211 211 0 0 0-26 37.3l-.4.7q-11.8.4-23.4 2m391.8-4.5A209 209 0 0 0 1117 619a208 208 0 0 0-19-23.2 213 213 0 0 1 21.4-6.2 228 228 0 0 1 28.2 40.7 228 228 0 0 0-19 7.1m-352-54.2 6.4-6.6a210 210 0 0 1 56-18 209 209 0 0 0-30.4 21.6 232 232 0 0 0-32 3m305.3-2.7a214 214 0 0 0-11.6-9.3 211 211 0 0 0-27.4-17.2 210 210 0 0 1 28.5-6.4 232 232 0 0 1 32.2 25.4 232 232 0 0 0-21.7 7.5m-65.7-38.2a210 210 0 0 0-37.7-9.8q25-6.3 51.2-6.5a230 230 0 0 1 15.3 6.7 231 231 0 0 0-28.8 9.6m-184.1-2.7a231 231 0 0 1 113.1-29.7v7.6a229 229 0 0 0-35 15.3q-8.4 1.5-16.9 3.6a231 231 0 0 0-19-.8q-21.1 0-42.2 4m113.2-22.1v-7.6q11.3 0 22.4 1.1a228 228 0 0 0-22.4 6.5" style="fill-rule:nonzero"/><path d="m997.5 964.6-5.3-.6.7-.4q2.6.5 5.3.8zm-87.2-431.8a229 229 0 0 1 35-15.3v4.9a229 229 0 0 0-18.4 8.3q-8.4.8-16.6 2.1m35-10.4v-5a228 228 0 0 1 22.4-6.4q5 .5 9.9 1.2a229 229 0 0 0-32.3 10.2M836.5 993.2V979zm78.3-.3a229 229 0 0 0-78.3-13.8 232 232 0 0 0-40.3 3.5 230 230 0 0 1-59.8-32.2 209 209 0 0 1 28.8-4.6l9.7 5.5a212 212 0 0 0 118.6 24.2 210 210 0 0 1 23.8 17q-1.2 0-2.5.4M925 973l-2.7-2.1 1.1-.3zm53.6-1.5 3.7-3.9 5.2-.9zm-261-36.8q-21.1-19.6-37.3-44.7a210 210 0 0 1 20-6 211 211 0 0 0 41 44.9 229 229 0 0 0-23.8 5.8m324.2-10.2-.1-8.5q0-12.2 1.5-24.1l4.6-6.5a210 210 0 0 0 32.1-74 215 215 0 0 0 3.5-20.4 210 210 0 0 1 18.4-21.5l3.1-3.1a231 231 0 0 1-11.3 70.8 231 231 0 0 0-47.4 82.6zm-20-.7-2-5.5 1.9-1.9zm-351.5-51.4a229 229 0 0 1-19.2-50.5 208 208 0 0 1 18.9-7q6.5 26.8 19.7 51.3a231 231 0 0 0-19.4 6.2M647 801.9a230 230 0 0 1-2.5-48.6 211 211 0 0 1 20.9-9.4 209 209 0 0 0 .8 51.1 229 229 0 0 0-19.2 7m437.8-43.7a211 211 0 0 0-2.8-27.4 209 209 0 0 0-8.6-33.6 212 212 0 0 1 16.2-14 229 229 0 0 1 14 57.3 227 227 0 0 0-18.8 17.7M647.1 730a232 232 0 0 1 9.3-38h.2a212 212 0 0 1 27-14.4q-9.5 20.6-14.4 43l-.2.8a230 230 0 0 0-22 8.6m418.4-52.4a212 212 0 0 0-29.9-46.9q7.8-6.3 16.2-11.8a232 232 0 0 1 29.7 45.7l-7.5 5.8zm-396.6-15.1 4.3-8.2a208 208 0 0 1 48.7-32.8 209 209 0 0 0-23.1 29.1 232 232 0 0 0-29.9 11.9m353.1-46.5a210 210 0 0 0-41-31.4l.8-.6a212 212 0 0 1 18-11.4 229 229 0 0 1 38.4 31.3 228 228 0 0 0-16.2 12M709.8 605A231 231 0 0 1 832 539.6a229 229 0 0 0-49.1 37 212 212 0 0 0-15.3 8.2 230 230 0 0 0-58 20.2M961 574.3a212 212 0 0 0-44.9-14.4 209 209 0 0 1 25.5-14.2 231 231 0 0 1 38.1 15.4 231 231 0 0 0-18.7 13.2m-122-15.6a210 210 0 0 1 47.4-20.3l7-2 9 1a231 231 0 0 0-26.3 18.3h-1.7a209 209 0 0 0-35.4 3" style="fill-rule:nonzero"/><path d="m887.4 556-11.4-.3a231 231 0 0 1 26.4-18.3l9.9 1.4a231 231 0 0 0-25 17.3m95.1 411.5 4-4.3 5.8.7-4.6 2.7zM783 576.6a229 229 0 0 1 49-37.1 230 230 0 0 1 42.3-4q9.6 0 19 .8l-7 2a210 210 0 0 0-47.4 20.3 210 210 0 0 0-55.9 18M992.2 964l-5.8-.7.6-.7 5.9 1zm-192.8 76.4c-22.5-1.5-45-6.2-66.4-14.2a211 211 0 0 1 26.4-12.6 210 210 0 0 0 131.5-7.3q14.1 3.8 27.6 9.5l-2.4 1.2a223 223 0 0 0-14.8-.5c-35.8 0-70.6 8.4-101.9 23.9m-88.8-24q-25.6-12.8-48.3-32.6a210 210 0 0 1 17.6-11.3 210 210 0 0 0 52 31.6 229 229 0 0 0-21.3 12.2M920.5 995l-3.2-1.2 1-.6zm51-16.5 2.5-4.7 4.7-2.3zm-323.9-8.7a229 229 0 0 1-32.5-43 208 208 0 0 1 16-12.2q13.8 24 33.4 43.8a231 231 0 0 0-16.9 11.4m352-49L996 916l1.3-2.3zm19.4-5a212 212 0 0 1-7.8-31.6 213 213 0 0 0 12.8-87.5 214 214 0 0 0-2.4-20.6 209 209 0 0 1 11.6-25.8l2.2-3.9a231 231 0 0 1 9 71.2 231 231 0 0 0-22.5 92.5zm-413.3-7.1a230 230 0 0 1-16-46 209 209 0 0 1 17.4-14.9 209 209 0 0 0 15 48.9 229 229 0 0 0-16.4 12m-20.1-69.2a232 232 0 0 1-1.6-39 211 211 0 0 1 22-21.5q-3.3 22.4-1.8 45.3v.8a230 230 0 0 0-18.6 14.4m2-71 1.8-8.9a209 209 0 0 1 37.5-45.2 209 209 0 0 0-14 34.5 232 232 0 0 0-25.3 19.7m426.2-24.4a211 211 0 0 0-10.4-25.6 209 209 0 0 0-17.6-29.8 215 215 0 0 1 11.6-17.9 229 229 0 0 1 29.4 51.1 227 227 0 0 0-13 22.2m-403-42.2a231 231 0 0 1 99-97 229 229 0 0 0-36.6 49.2 213 213 0 0 0-12.4 12.2 230 230 0 0 0-50 35.6m361.7-30a213 213 0 0 0-19.8-19.7 211 211 0 0 0-22-17 208 208 0 0 1 12.2-15.8 233 233 0 0 1 23 17.7 233 233 0 0 1 18.3 18 235 235 0 0 0-11.7 16.9m-59-47a210 210 0 0 0-48.2-18.7 212 212 0 0 1 14.7-16.7 229 229 0 0 1 45.7 19.2 229 229 0 0 0-12.2 16.2m-191.6-3.7q17.6-18.7 39.7-32.7l6.2-3.9 9-1.6a231 231 0 0 0-20.2 24.9 211 211 0 0 0-28 10.1zm64.9-19.5a209 209 0 0 1 22-21.7h5.4a231 231 0 0 1 33.6 2.4A232 232 0 0 0 833 601a210 210 0 0 0-18.9-.9q-13.9 0-27.4 1.8" style="fill-rule:nonzero"/><path d="M843.4 602.2 833 601a232 232 0 0 1 14.7-18.4q5 .7 10 1.7a231 231 0 0 0-14.3 17.9m-86.9 5.9a231 231 0 0 1 20.2-25 232 232 0 0 1 32-3 209 209 0 0 0-22 21.8 209 209 0 0 0-30.2 6.2M974 973.8l2.6-5.3 5.8-.9-3.7 3.9zm2.6-5.3.5-1.2 2.4-5.2 6.9 1.1-4 4.4z" style="fill-rule:nonzero"/><path d="m986.4 963.3-7-1.2.5-1 7 1.5zM673 654.3a229 229 0 0 1 36.7-49.3 230 230 0 0 1 58-20.2l-6.3 3.9q-22.1 14-39.7 32.7a208 208 0 0 0-48.7 32.8m293.5 333.1 1-5.2 4-3.6zm10.7-63.3-4.7-3.6.6-2.5zm17.3-10.2a211 211 0 0 1-16.4-28.2l.5-8q1.5-40.9-12.7-79.6a213 213 0 0 0-8-19.1 210 210 0 0 1 4.9-32.3 232 232 0 0 1 28.5 65.8 231 231 0 0 0 4.3 95.1zM542.7 823a231 231 0 0 1 68-120.9 229 229 0 0 0-21.5 57.6 212 212 0 0 0-8.5 15.1 230 230 0 0 0-38 48.2m398.7-72.3a210 210 0 0 0-17.2-21.7 209 209 0 0 0-25.3-23.6 214 214 0 0 1 6.2-20.5 229 229 0 0 1 42.5 40.8 228 228 0 0 0-6.2 25m-314.7-36.2a211 211 0 0 1 29-42.5l4.9-5.5 8.1-4a231 231 0 0 0-12.4 29.5 210 210 0 0 0-29.6 22.5M881.6 693a213 213 0 0 0-24.5-13.5 214 214 0 0 0-25.9-10 208 208 0 0 1 7.3-18.7 233 233 0 0 1 27 10.6 233 233 0 0 1 22.6 12 235 235 0 0 0-6.5 19.6m-198-15.4a210 210 0 0 1 15-27A231 231 0 0 1 737 642a231 231 0 0 0-9 21.8 211 211 0 0 0-44.2 13.8m117.9-15.2a209 209 0 0 0-33.1-2.6q-9 0-18 .8a213 213 0 0 1 9.8-20.6 229 229 0 0 1 48.6 3.4 228 228 0 0 0-7.3 19" style="fill-rule:nonzero"/><path d="m811.8 664.3-10.2-2a228 228 0 0 1 7.3-19l10.1 2a228 228 0 0 0-7.2 19m-83.9-.6a231 231 0 0 1 9-21.8 230 230 0 0 1 23.4-2 213 213 0 0 0-9.8 20.6 211 211 0 0 0-22.6 3.2m-71.5 28.2a231 231 0 0 1 12.4-29.5 232 232 0 0 1 29.9-11.9 210 210 0 0 0-15 27 212 212 0 0 0-27 14.3zm311.2 290.2 1-5.8 5.4-2.5-2.5 4.7zM589.3 759.6a229 229 0 0 1 21.4-57.6 230 230 0 0 1 50-35.6l-5 5.5a211 211 0 0 0-29 42.5 209 209 0 0 0-37.4 45.2m379.3 216.7 1-7 7-.8-2.6 5.3z" style="fill-rule:nonzero"/><path d="m969.6 969.4 1-9q4.4 1 8.9 1.7l-3 6.4z" style="fill-rule:nonzero"/><path d="m979.5 962.1-9-1.7.2-1.6q4.6 1.3 9.2 2.3zM768 1100.5q-8.6 0-17.2-.7a210 210 0 0 1 21.8-19.3c38-.9 75-12 107.2-32.1a211 211 0 0 0 17-11.8h4.4q12.5 0 24.8 1.4l-2 1.8c-40 8.9-76.2 28.2-105.4 55a230 230 0 0 1-50.6 5.7m-41.4-3.8a231 231 0 0 1-55.5-17.7 212 212 0 0 1 13.8-15.8 209 209 0 0 0 58.6 15.9 228 228 0 0 0-17 17.6m-73.4-27a229 229 0 0 1-43.3-32.3 207 207 0 0 1 12-16.1q19.9 19.3 44.3 32.7a228 228 0 0 0-13 15.6m-57.5-46.9a230 230 0 0 1-28.2-39.7 209 209 0 0 1 12.5-19 209 209 0 0 0 28.2 42.6 227 227 0 0 0-12.5 16.1m326.5-5.2-3.5-.3.9-.9zM557 961.9a232 232 0 0 1-12.4-37 210 210 0 0 1 15.2-26.8q3 22.5 10.9 44l.3.8a230 230 0 0 0-14 19m-18-68.6-.7-9.1a209 209 0 0 1 23.4-54 209 209 0 0 0-3.7 32.3v4.8a232 232 0 0 0-19 26m425.3 103.9-.5-5.3 2.8-4.6zm-7.4-63.8-5.6-2.1v-2.7zm13.6-14.6-6.5-5.5a210 210 0 0 1-17-17l-1.9-7.7a210 210 0 0 0-34.5-73 213 213 0 0 0-13-16 210 210 0 0 1-4.4-32.5 232 232 0 0 1 45.8 55.2 231 231 0 0 0 30.8 90zm-408.8-88.5q4.9-25.2 15.9-49l3.2-6.6 6.7-6.1a231 231 0 0 0-3.6 31.8 209 209 0 0 0-22.2 29.9M606 779a210 210 0 0 1 6.8-30.1 231 231 0 0 1 34.3-19 231 231 0 0 0-2.6 23.4A211 211 0 0 0 606 779m267.9-2a210 210 0 0 0-22.5-16 209 209 0 0 0-31-15.7 215 215 0 0 1 .3-21.4 229 229 0 0 1 52.2 27.3q-.2 12.9 1 25.8m-208.5-33a213 213 0 0 1 3.6-22.7 229 229 0 0 1 47.6-10.2 229 229 0 0 0-1.7 20.3 210 210 0 0 0-49.5 12.5m124.4-8.4a215 215 0 0 0-16.9-3.3 213 213 0 0 0-32-2.4H735a210 210 0 0 1 2-20 232 232 0 0 1 39 2.7q7.4 1 14.6 2.7a234 234 0 0 0-.8 20.2z" style="fill-rule:nonzero"/><path d="M800.3 738.3q-5.2-1.5-10.5-2.8v-.1q0-10.2.8-20.2l10.5 2.5a234 234 0 0 0-.8 20.6M958.1 959l-.5-2 2 .6-.5 1zM715 731.4q.4-10.2 1.7-20.3a229 229 0 0 1 20.4-1.3q-.5 3-.8 6.2a210 210 0 0 0-1.2 13.9q-10 .3-20 1.5" style="fill-rule:nonzero"/><path d="m959.6 957.7-2-.6-.6-2.4 3.4 1.1zm-315-204.4a231 231 0 0 1 2.5-23.4 230 230 0 0 1 22-8.6 213 213 0 0 0-3.7 22.6 211 211 0 0 0-20.9 9.4m313.9 206.9-.3-1.1 1-.5-.1.3zM583.9 800.4a231 231 0 0 1 3.6-31.8 232 232 0 0 1 25.3-19.7 210 210 0 0 0-6.8 30l-1.3 1.2a211 211 0 0 0-20.8 20.3m157.5 370.1a233 233 0 0 1-35-2.6 211 211 0 0 1 8.8-19 212 212 0 0 0 26.2 1.6q17.5 0 34.5-2.9a229 229 0 0 0-11.3 21.8 231 231 0 0 1-23.2 1.1m47.3-5a210 210 0 0 1 15.6-24.7 211 211 0 0 0 73.2-40.5 210 210 0 0 0 33.8-36.4 209 209 0 0 1 28.3-6.8l-1.3 2.3a230 230 0 0 0-85.9 82.4 230 230 0 0 1-63.7 23.8m-102.2-1.7a230 230 0 0 1-50.6-18.8q3-9.6 7-18.8 24.6 13 51.7 19a231 231 0 0 0-8.1 18.6m-68.3-28.9a231 231 0 0 1-38.2-30.2q2.7-11.1 6.6-21.9a209 209 0 0 0 39 33.1 229 229 0 0 0-7.4 19m-54.2-47.6a232 232 0 0 1-22.3-32 210 210 0 0 1 7-30 211 211 0 0 0 23 39.3q0 .3.4.6a229 229 0 0 0-8 22.2m362.7-48.3.5-1q1.5 0 2.9.3zm-399.1-12.6-3.3-8.5a208 208 0 0 1 7.3-58.3 209 209 0 0 0 6.8 36.6 232 232 0 0 0-10.8 30.2M511.4 958a231 231 0 0 1 31.4-135c-4.3 20.3-5.7 41-4.5 61.2a212 212 0 0 0-3.9 16.9 230 230 0 0 0-23 56.9m452.4 33.9-.6-5.9 4.4-3.9-1 5.2zm-4.7-33.3.5-1 1 .4z" style="fill-rule:nonzero"/><path d="m960.6 958-1-.3.8-1.9 3 1zm-1.6 4.8-.6-2.6.6-1.3.1-.3 1.5-.6 2.7.6z" style="fill-rule:nonzero"/><path d="m963.3 958.6-2.7-.6 2.7-1.3 1.5.5zm-.1 27.4-1-7 6.4-2.7-1 5.8z" style="fill-rule:nonzero"/><path d="m962.2 979-1.6-8.8 9-.8-1 7zm-1.6-8.8-1.6-7.4 4.3-4.2q3.6 1 7.3 1.8l-1 9zm10-9.8-7.3-1.8 1.5-1.4 6 1.6zm-432.3-76.2a229 229 0 0 1 4.5-61.3 230 230 0 0 1 38-48.2l-3.2 6.6a210 210 0 0 0-16 49 209 209 0 0 0-23.3 53.9m196 361.2q-22.1 0-43.3-4.2.3-10 1.5-20a209 209 0 0 0 41.9 4.2q6.5 0 13-.4a230 230 0 0 0-2.6 20.1q-5.2.3-10.4.3m30.7-2q1-10.6 3.1-20.7 30.5-5 58-18.2a230 230 0 0 0-4.8 24 231 231 0 0 1-56.3 14.8m-93.9-6.8a230 230 0 0 1-45.2-18.3 209 209 0 0 1 .3-22.9 211 211 0 0 0 46.7 20.9 228 228 0 0 0-1.8 20.3m172.3-18.4q3-14.4 8-28a210 210 0 0 0 81.2-104 208 208 0 0 1 25.3-14.4l-.7 2.6c-29 29-49 64.8-59.3 103.2a230 230 0 0 1-54.5 40.6M605.9 1206a232 232 0 0 1-30.5-24.5 210 210 0 0 1-1.5-30.8q10.5 12.3 22.7 23a210 210 0 0 0 10.8 8.8 230 230 0 0 0-1.5 23.5m-52-48.2q-2.9-3.6-5.6-7.3a208 208 0 0 1-9.3-58.1 211 211 0 0 0 16.8 33.3 232 232 0 0 0-2 32m-34.7-61.3a231 231 0 0 1-7.7-138.4 229 229 0 0 0 13 60q0 8.7.9 17.4a230 230 0 0 0-6.2 61m421.5-38.3.2-1.2 3-.4zm24.3-50.8-2-5 1.4-5.1zm-27-56.6-3-.2-.4-1.1zm11.1-20.4a211 211 0 0 1-29-15 210 210 0 0 0-47.2-58.9 211 211 0 0 0-27.2-20.1 210 210 0 0 1-13.3-29.9 232 232 0 0 1 59.5 40.1 231 231 0 0 0 54.8 78zm-389.1-32a210 210 0 0 1-1.9-31 231 231 0 0 1 27.6-27.7 232 232 0 0 0 4.1 23.1 212 212 0 0 0-22 24.5 214 214 0 0 0-7.8 11m47.2-50.3a213 213 0 0 1-2.8-22.7A229 229 0 0 1 647 802a229 229 0 0 0 4 20 211 211 0 0 0-44 25.9m197.5-31.2A209 209 0 0 0 745 805a215 215 0 0 1-5.5-20.2 229 229 0 0 1 57.6 8.5 229 229 0 0 0 7.4 23.4m-134.6-1.8a210 210 0 0 1-2.8-13.6l-1-6.2a232 232 0 0 1 38.3-8.3 233 233 0 0 1 14.8-1.5 234 234 0 0 0 4.8 19.6v.1q-8.5.4-17 1.6a212 212 0 0 0-37.1 8.3" style="fill-rule:nonzero"/><path d="m945 950.7-7.2-.1-3.3-1.3-1.5-4.2a228 228 0 0 0 13 5.6zM816.4 821.2l-12-4.6a229 229 0 0 1-7.3-23.4l11.2 3.5a228 228 0 0 0 8.1 24.5m127.2 143.5a229 229 0 0 0-7.9-11.6l-.8-2.7 3 .2a228 228 0 0 0 13 4.5l-.6 7.2q-3.3 1.3-6.7 2.4M724.1 805v-.1a234 234 0 0 1-4.9-19.6 232 232 0 0 1 20.3-.5A215 215 0 0 0 745 805q-5-.3-10-.3-5.5 0-11 .3" style="fill-rule:nonzero"/><path d="M951 955.1a228 228 0 0 1-13.2-4.5h8.3q2.4 1.1 5 2 0 1.3-.2 2.5m-2.6 17.3-1-1.7h2l-.2 1zM651 822a229 229 0 0 1-4-20 229 229 0 0 1 19.2-6.9l1 6.2a210 210 0 0 0 2.7 13.6A208 208 0 0 0 651 822" style="fill-rule:nonzero"/><path d="m947.3 970.7-3.7-6q3.4-1.1 6.7-2.4l-1 8.4zm-357.7-108a232 232 0 0 1-4.1-23.2 230 230 0 0 1 18.7-14.4 213 213 0 0 0 2.8 22.7 209 209 0 0 0-17.4 14.8m359.2 110.8-.5-1 .8-.6v.2zm-417.2-13.6q-2.3-25.6 1.6-51.5l1.2-7.2 4.7-7.8a231 231 0 0 0 5.5 31.6 210 210 0 0 0-12.8 34.4z" style="fill-rule:nonzero"/><path d="M544.6 924.9a231 231 0 0 1-5.5-31.6 232 232 0 0 1 18.8-26 210 210 0 0 0 1.9 30.8 210 210 0 0 0-15.2 26.8m-20.3 93.1a229 229 0 0 1-12.9-60 230 230 0 0 1 23-56.9l-1.2 7.2a211 211 0 0 0-1.6 51.5 208 208 0 0 0-7.3 58.2m438.6-15.7-2.2-5.4 3.1-5 .5 5.3zm-12.6-40 .7-7.2 6.6 2 .5 2z" style="fill-rule:nonzero"/><path d="m957.6 957.1-6.7-2 .2-2.5 5.9 2zm-8.5 14.7.1-1.1h1.2zm.1-1.1q.7-4.2 1.1-8.4l7.8-3.2.3 1-3 6.1-5 4.4z" style="fill-rule:nonzero"/><path d="m950.2 975.8-1.4-2.4.3-1.6 1.3-1.2h2.7z" style="fill-rule:nonzero"/><path d="m950.4 970.6 5-4.4-2.3 4.3zm10.3 26.3-.6-1.2-2.3-5.2 5.4-4.5.6 5.9zm-5.3-30.7 3-6 .6 2.6z" style="fill-rule:nonzero"/><path d="m957.8 990.5-4-8.1 8.4-3.3 1 7zm-4-8.1-3.6-6.6 3-5.2 7.4-.4 1.6 8.9z" style="fill-rule:nonzero"/><path d="m953.1 970.6 2.3-4.4 3.6-3.4 1.6 7.4zm-203.6 348.6q-24.1 0-47.5-5a208 208 0 0 1-6.1-22 210 210 0 0 0 50.7 7 230 230 0 0 0 3.9 20zm21.4-1a208 208 0 0 1-4.2-19.7 208 208 0 0 0 53.8-11.7 231 231 0 0 0 3.1 20 229 229 0 0 1-52.7 11.4m-91.6-10q-18.7-6-36.1-15a210 210 0 0 1-10.1-29.2l2.9 2a212 212 0 0 0 38.2 19.2 230 230 0 0 0 5 23m163.4-8.7a210 210 0 0 1-2.8-20.8q27.8-13.2 50.5-33.6.4 12 2.1 24.3-22.5 17.8-49.8 30m-226.8-23q-3.8-2.5-7.3-5.4a208 208 0 0 1-25.2-53.1 209 209 0 0 0 25.4 27.3 232 232 0 0 0 7.1 31.3m295-23.2q-1.2-14.7-.3-29.2a210 210 0 0 0 49-122.5 208 208 0 0 1 20.2-20.9v2.6a229 229 0 0 0-28 115.7 230 230 0 0 1-41 54.3m-345.4-26a231 231 0 0 1-46.2-130.8 229 229 0 0 0 29.2 54.1 213 213 0 0 0 5.8 16.4 230 230 0 0 0 11.2 60.3m-26.3-135a211 211 0 0 1-12.9-49.6l-.8-7.3 2.3-8.8a231 231 0 0 0 14 28.8 210 210 0 0 0-2.6 37m420.2-20-.1-1.2 2.6-1.2zm-410.4-47a210 210 0 0 1-10.4-29 231 231 0 0 1 18.6-34.5 232 232 0 0 0 10.5 21.1 212 212 0 0 0-14.2 29.7 211 211 0 0 0-4.5 12.7m419.5-8.6-3.3-4.2-.1-5.3zM580 963.9a213 213 0 0 1-9-21 229 229 0 0 1 34.6-34.2 229 229 0 0 0 9.5 18 209 209 0 0 0-18.9 17.7A211 211 0 0 0 580 964m51.2-49.3a210 210 0 0 1-9.1-18 232 232 0 0 1 34.3-18.6 234 234 0 0 1 13.8-5.6 233 233 0 0 0 10.1 17.4l.1.2a215 215 0 0 0-16 6.3 212 212 0 0 0-33.2 18.3m69.3-30.5a215 215 0 0 1-11-17.9 229 229 0 0 1 57.8-8l2 3.4v16.7a208 208 0 0 0-48.8 5.8" style="fill-rule:nonzero"/><path d="m749.3 861.6-2-3.3h2zM680.4 890v-.2a233 233 0 0 1-10.2-17.4 231 231 0 0 1 19.4-6.2 215 215 0 0 0 10.9 17.9 210 210 0 0 0-20.1 5.9m-65.3 36.7a229 229 0 0 1-9.5-18 229 229 0 0 1 16.5-12l2.6 5.6a210 210 0 0 0 6.5 12.3 208 208 0 0 0-16.1 12.1M567.5 983a232 232 0 0 1-10.5-21 230 230 0 0 1 14-19 213 213 0 0 0 9 21 209 209 0 0 0-12.5 19m-25.8 72.4a231 231 0 0 1-14.1-28.8 232 232 0 0 1 10.8-30.2 210 210 0 0 0 10.4 29 210 210 0 0 0-7.1 30m381.8-84.8-.7-1 3.6.3zm10.2-20.2a209 209 0 0 1-29-3.6 209 209 0 0 0-41.8-35.3 211 211 0 0 0-73-29.3 209 209 0 0 1-18.2-22.8 231 231 0 0 1 65.9 16.5 231 231 0 0 0 94.5 72.4zm-172.8-71.7-11.6-.3v-16.7a229 229 0 0 0 11.6 17" style="fill-rule:nonzero"/><path d="M932 948.3a231 231 0 0 1-94.4-72.4 232 232 0 0 1 15.3 7 231 231 0 0 0 74.4 59.4zm-5.7 21.6-3.6-.3a209 209 0 0 0-18-22.8 209 209 0 0 0 28.9 3.6l2 2.7a210 210 0 0 1 3.6 13.1 209 209 0 0 1-13 3.7m-136.5-87.7a210 210 0 0 0-29-3.6 229 229 0 0 1-11.5-17v-3.3q11.3 0 22.4 1l1.5 2.3a209 209 0 0 0 16.6 20.6M936 982a230 230 0 0 0-10.8-8.9l-1.6-2.4 2.9-.7q6.9.6 13.9.7l1.4 7.1z" style="fill-rule:nonzero"/><path d="M940.3 970.6a229 229 0 0 1-14-.7 209 209 0 0 0 13-3.7zm2.2 17.4-1.4-1.4 1.9-.6.1 1zm-1.5-1.4-5-4.7 5.7-4.2 1.3 8.3zm2.4 2.1-.9-.7.6-1v.3zm-395 161.8a229 229 0 0 1-29.3-54 230 230 0 0 1 6.2-61.1l.8 7.3a211 211 0 0 0 13 49.6 208 208 0 0 0 9.2 58.2m416.7-138-3.7-4.5q.9-2.8 1.6-5.7l2 5zm-25.7-46.4a210 210 0 0 0-3.6-13 229 229 0 0 1 7.9 11.5zm2.4 11.5-1.4-7h7l1 1.7z" style="fill-rule:nonzero"/><path d="M945 970.7h-4.7l-1-4.5 4.3-1.5 3.7 6zm-1.9 16.4-.1-1 1-.4z" style="fill-rule:nonzero"/><path d="m943 986-1.3-8.3 6.6-5.3.5 1-1.1 6.6-3.6 5.7zm2.3 4.7-2-2-.1-1.4v-.2l.9-1.4 2.6-.9z" style="fill-rule:nonzero"/><path d="m944 985.7 3.7-5.7-1 4.8zm17.2 22.3-.9-1-3.7-4.3 4-5.8 2.2 5.4q-.7 2.9-1.6 5.7m-13.6-28 1.1-6.6 1.4 2.4z" style="fill-rule:nonzero"/><path d="m956.7 1002.7-6.1-6.7 7.2-5.5 2.3 5.2.6 1.2zm-6.1-6.7-5.3-5.3 1.4-5.9 7-2.4 4 8z" style="fill-rule:nonzero"/><path d="m946.7 984.8 1-4.8 2.5-4.2 3.6 6.6zm-168.4 400.7a232 232 0 0 1-38.9-4.3 209 209 0 0 1-17.8-25.1 210 210 0 0 0 45.3 8.8 231 231 0 0 0 11.4 20.6m23.5-.5a209 209 0 0 1-12-19.4 210 210 0 0 0 50.6-7.6q4.3 9.3 9.3 18.1a231 231 0 0 1-47.9 8.9m-93.3-12.1-8.6-3.2a208 208 0 0 1-39-44 210 210 0 0 0 32 19 232 232 0 0 0 15.6 28.2m-62.3-33.1a231 231 0 0 1-80.9-112.6 228 228 0 0 0 43.2 43.7 214 214 0 0 0 10.1 14.1 230 230 0 0 0 27.6 54.8m-63-122a211 211 0 0 1-26.2-44.2l-2.9-6.7-.2-9.1a231 231 0 0 0 21.5 23.7 210 210 0 0 0 7.8 36zm-9.3-67.1a210 210 0 0 1-18.1-25 231 231 0 0 1 8.2-38.3 231 231 0 0 0 16 17.4 212 212 0 0 0-5.4 32.4q-.6 6.8-.7 13.5m12.7-67.8a213 213 0 0 1-14.5-17.6 229 229 0 0 1 23.6-42.6q6.7 7.7 14.2 14.7a209 209 0 0 0-13.1 22.3 211 211 0 0 0-10.2 23.2m387.6-58-4.3-3-1.6-5.1zm-352.2-3.7a212 212 0 0 1-13.8-14.7 232 232 0 0 1 27.7-27.6 235 235 0 0 1 11.7-9.2 234 234 0 0 0 14.6 14h.1a214 214 0 0 0-13.5 10.5 211 211 0 0 0-26.8 27m296.3-28-1-.9 3.6-.7zm-24.8-17.7A210 210 0 0 0 784.1 945q-9.5 0-18.9.9a209 209 0 0 1-23.8-16.9 231 231 0 0 1 42.7-4q12.6 0 25.2 1.4a231 231 0 0 0 111 43l2 1.6a209 209 0 0 1-28.8 4.6m-213.6-3a214 214 0 0 1-15.4-14 229 229 0 0 1 53.1-23.8 229 229 0 0 0 18.8 15.7 210 210 0 0 0-23.1 6.8 209 209 0 0 0-33.4 15.3" style="fill-rule:nonzero"/><path d="M920.2 969.3a231 231 0 0 1-111-43 230 230 0 0 1 111 43m-2.9 23.1a210 210 0 0 0-23.8-16.9 209 209 0 0 0 28.9-4.6l2.7 2.1a210 210 0 0 1 7 11.6 208 208 0 0 1-11.2 7.1zm-181-42a229 229 0 0 1-18.7-15.7 229 229 0 0 1 23.8-5.8 209 209 0 0 0 23.8 16.9 209 209 0 0 0-28.8 4.6" style="fill-rule:nonzero"/><path d="M933.3 1000.6a232 232 0 0 0-12.8-5.6l-2.2-1.8 2.6-1.5q6.8-1.4 13.5-3.2l3.3 6.4zm-271-16.8a234 234 0 0 1-14.7-14 231 231 0 0 1 16.9-11.4 215 215 0 0 0 15.4 14.1 210 210 0 0 0-17.6 11.3" style="fill-rule:nonzero"/><path d="M920.9 991.7a208 208 0 0 0 11.3-7.1l2.2 4a229 229 0 0 1-13.5 3.1m-311 45.7a229 229 0 0 1-14.2-14.7 227 227 0 0 1 12.5-16 212 212 0 0 0 13.8 14.6 207 207 0 0 0-12.1 16.1m331.5-32.9-1.8-.9 1.7-1 .4 1z" style="fill-rule:nonzero"/><path d="m939.6 1003.6-6.3-3 4.4-5.7 3.6 7.6zM580 1104.8a231 231 0 0 1-16-17.3 229 229 0 0 1 8-22.2 213 213 0 0 0 14.6 17.6 209 209 0 0 0-6.6 21.9m362.4-99.8-1-.5.3-1 .1.2zm-367 176.5a231 231 0 0 1-21.5-23.7 232 232 0 0 1 1.9-32.1 210 210 0 0 0 18 25q-.2 15.5 1.6 30.8m33 89.4a228 228 0 0 1-43.1-43.7 230 230 0 0 1-11.2-60.3l2.9 6.7a211 211 0 0 0 26.3 44.2 208 208 0 0 0 25.2 53.1m361.4-249-4.9-3.4v-6l3.3 4.3zm-37.7-37.2a210 210 0 0 0-7-11.6 230 230 0 0 1 10.7 9zm5.5 10.3-3.3-6.4 6.7-1.9 1.4 1.4z" style="fill-rule:nonzero"/><path d="m934.4 988.5-2.2-4 3.7-2.6 5.2 4.7zm7.3 15-.4-1 1-.7z" style="fill-rule:nonzero"/><path d="m941.3 1002.5-3.6-7.6q2.5-3.4 4.8-7l.9.8.7 6.8-1.9 6.4zm3.6 3.8-2.4-1.3-.6-1.3v-.2l.4-1.6 2.3-1.6z" style="fill-rule:nonzero"/><path d="m942.2 1001.9 1.9-6.4.4 4.8zm22.8 16.6-1-.7-4.9-3.1 2.2-6.7 3.7 4.6zm-21-23-.6-6.8 2 2zm15.1 19.2-7.7-4.7 5.3-7.3 3.7 4.3.9 1z" style="fill-rule:nonzero"/><path d="m951.4 1010-6.6-3.7-.3-6 6-4.3 6.2 6.7z" style="fill-rule:nonzero"/><path d="m944.5 1000.3-.4-4.8 1.2-4.8 5.3 5.3zM869 1369.5a210 210 0 0 1-9.5-17.8 209 209 0 0 0 48.3-26.3q3.9 9.4 8.7 18.4a230 230 0 0 1-47.5 25.7m63.6-38a209 209 0 0 1-8.5-19.2 209 209 0 0 0 39-46.4q3.9 11.5 9 22.8-16.6 23.4-39.5 42.7m52.5-63.4a209 209 0 0 1-8.3-28 210 210 0 0 0 12.6-131.2 208 208 0 0 1 13.6-25.8l.8 2.5a231 231 0 0 0 5.4 119c-4.8 22-12.8 43.5-24 63.5m-4.2-187-.4-1.2 2.2-2zm-156.5 358.6-9.2-.6q-27-12-49.7-31.3a210 210 0 0 0 36 9.4 232 232 0 0 0 22.9 22.5m32-.6a211 211 0 0 1-24.2-19.1h3.7q21.6 0 42.4-4.2a232 232 0 0 0 16.6 16.6 233 233 0 0 1-38.5 6.7m-101-13.7a231 231 0 0 1-47-24 230 230 0 0 1-62.3-61.4 229 229 0 0 0 53.7 29.9q6.6 5.6 13.7 10.7a230 230 0 0 0 41.9 44.8m-94.7-99.5a211 211 0 0 1-37.6-35l-4.6-5.7-2.8-8.6a231 231 0 0 0 27.4 16.7 210 210 0 0 0 17.5 32.3zm-27.7-61.8a211 211 0 0 1-24.4-18.8 231 231 0 0 1-2.8-39.1 230 230 0 0 0 20.1 12.1 212 212 0 0 0 4 32.7q1.3 6.6 3 13.1m-6.7-68.6q-9.7-5.9-18.9-12.8a229 229 0 0 1 10.8-47.5q8.5 5.4 17.7 10.1a209 209 0 0 0-6.4 25 211 211 0 0 0-3.2 25.2m16.7-69a211 211 0 0 1-17.4-10.3 232 232 0 0 1 19-34.2 230 230 0 0 1 8.6-12.2 237 237 0 0 0 17.9 9.3l.1.1a212 212 0 0 0-10 13.9 212 212 0 0 0-18.2 33.4m42-63-5.5-2.5a214 214 0 0 1-13.3-6.8 229 229 0 0 1 44.4-37.7 229 229 0 0 0 22.4 9.9 210 210 0 0 0-48 37m74.4-49.6a211 211 0 0 1-27.6-9.5 231 231 0 0 1 64.4-21.5 232 232 0 0 0 40.2 10.6v5.9a211 211 0 0 0-77 14.5" style="fill-rule:nonzero"/><path d="M836.4 993.2a232 232 0 0 1-40.2-10.6 232 232 0 0 1 40.2-3.5zm-103.4 33a229 229 0 0 1-22.4-9.8 229 229 0 0 1 21.2-12.3 211 211 0 0 0 27.6 9.5 211 211 0 0 0-26.4 12.6m-61.8 52.8a237 237 0 0 1-18-9.4 228 228 0 0 1 13.1-15.6 214 214 0 0 0 13.3 6.8l5.5 2.5a212 212 0 0 0-13.8 15.7m-35.3 66.1a232 232 0 0 1-17.7-10q3.3-9.7 7.4-19a211 211 0 0 0 17.4 10.2 207 207 0 0 0-7.1 18.8m-9.9 73a230 230 0 0 1-20-12.1q.1-11.7 1.5-23.5a212 212 0 0 0 19 12.8 209 209 0 0 0-.4 22.8m17.2 75a231 231 0 0 1-27.4-16.7 232 232 0 0 1-7.1-31.3A211 211 0 0 0 633 1264q4 15 10 29m339-261.8-5-1.8-3-4.4zm-62.5-14.9-1.1-.5 3.1-1.6zm-28.7-10a210 210 0 0 0-54.4-7.2v-6a231 231 0 0 0 38.3 3.3q20 0 40-3.5l2.5.9a210 210 0 0 1-17.9 9z" style="fill-rule:nonzero"/><path d="M874.8 996.4a231 231 0 0 1-38.3-3.2V979a229 229 0 0 1 78.3 13.8 230 230 0 0 1-40 3.5m43.7 19.4q-13.5-5.7-27.6-9.5l8.5-3.6a210 210 0 0 0 17.9-8.9l3.2 1.2a213 213 0 0 1 10 9.1 205 205 0 0 1-8.9 10q-1.5 1-3.1 1.7m17.6 3.5q-6.9-1-13.9-1.7l-2.6-1.2 2-2.1q6.1-3.3 12.1-6.9l5 5.2z" style="fill-rule:nonzero"/><path d="m921.6 1014.2 8.9-10 3.2 3.1q-6 3.7-12 6.9m23.3 6.5-2-.4 1.3-1.5.7.9z" style="fill-rule:nonzero"/><path d="m943 1020.3-6.9-1.1q1.4-3.3 2.6-6.7l5.6 6.3zm3 .6-1-.2v-1l.1.2zM917.4 1425a210 210 0 0 1-17-15.2 210 210 0 0 0 46.4-21.4A232 232 0 0 0 961 1403a231 231 0 0 1-43.5 22m60.2-33.8a211 211 0 0 1-14.1-14.4 210 210 0 0 0 39-38.7q6.3 7.8 13.4 15.2a229 229 0 0 1-38.3 38m50.3-54.4q-7.2-7.5-13.5-16a209 209 0 0 0 24.5-55.5 231 231 0 0 0 15 19.4q-9.5 27.1-26 52.1m32.7-75.6q-8.8-11.7-15.9-24.5a210 210 0 0 0-24.6-129.5q2-14.5 5.8-28.5l1.5 2.1a230 230 0 0 0 38.5 112.7q2.5 34-5.3 67.7m-56.3-178.4-.8-1 1.6-2.5zm-304.5 286.7a229 229 0 0 1-53.7-30 230 230 0 0 1-27.6-54.7l4.6 5.7a211 211 0 0 0 37.6 35 208 208 0 0 0 39.1 44m277.2-340.3-5.6-1.9-1.6-5.6 4.3 3zm-46.7-25.3a213 213 0 0 0-10-9 232 232 0 0 1 12.8 5.5zm8.2 8.4-5-5.2 6-3.7 1.7 1z" style="fill-rule:nonzero"/><path d="m933.7 1007.3-3.2-3.2 2.8-3.5 6.3 3zm11.3 12.4-.7-.9.7-.9z" style="fill-rule:nonzero"/><path d="m944.3 1018.8-5.6-6.3 2.7-8 1 .5 2.6 6.3v6.6zm4.4 2.7-2.7-.6-.9-1-.1-.2v-1.8l1.7-2z" style="fill-rule:nonzero"/><path d="M945 1018v-6.7l1.7 4.5zm26.5 9.6-1.3-.4-5.4-1.6.2-7 4.9 3.3zm-26.5-16.2-2.6-6.3 2.4 1.3zm19.8 14.1-8.8-2.3q1.7-4.3 3.1-8.6l4.8 3.1 1.1.8z" style="fill-rule:nonzero"/><path d="m956 1023.2-7.3-1.7-2-5.7 4.7-5.8q4 2.2 7.7 4.7zm-9.3-7.4-1.7-4.5-.2-5 6.6 3.7zm-62.5 460.9a231 231 0 0 1-128.7-51.5 229 229 0 0 0 59.8 13.7 213 213 0 0 0 16.2 6.4q24.1 19.2 52.7 31.4m-118.6-69a211 211 0 0 1-52-27.3l-5.1-7.5a232 232 0 0 0 31 8.3 210 210 0 0 0 25.8 26.2zm-44-51.5a209 209 0 0 1-28.8-11.3 231 231 0 0 1-13.5-36.7 231 231 0 0 0 22.7 6 212 212 0 0 0 19.6 42m-25.7-64a210 210 0 0 1-21.7-7 229 229 0 0 1-3-48.6 227 227 0 0 0 19.8 4.7 209 209 0 0 0 4.9 51m-3.4-71q-9.7-2-19.5-5a232 232 0 0 1 8.6-38.2q2.2-7.2 4.9-14a236 236 0 0 0 19.8 3.8h.1a214 214 0 0 0-5.8 16.2 212 212 0 0 0-8 37.1m22.6-72.2-5.9-.8q-7.4-1.2-14.7-2.8a229 229 0 0 1 32-48.6q12.2 2.2 24.3 3.2a207 207 0 0 0-35.7 49m53-68.4q-12.4 0-24.6-1.4a231 231 0 0 1 55.8-38.7q7.3.4 14.5.4c35.2 0 70.2-8 102.2-23.8l2.6.2a210 210 0 0 1-21.7 19.4q-31.2.7-60.8 10.3a211 211 0 0 0-58.2 29.7l-5.3 3.9zm159.2-42.4-1.2-.1 2.6-2.5z" style="fill-rule:nonzero"/><path d="M813.9 1040.8q-7.2 0-14.5-.4a230 230 0 0 1 116.7-23.4 231 231 0 0 1-102.2 23.8m-63 59a227 227 0 0 1-24.2-3 228 228 0 0 1 16.9-17.7 209 209 0 0 0 29.1 1.4 210 210 0 0 0-21.8 19.3M926 1038a210 210 0 0 0-24.8-1.5H897a210 210 0 0 0 21.7-19.3l3.5.3a209 209 0 0 1 12.2 5.9 206 206 0 0 1-5.7 12.1zm-219.6 129.9h-.1a236 236 0 0 1-19.8-4 231 231 0 0 1 8.1-18.6q7.3 1.5 14.7 2.8l5.9.8a211 211 0 0 0-8.8 19m223.8-129.4-2.9-.4 1.4-2.6a232 232 0 0 0 9.7-10l6.2 3.7-.6 7q-7 1-13.8 2.3" style="fill-rule:nonzero"/><path d="M928.7 1035.5a206 206 0 0 0 5.7-12.1l4 2.2a232 232 0 0 1-9.7 10M691 1241.1a227 227 0 0 1-19.8-4.7q.5-10.1 1.8-20.3a207 207 0 0 0 19.6 5 208 208 0 0 0-1.6 20m260-205.6.8-1.8 1 .6.2 1z" style="fill-rule:nonzero"/><path d="m944 1036.3.6-7.1 7.1 4.5-.8 1.8zM702 1314a231 231 0 0 1-22.7-6 230 230 0 0 1-5.1-23 210 210 0 0 0 21.7 7 208 208 0 0 0 6.1 22m250.9-278.8q0-.6-.3-1h.2l1.2.9zm38.6-.3-5.3-.3-4-3.4zm-252 346.3a232 232 0 0 1-31-8.3 232 232 0 0 1-15.7-28.1 209 209 0 0 0 28.8 11.3 209 209 0 0 0 17.8 25.1m76 57.7a229 229 0 0 1-60-13.7 230 230 0 0 1-41.8-44.8 211 211 0 0 0 52 27.2 208 208 0 0 0 49.7 31.3m119-415.5-12-6q6.9.7 13.8 1.8zm10.2 5.8-6.2-3.6 4.6-5.3 2 .4z" style="fill-rule:nonzero"/><path d="m938.4 1025.6-4-2.2 1.7-4.2 6.9 1.1zm14.2 8.7-.9-.6.5-1.1z" style="fill-rule:nonzero"/><path d="m951.7 1033.7-7.1-4.5.4-8.5 1 .2 4.3 5.3 1.9 6.4zm2.3 1.6-1.2-.8-.2-.1-.4-1.7 1-2.5 3.5 4.9z" style="fill-rule:nonzero"/><path d="m952.2 1032.6-2-6.4 3 3.9zm34 2-6-.2-3-5 5 1.8z" style="fill-rule:nonzero"/><path d="M980.3 1034.4H979l-4.7-.1h-1l-1.8-6.8 5.6 1.9zm-30-8.2-4.3-5.3 2.7.6z" style="fill-rule:nonzero"/><path d="m964.2 1034.5.6-9 6.7 2 1.8 6.8-9 .2m-7.6.5-3.5-4.9q1.5-3.4 2.8-7l8.8 2.4-.6 9zm-3.5-4.9-3-3.9-1.5-4.7 7.3 1.6zm-7.7 443a208 208 0 0 1-56.5-16.2 205 205 0 0 0 37.2-1 232 232 0 0 0 28.3 15.2zm39.6-11.6-3-1a212 212 0 0 1-25.6-10.6 212 212 0 0 0 43-17q10 6.3 20.7 11.4a232 232 0 0 1-35 17.2m54.5-30.4a208 208 0 0 1-20.6-9.9 219 219 0 0 0 38.7-33.5q8.6 5.5 17.6 10.2a230 230 0 0 1-35.7 33.2m48.4-49.2q-9-4.5-17.6-9.8a209 209 0 0 0 26.6-48.2q8.3 5.8 17.2 10.9a230 230 0 0 1-26.2 47.1m33.1-66.2a211 211 0 0 1-17.4-11.6 209 209 0 0 0 8-60.2q9.3 7.8 19.7 14.5-1.4 28.6-10.3 57.3m10.2-81.8a209 209 0 0 1-22.1-19 210 210 0 0 0-59.9-117.5 208 208 0 0 1-2.4-29l2 1.7c14.1 38.5 38 71.8 68.6 97.3a230 230 0 0 1 13.8 66.5m-104-155.5-1-.7.8-2.8zm-53 416.6h-4.6a232 232 0 0 1-85.6-18.3 231 231 0 0 0 61.3-3.7q8.6 1.1 17.3 1.7a230 230 0 0 0 59.5 15.3 231 231 0 0 1-47.8 5m-85.5-38a211 211 0 0 1-57.5-11.7l-7-5.8a234 234 0 0 0 32-.6 209 209 0 0 0 32.2 17.9zm-56.7-37.1a210 210 0 0 1-30.7-2.8 232 232 0 0 1-23.3-31.5 232 232 0 0 0 23.5-.5 212 212 0 0 0 20.9 25.4q4.6 4.8 9.6 9.4m-48-54.2a213 213 0 0 1-17.4-.7 229 229 0 0 1-16.4-45.8q10.2 0 20.4-1 3.2 12.5 8 24.5a210 210 0 0 0 10.9 23zm-34.8-66.5h-3a232 232 0 0 1-2.4-39q0-7.5.7-15 10-.5 20.2-1.8h.1a215 215 0 0 0 1.6 55q-8.5.8-17.2.8m-2-74.1a229 229 0 0 1 17.1-55.6q12.2-1.3 24.1-3.8a208 208 0 0 0-20.5 57l-5.9 1a212 212 0 0 1-14.9 1.4m28.5-77.3a231 231 0 0 1 42.8-52.8 232 232 0 0 0 105.5-55.1l2.6-.6a211 211 0 0 1-15.5 24.7c-31.3 9.8-60 26.9-84 50.5a213 213 0 0 0-23 26.4 209 209 0 0 1-28.4 6.9m163.7-90.6 1.8-3-.6 2.8zm-121 37.8a230 230 0 0 1 105.6-55.1 231 231 0 0 1-105.5 55" style="fill-rule:nonzero"/><path d="M764.6 1169.4q5.1-11.2 11.3-21.8 14.4-2.4 28.4-6.8a210 210 0 0 0-15.6 24.8 227 227 0 0 1-24.1 3.8m146.7-105.5a211 211 0 0 0 15.5-24.7l3.4-.7q6.7 1 13.3 2.3l-2 13.2-1.9 3.1a209 209 0 0 0-28.3 6.8" style="fill-rule:nonzero"/><path d="M744.8 1245.1a230 230 0 0 1 2.6-20.1 212 212 0 0 0 20.8-2.3q-2 10.2-3.1 20.6h-.1a234 234 0 0 1-20.2 1.8m196-188.2.6-2.9q3.5-6 6.5-12.2 3.5.7 7 1.7l1.4 7q-6.5 2.9-12.6 6z" style="fill-rule:nonzero"/><path d="M941.4 1054q1.2-6.6 2-13.2l4.5 1a229 229 0 0 1-6.5 12.2m-190.9 265a230 230 0 0 1-4-20 213 213 0 0 0 20.2-.6 208 208 0 0 0 4.2 19.7q-10.2 1-20.4 1m212.2-271.3.3-2 1 .3.6 1zm-6.4 2.7-1.4-7q4 1 8 2.3l-.2 2zm93 421.1q-14 0-28-1.9 18.3-4.1 35.5-11.5 15.5 4.5 31.3 6.8l-8 4.3a210 210 0 0 1-30.8 2.3m65.6-24.4q-15.5-.5-30.7-3.1 19.6-12 36.5-28.3 11.4 3 23 5a232 232 0 0 1-28.8 26.4m43.9-44.5q-11.5-1.2-22.6-3.7a210 210 0 0 0 27.7-43 228 228 0 0 0 19.8 4.9 230 230 0 0 1-25 41.8m32.7-60.7q-9.9-1.8-19.6-4.5a210 210 0 0 0 12-53.7q9.7 3.2 19.6 5.6-3 27.5-12 52.6m13.3-73q-10.2-2.5-20-6.1-.2-30.8-9.2-60 11.3 4.8 23 8.3 6.7 28 6.2 57.9m-13.1-81.3q-13.7-5.2-26.6-12.2a210 210 0 0 0-90.3-95.9q-6.1-13.2-10.4-27.2l2.3 1a230 230 0 0 0 93 74.3 230 230 0 0 1 32 60m-143.4-120.2-1.2-.4v-3zm-51.8-30.5-4.9-2.2 10 1zm-212 348.5h-6.1a231 231 0 0 1-11.4-20.7 213 213 0 0 0 22.9.6 209 209 0 0 0 12 19.5q-8.7.6-17.5.6M964.6 1047l-.5-.9.2.1 1.3.4zM836 1439.8q-5.7 0-11.5-.3a232 232 0 0 1-22.9-22.5 210 210 0 0 0 30.7 2.8 211 211 0 0 0 24.2 19.1q-10.2 1-20.5 1m65.4 37.4q-8.5 0-17.2-.6-28.6-12.2-52.7-31.4l7 2.3a211 211 0 0 0 50.5 9.4 208 208 0 0 0 56.5 16 229 229 0 0 1-44 4.3m42-436.5a209 209 0 0 0-13.3-2.3q6.8-1.3 13.8-2.2zm11.4 2.7-7-1.7 3-6.3 2-.2z" style="fill-rule:nonzero"/><path d="m948 1041.8-4.5-1 .5-4.5 6.9-.8zm16.2 4.3-1.1-.3.1-1.2zm-1.2-.3-8.1-2.3-2-8.2 1-.1 5.6 3.9 3.6 5.6zm27.6-7.3-4.4-3.9q2.7 0 5.3.3l4.9 2.2q-3 .6-5.8 1.4" style="fill-rule:nonzero"/><path d="m965.6 1046.6-1.3-.4h-.2l-1-1.5.4-2.7 4.7 3.6z" style="fill-rule:nonzero"/><path d="m963.1 1044.7-3.6-5.6 4 2.9zm20.8-4.3-3.6-6 5.9.2 4.4 3.9-1.2.3zm-24.4-1.3-5.5-4 2.7-.1z" style="fill-rule:nonzero"/><path d="m975.2 1043.1-2-8.8h7.1l3.6 6z" style="fill-rule:nonzero"/><path d="m968.2 1045.6-4.7-3.6.7-7.5 9-.2 2 8.8z" style="fill-rule:nonzero"/><path d="m963.5 1042-4-3-2.8-4 7.5-.5zm85.8 449.6q-13.6 0-27-1.6a229 229 0 0 0 57.8-20.7q8.6-1.3 17-3.2a232 232 0 0 0 61.4-2 231 231 0 0 1-109.2 27.5m-74.8-16.6h-4.3l-7.4-.3-8.3-3.6a230 230 0 0 0 30.6-9.6 209 209 0 0 0 36.3 8.2 211 211 0 0 1-47 5.3m-48.2-19.2a232 232 0 0 1-31.2-23.6q11.4-3 22.5-7.2l5 4a212 212 0 0 0 34 21 210 210 0 0 1-30.3 5.8m-47.8-40.2a229 229 0 0 1-28.7-39.4 233 233 0 0 0 19.3-6.7q3.2 5.3 6.7 10.4a210 210 0 0 0 24.8 29.9 212 212 0 0 1-22.1 5.8m-38-57.6a232 232 0 0 1-13.3-36.7 233 233 0 0 1-3.5-14.5q9.5-3.2 18.8-7.4h.2q1.5 8.3 3.8 16.7a212 212 0 0 0 13.1 35.6 208 208 0 0 1-19.1 6.3m-20-71.3a229 229 0 0 1 1-58.2 228 228 0 0 0 22-10.4 212 212 0 0 0-2.4 14.6 208 208 0 0 0-1.2 46l-5.5 2.4a215 215 0 0 1-13.8 5.6m5.6-82.2a231 231 0 0 1 26.3-62.7 231 231 0 0 0 85.9-82.4l2.3-1.3q-1.3 6.3-3 12.6a211 211 0 0 1-5 15.5 211 211 0 0 0-12.8 9.2 210 210 0 0 0-52.8 61 211 211 0 0 0-15.5 33.6l-10.2 6.4a207 207 0 0 1-15.2 8M958 1071.8l.8-3.4.3 2.9z" style="fill-rule:nonzero"/><path d="M852.4 1141.8c20.6-34 50-62.7 85.9-82.4a231 231 0 0 1-85.9 82.4m-31 86.7a230 230 0 0 1 4.7-24 207 207 0 0 0 15.2-8.1q5.2-3 10.2-6.4a209 209 0 0 0-8 28 228 228 0 0 1-22.1 10.5m111.3-142.3a211 211 0 0 0 7.9-28l3.1-1.7a205 205 0 0 1 13.4-1.5q1 6.6 1.7 13.3l-.8 3.4a208 208 0 0 0-25.3 14.5m-109 220.6a231 231 0 0 1-3.2-20.1 215 215 0 0 0 19.3-8q.8 10.3 2.8 20.7h-.2a232 232 0 0 1-18.8 7.4m135.5-235.6-.3-3q1.5-6.7 2.8-13.5l7.2-.3q1.8 3 3.3 6.3-5.4 4.4-10.4 9.3z" style="fill-rule:nonzero"/><path d="M958.8 1068.3q-.6-6.8-1.7-13.3l4.5-.3q-1.2 6.8-2.8 13.6m48-31.7-5.2-.7 9.9-1.9zm-157 339.5a228 228 0 0 1-9.4-18 208 208 0 0 0 19.1-6.4 210 210 0 0 0 9.5 17.8 233 233 0 0 1-19.3 6.6m127.8-319.8q0-1-.3-2h1.1l.8.7z" style="fill-rule:nonzero"/><path d="m972.1 1060.7-3.3-6.3 5.5-.1h3l.2 2zm-77 371.5a232 232 0 0 1-16.7-16.6 212 212 0 0 0 22-5.8 210 210 0 0 0 17 15.2 231 231 0 0 1-22.4 7.2m84.1-377.2-.8-.7h1.7zm-24.6 416a232 232 0 0 1-28.3-15.2 210 210 0 0 0 30.3-5.9 212 212 0 0 0 25.6 10.6l3 1a230 230 0 0 1-30.6 9.6m67.8 18.9a230 230 0 0 1-59.5-15.3l7.4.2a205 205 0 0 0 51.2-5.2 208 208 0 0 0 58.7-.4 229 229 0 0 1-57.8 20.7m-78.6-433.5q6.1-3.1 12.6-6l.8 4.5q-6.8.6-13.4 1.5m18-1.8 1-7 1.9-.7 4.2 7.4z" style="fill-rule:nonzero"/><path d="m957.1 1055-.8-4.5 6.4-2.7-1 6.9q-2.4 0-4.6.3m44.6-15.4-5.3-2.5 5.1-1.2 5.3.7zm-23.5 14.7h-1l-.3-1.1z" style="fill-rule:nonzero"/><path d="m968.8 1054.4-4.2-7.4 1-.4 6.4 2.2 5 4.4.2 1.1h-8.4m11.2 0h-1.7l-1.3-1.1-.4-2.7 5.6 2.2z" style="fill-rule:nonzero"/><path d="m977 1053.2-5-4.4 4.6 1.7zm18.8-10-5.2-4.7 5.8-1.4 5.3 2.5-1.1.6zm-23.8 5.6-6.4-2.2 2.6-1z" style="fill-rule:nonzero"/><path d="m988.2 1048.3-4.3-8 5.5-1.5 1.2-.3 5.2 4.8z" style="fill-rule:nonzero"/><path d="m982.2 1052.7-5.6-2.2-1.4-7.4 8.7-2.7q2.3 4 4.3 8z" style="fill-rule:nonzero"/><path d="m976.6 1050.5-4.6-1.7-3.8-3.2 7-2.5zm175.4 394.4q14.1-7.8 27-18 1.9-1.4 3.7-3a232 232 0 0 0 32-2.3q-3 3.3-6.4 6.5a210 210 0 0 1-56.3 16.8m53-42.2q15.4-16.7 26.8-36.7l.4-.7q11.8-.1 23.5-1.6a231 231 0 0 1-20.3 33.4q-15 4-30.3 5.6m37.3-57.8a209 209 0 0 0 14.5-49h.8q9.9 0 19.6-1a230 230 0 0 1-12.2 47.3 210 210 0 0 1-22.7 2.7m17-69q1.8-27.7-3.5-55l9.2.2q5.6 0 11.1-.3a229 229 0 0 1 3.2 53.9q-10 1-20 1.1m5.7-74.7q-7.2 0-14.2-.5-9-29.4-25.7-55 12.1 1.5 24.4 1.6 14.3 24.9 22.2 53.8zm-28.7-74.5a210 210 0 0 1-28.8-4.2 210 210 0 0 0-31.3-29 211 211 0 0 0-59.5-31.5q-11.3-3.8-22.9-6.3-9.6-11-17.6-23.2 1.3 0 2.6.3a230 230 0 0 0 110 45.2 230 230 0 0 1 47.5 48.7m-171.3-75.2-1.2-.1-.8-2.7zm32 414.7-9-1.1q14-8 26.8-17.8h5.8q15.8 0 31.3-2.3a210 210 0 0 1-54.8 21.2m-40.4-7.8a231 231 0 0 1-36.6-14q10-6 19.5-13.2a212 212 0 0 0 44.5 13q-13.2 8-27.4 14.2m-57.3-25.3a228 228 0 0 1-38.5-29.8 226 226 0 0 0 16.7-11.9 209 209 0 0 0 41.4 29.9q-9.5 6.4-19.6 11.8m-52.6-44.6a232 232 0 0 1-23-31.6 232 232 0 0 1-7.4-13 233 233 0 0 0 16-12.3h.1a215 215 0 0 0 8.3 15 211 211 0 0 0 22.7 30.4 214 214 0 0 1-16.7 11.5m-39-63a229 229 0 0 1-15.5-56 229 229 0 0 0 18.3-16.2q.6 7.4 1.7 14.7a208 208 0 0 0 11.7 44.4l-4.5 4a218 218 0 0 1-11.8 9.2m-17.5-80.5a231 231 0 0 1 7.7-67.5 231 231 0 0 0 59.3-103.2l1.9-1.9.6 12.9q.1 8.2-.4 16.3a213 213 0 0 0-9.7 12.4 210 210 0 0 0-33.6 73.4 212 212 0 0 0-5.6 36.6l-8 9q-5.9 6.1-12.2 12m89.4-164.4-.2-3.6 1 2.8z" style="fill-rule:nonzero"/><path d="M898 1177.5a230 230 0 0 1 59.3-103.2 231 231 0 0 1-59.3 103.2m-5.6 91.8a229 229 0 0 1-2.1-24.3 208 208 0 0 0 12.3-12l8-9q-1 14.5.1 29.2a229 229 0 0 1-18.3 16.1m67-167.7q.5-8.2.4-16.3l-.6-12.9 2.5-2.4q6.1-2.8 12.4-5.2 3 6 5.4 12.2l.2 3.6a208 208 0 0 0-20.3 21m-42.9 242.2a232 232 0 0 1-8.7-18.4 218 218 0 0 0 11.8-9.2l4.5-3.9a209 209 0 0 0 8.5 19.1l-.1.1a233 233 0 0 1-16 12.3m64-264-1-2.8a229 229 0 0 0-1.1-13.8l6.8-2.3 5 5.1a226 226 0 0 0-7.4 11.9z" style="fill-rule:nonzero"/><path d="M979.5 1077a209 209 0 0 0-5.4-12.2l4.3-1.6q.8 6.9 1.1 13.8M961 1403.2a232 232 0 0 1-14-14.8q8.5-5.4 16.6-11.5 6.6 7.6 14 14.4a226 226 0 0 1-16.6 11.9m33.1-342.9-.8-1.8 1-.3 1 .5z" style="fill-rule:nonzero"/><path d="m990.2 1066-5-5.1 8-2.4 1 1.8zm30 378.3q-10.6-5.2-20.7-11.4a212 212 0 0 0 19.6-11.7 208 208 0 0 0 20.6 9.9 231 231 0 0 1-19.5 13.2m-25-385.6-.8-.5h.2l1.3-.4zM1088 1465a231 231 0 0 1-31.3-6.7q14.2-6 27.4-14.2 15.2 2.7 30.7 3a231 231 0 0 1-26.8 17.9m70.4-.9a229 229 0 0 0 49.8-36q7.8-3.5 15.4-8c20-3.6 39.7-10 58.3-19a231 231 0 0 1-123.5 63m111.9-79.5a208 208 0 0 0 23.7-28.7q15.4-4.5 30-11.3l-4.4 8a208 208 0 0 1-49.3 32m39.2-55.4a211 211 0 0 0 15.3-42.8l.2-.8q11.4-3.5 22.1-8a232 232 0 0 1-10 37.7q-13.4 8-27.6 13.9m19.6-66a209 209 0 0 0 .2-51.2q9.8-2.8 19.4-6.5 3.3 24.4 1.4 48.7-10.2 5-21 9m-3-71a208 208 0 0 0-18.8-51.8q9.8-2.4 19.5-5.8a229 229 0 0 1 18.2 50.9q-9.3 3.8-19 6.7m-29.2-69.9a211 211 0 0 0-40-45.6q12-2 23.9-5.3 20.6 19.8 36.3 45.4-10 3.3-20.2 5.5m-63.5-63a209 209 0 0 1-151.2-49.7q1.4 0 2.6-.3a229 229 0 0 0 118.4 12.6 230 230 0 0 1 59.1 33.4 211 211 0 0 1-28.9 4m-222-25.3 9-4.6-3.7 3.8zm64.1-2.6-1.5-2.5 2.7 2.2z" style="fill-rule:nonzero"/><path d="M1120.7 1467.3q-11.8 0-23.6-1.2a219 219 0 0 0 54.9-21.2q29.3-4.5 56.3-16.8a229 229 0 0 1-49.8 36 229 229 0 0 1-37.8 3.2m-159-397.3q5-4.8 10.4-9.3l2 4q-6.3 2.5-12.4 5.3m51-32.5-5.9-1 4.7-2.5 5.2-.8zm-34.3 25.7-.9-7 1.6-1.2 6.1 5.9z" style="fill-rule:nonzero"/><path d="m974.1 1064.8-2-4.1 5.4-4.4.9 6.9zm19.2-6.3-.5-1 1.6.7z" style="fill-rule:nonzero"/><path d="m985.2 1060.9-6-5.9.8-.6q3.3 0 6.7.3l6 2.7.6 1zm9-2.7-1.5-.8-1.2-2.4 6 .6-1.7 2.2-1.3.3z" style="fill-rule:nonzero"/><path d="m992.8 1057.4-6-2.8 4.8.4zm15.2-14.7-6.3-3.1 5.1-3q3 .3 5.9.9zm-21.3 12q-3.3-.3-6.7-.3l2.2-1.7z" style="fill-rule:nonzero"/><path d="m1002.2 1049.6-6.4-6.3 4.8-3 1.1-.7 6.3 3z" style="fill-rule:nonzero"/><path d="m997.6 1055.6-6-.6-3.4-6.7 7.6-5 6.4 6.3z" style="fill-rule:nonzero"/><path d="m991.6 1055-4.9-.3-4.5-2 6-4.4zm190.3 369q-19.2 0-38.2-3.2 8-8.6 15-18a209 209 0 0 0 46.4 0q-10.5 11.3-22.4 21.2zm-61.2-8.2a230 230 0 0 1-45.3-17.9q6.7-7.6 12.7-16a210 210 0 0 0 48.1 17.1q-6.9 8.2-14.7 16zm-63-28.1a232 232 0 0 1-41.7-34.3 234 234 0 0 0 12-16.3 214 214 0 0 0 42.5 35q-6 8.1-12.7 15.6m-55.2-49.5a229 229 0 0 1-30.5-49.5 226 226 0 0 0 13-20.7q2.7 7 5.8 13.7a208 208 0 0 0 23.6 39.4l-3.2 5q-4.2 6.2-8.7 12.1m-39.4-72.3a231 231 0 0 1-11.5-67 231 231 0 0 0 28-115.7l1.3-2.3q2.3 6 4.2 12.2 2.4 7.9 4.2 15.7a211 211 0 0 0-5.8 14.7q-13.6 38.7-11.8 79.8a212 212 0 0 0 5 36.8l-5.2 10.8a208 208 0 0 1-8.4 15" style="fill-rule:nonzero"/><path d="M951.7 1199a229 229 0 0 1 28-115.8 231 231 0 0 1-28 115.7M1003 1083l-1.2-3.3 1.8 2.3z" style="fill-rule:nonzero"/><path d="M972 1288.7a229 229 0 0 1-8.8-22.8 208 208 0 0 0 8.4-15l5.2-10.8a209 209 0 0 0 8.3 27.9 226 226 0 0 1-13 20.7m17.3-179.9a212 212 0 0 0-8.4-27.9l1.8-3a205 205 0 0 1 10.4-8.5 207 207 0 0 1 8.6 10.3l1.2 3.3a208 208 0 0 0-13.6 25.8m26.6 244.6q-7-7.4-13.4-15.2 4.5-5.9 8.7-12.1l3.2-5q6.3 8.2 13.5 16a234 234 0 0 1-12 16.3m-12.4-271.4-1.8-2.3q-2.2-6.6-5-13l6-4.1 6.2 3.5q-2.1 6.8-3.8 13.4z" style="fill-rule:nonzero"/><path d="M1001.8 1079.7a207 207 0 0 0-8.6-10.3l3.7-2.7q2.6 6.4 5 13m73.5 318.2q-9-4.7-17.6-10.2 6.7-7.5 12.7-15.6 8.6 5.3 17.6 9.8-6 8.4-12.7 16m-64.2-338.4q-.8-.7-1.3-1.5l.9-.6 1 .2z" style="fill-rule:nonzero"/><path d="m1009 1066.1-6.2-3.5 7-4.6 1.4 1.5zm134.7 354.7q-11.7-2-23-5l.8-.9q7.8-7.6 14.7-15.9 11.2 2.5 22.5 3.7-7 9.5-15 18.1m-131.9-363.2-1-.2h.2l1.2-.8zm203 364q11.1-11.5 20.6-24.5a211 211 0 0 0 30-10.4l5-2.1a211 211 0 0 1-46.7 35.6zm67.3-20.4a229 229 0 0 0 37.7-48.5q6.6-5.7 12.6-12a230 230 0 0 0 50.7-34.6 231 231 0 0 1-30.8 42.8 230 230 0 0 1-70.2 52.3m-261.5-371.8q3.6-3.6 7.3-7l-2.5 4.7z" style="fill-rule:nonzero"/><path d="M1182.7 1424q12-9.9 22.4-21.3 15.3-1.6 30.3-5.6a231 231 0 0 1-20.7 24.6 232 232 0 0 1-32 2.3m41-3.8 6.3-3.7q22.4-13.6 40.4-32a208 208 0 0 0 49.3-31.8 229 229 0 0 1-37.7 48.5 230 230 0 0 1-58.3 19m-241-342.3q3.6-6 7.5-11.9l3 3.4a205 205 0 0 0-10.4 8.5m14-11.2q-1.2-3.3-2.7-6.4l1.2-1.6 7.5 3.9z" style="fill-rule:nonzero"/><path d="m993.2 1069.4-3-3.4 4-5.7 2.7 6.4zm16.6-11.4-.7-.9 1.7.3z" style="fill-rule:nonzero"/><path d="m1002.8 1062.6-7.5-4 .6-.8 6.6-1.6q3.3.3 6.6 1l.8.8zm8-5.2q-.8 0-1.7-.3l-1.8-2 5.9-1.1-1 2.6-1.2.7z" style="fill-rule:nonzero"/><path d="m1009 1057.1-6.5-1 4.8-1zm7.6-24 3.7-3.7 4.9-2.3-2.7 5.3zm2.9 5.6q-3.4-.7-6.9-1.2 2-2.3 4.1-4.3l5.9-.8-.6 1.2zm-23.6 19 1.7-2.1 5 .6q-3.4.7-6.7 1.6" style="fill-rule:nonzero"/><path d="M1016 1047q-4-2.3-8-4.3l4.6-5.2 7 1.2z" style="fill-rule:nonzero"/><path d="m1007.3 1055.1-5.1-5.5 5.8-7 8 4.4-2.8 7zm-4.8 1.1-5-.6 4.7-6 5 5.5zm364.7 237.3a209 209 0 0 0 14.7-34.1q13.5-8.7 25.7-19.2l-2 8.9a209 209 0 0 1-38.4 44.4m22.1-64.1q3.8-22.4 2.8-45.3v-.8q9.8-6.6 18.9-14 2.1 19.5.8 39a211 211 0 0 1-19.7 18.8zm.4-68.8q-4-25.5-14.1-49.2 8.6-5.5 16.7-11.7 10 22.5 15 46.4-8.4 7.7-17.6 14.5m-22.9-67.4q-13.2-24.2-32.4-44.4 8.7-5 17-11a229 229 0 0 1 31.7 43.7q-7.9 6.2-16.3 11.7m-47.6-58.8a210 210 0 0 0-51.2-32.6 229 229 0 0 0 21.5-11.8q25.3 13.3 47.6 33.5a210 210 0 0 1-17.9 10.9m-238-25.4-2-2 3.1 1.4zm27.6-12.6a209 209 0 0 1-27.3-10l2.4-1.2a228 228 0 0 0 117.1-21 230 230 0 0 1 66.2 15.5l-3.7 2a210 210 0 0 1-23 10 210 210 0 0 0-58.6-8.3q-38 0-73 13m119.7 369q-22.5 0-45-4.4 4.2-9.3 7.7-18.9 18.4 3.3 37.3 3.3 6.9 0 13.7-.4-4.5 10.4-10.2 20.4zm-64.8-9.3a232 232 0 0 1-36.4-14.2q-6.8-3.3-13.2-7a236 236 0 0 0 6.9-19.1 212 212 0 0 0 50.6 21.8 208 208 0 0 1-7.9 18.5m-66.8-32a229 229 0 0 1-43.2-39q4-11.7 6.8-23.6 4.4 6 9.3 11.6a208 208 0 0 0 33.8 31.1 216 216 0 0 1-6.7 19.8m-58-58.4a231 231 0 0 1-29.9-61c8.5-39.2 6.9-80.2-5.4-119l.6-2.5a206 206 0 0 1 15.8 24.4 211 211 0 0 0-1.4 15.8c-1.6 27.1 2.2 54 11 79.9a212 212 0 0 0 15 33.8 208 208 0 0 1-5.8 28.6m-13-186.6-2-3 2.4 1.8z" style="fill-rule:nonzero"/><path d="M1009.2 1204.5a230 230 0 0 1-5.4-119c12.3 38.8 14 79.8 5.4 119m44.7 80.4a231 231 0 0 1-14.9-19.4 214 214 0 0 0 5.8-28.6 208 208 0 0 0 15.9 24.5q-2.6 12-6.8 23.5m-33.7-177.5a208 208 0 0 0-15.8-24.4l.8-3.5q3.6-5.6 7.7-11 5.7 3.5 11.1 7.5l2 2.9q-3.9 14-5.8 28.5m94.1 227.4q-9-5-17.2-10.9a216 216 0 0 0 6.7-19.8 211 211 0 0 0 17.4 11.7 236 236 0 0 1-7 19m-87.8-257.1-2.4-1.7q-4-5.7-8.4-11.1l4.5-5.6 7 1.6v14z" style="fill-rule:nonzero"/><path d="M1024 1076q-5.4-4-11.1-7.5l2.7-3.6q4.4 5.4 8.4 11m159.7 285a228 228 0 0 1-19.8-5 208 208 0 0 0 7.9-18.4q9.7 2.7 19.6 4.5-3.5 9.6-7.7 18.9m-156.4-307-1.7-1 .8-.8 1-.1z" style="fill-rule:nonzero"/><path d="M1027 1061q-3.4-1-6.9-1.7l5.5-6.4 1.7 1zm228.6 302.8q5.2-10.5 9.4-21.6 23-4 44.5-13-6.8 14-15.5 26.8a231 231 0 0 1-38.4 7.8m68.4-19q7.6-14.4 13-29.4l1.6-1a210 210 0 0 0 28.5-20.9 211 211 0 0 1-34.9 47.3z" style="fill-rule:nonzero"/><path d="M1232.2 1365.3a215 215 0 0 0 10.2-20.4q11.4-.7 22.7-2.8-4.2 11.1-9.4 21.6-11.7 1.5-23.5 1.6m-205.8-313.2.1-.2 1-1v1zm267.7 303.7q8.7-12.8 15.5-26.6 14.3-6 27.5-14a232 232 0 0 1-13 29.4q-14.6 6.7-30 11.2m89-49.7a229 229 0 0 0 22.5-57.2q4.6-7.2 8.8-14.9a230 230 0 0 0 39-47.4 231 231 0 0 1-70.4 119.5m51.6-127.2a210 210 0 0 0 4.5-37 232 232 0 0 0 19.3-25.6q.4 4.5.6 9.1a209 209 0 0 1-20 46.4zm3.3-67.7q-2.7-22.5-10-44.3l-.3-.8q7.5-9 14.3-18.7 7.5 18.2 11.7 37.3a209 209 0 0 1-15.7 26.5m-19-66.2q-11-23.3-27.3-43.3a231 231 0 0 0 12.8-15.8 231 231 0 0 1 27.4 40.3 207 207 0 0 1-12.9 18.8m-391.1-22.4q2.5-4.5 5.1-8.7l-1.1 5.2zm350.3-35.8a208 208 0 0 0-43.5-33.6q6.9-7.3 13.3-15.4a229 229 0 0 1 42.6 33.1 207 207 0 0 1-12.4 15.9m-297.6-1q-1.4-.5-2.7-1.2l3.5.4zm22.8-19.8q-14.5 0-28.9-2l2-1.8a230 230 0 0 0 106.5-53 230 230 0 0 1 46.1-4.7q10.9 0 21.8 1a211 211 0 0 1-21.8 18.7v-19.7 19.7l-.4.3a211 211 0 0 0-109.6 31 210 210 0 0 0-15.5 10.5zm212.7-22.5a209 209 0 0 0-58.3-17 228 228 0 0 0 17.3-17.3q28 5.7 55 18.8a214 214 0 0 1-14 15.5" style="fill-rule:nonzero"/><path d="m1332.3 1340.7 5-5.3q17.7-19.4 29.9-42a209 209 0 0 0 38.4-44.5 229 229 0 0 1-22.6 57.2 230 230 0 0 1-50.7 34.6m-327.1-261.2q1.7-6.8 3.8-13.4l3.9 2.4q-4 5.4-7.7 11m10.4-14.6-4.4-5.4.6-1.9q4.2.7 8.3 1.7z" style="fill-rule:nonzero"/><path d="m1012.9 1068.5-4-2.4 2.3-6.6 4.4 5.4zm12.7-15.6-1-.6 1.8-.2z" style="fill-rule:nonzero"/><path d="m1020.1 1059.3-8.3-1.7.4-1 5.9-3.4 6.6-.9 1 .6zm5.2-32.2 2.5-4.6 4-3.5-1.1 5.8z" style="fill-rule:nonzero"/><path d="m1024.7 1052.3-2.3-1.4 5.3-2.8-.2 2.8-1 1-.1.2zm-6.7.9 4.4-2.3 2.3 1.4zm-5.8 3.4 1-2.6 4.8-.8q-3 1.5-5.8 3.4m10.4-24.2 2.7-5.3 5.4-2.3-.3 1.3-.9 5.6z" style="fill-rule:nonzero"/><path d="m1028.4 1040.7-8.9-2 2.5-5.1.6-1.2 7-.7zm-6 10.2-6.5-3.9 3.6-8.3 8.9 2-.7 7.4z" style="fill-rule:nonzero"/><path d="m1013.2 1054 2.7-7 6.5 3.8-4.3 2.4zm243.9 241.8a232 232 0 0 1-53.6-6.4 235 235 0 0 0 1.3-20.2v-.1a211 211 0 0 0 53 6.7h1.6a210 210 0 0 1-2.3 20m20.3-.8a228 228 0 0 0 2.1-20.3 210 210 0 0 0 49.8-11.6q-1.5 11.3-4 22.5a229 229 0 0 1-47.9 9.4m-93.4-11.2a229 229 0 0 1-52.4-25.4q.6-12.3-.1-24.5a213 213 0 0 0 12.2 8.5 209 209 0 0 0 41.1 20.5 218 218 0 0 1-.9 20.9m163.4-6.2q2.1-11.7 3-23.4a211 211 0 0 0 39.1-25 209 209 0 0 1-7.4 30 232 232 0 0 1-34.7 18.4m-235.4-33.7a231 231 0 0 1-45.8-50.2 231 231 0 0 0-38.5-112.7l-.1-2.6a214 214 0 0 1 22 19q1.2 7.8 3 15.6a210 210 0 0 0 56.9 101.9 205 205 0 0 1 2.5 29m295.8-3.8q3.3-15.8 4.2-31.8 12.7-13.7 22.8-29.4a211 211 0 0 1-20.2 55.1zm45.8-53.4q7-30.6 5.6-61.2a212 212 0 0 0 4.3-16.8 230 230 0 0 0 24.1-56.4 231 231 0 0 1-34 134.4M1047 1068.4l-2.8-2.2 2.8 1zm-14-54.6q1-5 2.4-9.8 0 2.6.4 5.3z" style="fill-rule:nonzero"/><path d="M1066 1193.7a230 230 0 0 1-38.5-112.6 231 231 0 0 1 38.5 112.6m65.5 64.7q-10.4-6.7-19.7-14.4a211 211 0 0 0-2.5-29.1q10.4 10.3 22.1 19 .7 12.2 0 24.5m-82-161q-5.7-5.7-12-11l-10-8-.2-3.5q2-6.5 4.3-12.8 6.4 1.8 12.7 4l2.8 2.3q.2 14.6 2.4 29" style="fill-rule:nonzero"/><path d="M1203.4 1289.4q-10-2.4-19.5-5.6a218 218 0 0 0 .8-21q9.8 3.7 20 6.3v.1a235 235 0 0 1-1.3 20.2M1047 1067.2l-2.8-1q-5.4-4.4-11.1-8.3l2.7-6.6 7.2-.4q1.8 6.8 4 13.3z" style="fill-rule:nonzero"/><path d="M1044.2 1066.2q-6.3-2.3-12.7-4 .7-2.3 1.6-4.3 5.7 4 11.1 8.3m213.5 229.6h-.7a244 244 0 0 0 2.3-20q10.2 0 20.1-1.1a228 228 0 0 1-2 20.3q-9.8.8-19.7.8m-216.4-251.6-2-.6.5-1 1-.4z" style="fill-rule:nonzero"/><path d="m1035.8 1051.3 3.6-7.7 1.9.6q.7 3.3 1.7 6.7-3.6 0-7.2.4m289.3 234.3a213 213 0 0 0 4.1-22.5q10.8-3.9 21-9-.9 11.9-3 23.5a231 231 0 0 1-22 8m-285.4-243 .1-.2.7-1.3.2 1.1zm342 216.7a209 209 0 0 0 7.5-30 204 204 0 0 0 22.5-21q-.9 16-4.2 31.8-12.2 10.5-25.7 19.2m-354.7-184.4q-.3-7-.1-14l4.4 1.2q-2.4 6.3-4.3 12.8m5.9-17-5.8-4 .1-2 8.4-.6z" style="fill-rule:nonzero"/><path d="m1031.5 1062.1-4.4-1.2.2-7 5.8 4zm7.9-18.5-1.1-.3 1.5-.7z" style="fill-rule:nonzero"/><path d="M1027.4 1052v-1.1l4.7-4.9 6.2-2.7 1 .3-3.5 7.7q-4.2.2-8.4.7m10.9-8.7-2.7-.8 4.4-4 .6 2.6-.7 1.3v.2zm-6.2 2.7 3.5-3.5 2.7.8zm382.3 188a211 211 0 0 0 20.2-55.1l4.3-7a209 209 0 0 0 20.1-46.5c.9 20.3-1 41-5.7 61.2a230 230 0 0 1-39 47.4m-382.5-215 1.1-5.2 2.8-4.5.6 5.9z" style="fill-rule:nonzero"/><path d="m1030.7 1024.8 1-5.8 4.6-3.8.1 1.3.7 5.6zm-3.2 26 .2-2.7 4.4-2z" style="fill-rule:nonzero"/><path d="m1029.5 1031.7 1.2-7 6.5-2.6 1.4 9z" style="fill-rule:nonzero"/><path d="m1035.6 1042.5-7.2-1.8 1.1-9 9-.6 1.5 7.3z" style="fill-rule:nonzero"/><path d="m1027.7 1048.1.7-7.4 7.2 1.8-3.5 3.5zm439.5 2a209 209 0 0 0-6-36.8 231 231 0 0 0 11.4-30l3.1 8.6a208 208 0 0 1-8.5 58.1m-15.8-66a211 211 0 0 0-22-39.7l-.5-.6a229 229 0 0 0 8.5-22 231 231 0 0 1 21.7 32.5 208 208 0 0 1-7.7 29.8m-378.2-20.2-2.9-.5 3.5-.6zm-9.9-22.5 3.5-5.4a230 230 0 0 0 68.7-66 231 231 0 0 1 66-28 209 209 0 0 1-18.7 26.9 211 211 0 0 0-60.2 35.1 211 211 0 0 0-28 28.2 208 208 0 0 1-31.3 9.2m351.4-15.5a209 209 0 0 0-38.3-33.9 230 230 0 0 0 7.8-18.8 231 231 0 0 1 37.6 31 209 209 0 0 1-7.1 21.7m-55.5-44.5q-24.1-13.4-51.2-20a230 230 0 0 0 8.5-18.5 229 229 0 0 1 50.2 19.8 209 209 0 0 1-7.5 18.7m-132.4-24q6.4-10.4 11.7-21.5 9.3-.7 18.6-.7a232 232 0 0 1 39.5 3.4 209 209 0 0 1-9.1 18.8 212 212 0 0 0-30.4-2.2q-15.3 0-30.3 2.2" style="fill-rule:nonzero"/><path d="m1061.3 944.5 2-3.2a208 208 0 0 0 31.3-9.2l-4.9 6.2a209 209 0 0 1-28.4 6.2m121.4-75.7a209 209 0 0 0 18.8-26.9q6.3-1.5 12.8-2.8a210 210 0 0 1-16 24.5 210 210 0 0 0-15.6 5.2m-115.9 67.1a231 231 0 0 1 68.7-66 230 230 0 0 1-68.7 66m189 285q-29.7-1.2-57.3-9.7-2.9-12-7-23.4 28.7 10.6 59.3 12.8a187 187 0 0 1 5 20.3m20.4 0q-1.7-9.9-4.4-19.8v-.1q8.5-.3 17-1.2a212 212 0 0 0 37.3-7.6 208 208 0 0 1 3.3 19.8 233 233 0 0 1-38.3 7.6q-7.5.9-14.9 1.2m72.6-15.3q-1.5-10-3.7-20a209 209 0 0 0 44.6-25q1.8 11.2 2.3 22.7a229 229 0 0 1-43.2 22.3m-173.3-2.6a231 231 0 0 1-58-35.5 231 231 0 0 0-68.5-97.3l-.9-2.5a205 205 0 0 1 26.6 12.1 210 210 0 0 0 51 68.3 211 211 0 0 0 39.3 27.6l4.8 11q3.2 8 5.7 16.3m235.5-33.7a232 232 0 0 0-3.7-23.2 212 212 0 0 0 30.6-34.9q1.7 15.3 1.2 30.9a232 232 0 0 1-28.1 27.2m47.4-52.9q-1.3-16-4.8-31.7 8.3-16.4 13.5-34.2l.1-.4a211 211 0 0 1-4 58.6q-2.2 4-4.8 7.7m-394.1-63.8-3.4-1.4 3 .2z" style="fill-rule:nonzero"/><path d="M1117.6 1167.4a230 230 0 0 1-68.6-97.3c31.2 26 54.7 59.8 68.6 97.3m80.9 43.8q-11.7-3.5-23-8.3-2.5-8.2-5.7-16.2-2.2-5.7-4.8-11 13 7 26.6 12 4 11.5 6.9 23.5m-123.8-131.5a209 209 0 0 0-26.6-12.1l-1.1-3.3q0-6.8.5-13.5h2q5.9 0 11.4.3l3.4 1.4q4.2 14 10.4 27.2m190.4 141.4-9.2-.2a213 213 0 0 0-5-20.3 210 210 0 0 0 20.8.4v.1q2.8 10 4.5 19.7zm-201.2-169.8-3-.2q-6.3-2.5-13-4.8l.8-7.1 6.7-2.4q3.7 6 7.7 11.8z" style="fill-rule:nonzero"/><path d="m1061 1051.1-11.4-.3h-2l.3-4.5q6.7 2.2 13 4.8m268.5 161a216 216 0 0 0-3.3-20q9.7-2.8 19-6.7 2.2 10 3.7 20.1a227 227 0 0 1-19.4 6.5M1052 1030.8h-2l.2-1.1.8-.6z" style="fill-rule:nonzero"/><path d="m1048.7 1039.2 1.2-8.4h2l3.5 6zm343.3 144q-.5-11.5-2.3-22.7 9.2-6.8 17.6-14.5a232 232 0 0 1 3.7 23.2q-9 7.4-19 14m-341.9-153.5v-.2l.3-1.4.5 1zm389 112.2q.6-15.5-1.2-30.8a209 209 0 0 0 15.7-26.5q3.6 15.6 4.9 31.7a232 232 0 0 1-19.4 25.6m48.3-89.7a229 229 0 0 0-11.7-60.3q0-8.7-.6-17.4a230 230 0 0 0 7.4-60.9 231 231 0 0 1 4.9 138.6m-452-48.2-.4-10.1 1.9 5zm19.5-61 6.4-3.7-.6 2.6zm-10.6-17 1.9-6a230 230 0 0 0 47.4-82.6c16-17.8 34.6-33.2 55.5-45.4a209 209 0 0 1-10.4 31 210 210 0 0 0-67 85.5 208 208 0 0 1-27.4 17.6m418.2-8.6a209 209 0 0 0-16-33.7 231 231 0 0 0 2.5-32l5.4 7.4a208 208 0 0 1 8 58.3m-33.6-59a211 211 0 0 0-23.7-24.8l-9.2-7.7a229 229 0 0 0 2-23.4 232 232 0 0 1 30 25 210 210 0 0 1 .9 31m-51.5-45.8A210 210 0 0 0 1331 791a226 226 0 0 0 2.2-20.2A230 230 0 0 1 1378 790q.3 11.4-.7 22.8m-211.1-7.4a227 227 0 0 0 5.9-25.1 230 230 0 0 1 56.5-16.8q-1.4 10.7-3.9 21a208 208 0 0 0-58.5 20.9m145.4-19.7a209 209 0 0 0-54.8-5 233 233 0 0 0 3-20 229 229 0 0 1 53.7 5 204 204 0 0 1-2 20" style="fill-rule:nonzero"/><path d="m1049 946 6-3.1 5.7-1-.7 2.8q-5.4.8-11 1.2m175.7-161.6a207 207 0 0 0 4-21l10.8-1.4a208 208 0 0 1-3.6 20.6zm-181.2 160.1-1.2-11.4 2-7.1a208 208 0 0 0 27.5-17.6 212 212 0 0 0-8.2 22.7l-2.3 8.2-6.4 3.7zm95.2-121.6a209 209 0 0 0 10.4-31q11-6.5 23-11.7a227 227 0 0 1-6 25 211 211 0 0 0-27.4 17.7" style="fill-rule:nonzero"/><path d="m1043.8 946.3-.3-1.9 11.4-1.5-6 3zm2.5-26.5c10-30.7 26.2-58.8 47.4-82.6a230 230 0 0 1-47.4 82.6m417 188.8a218 218 0 0 0 4-58.6 208 208 0 0 0 8.5-58.1 229 229 0 0 1 11.7 60.3 230 230 0 0 1-24.1 56.4m-427.5-99.3-.4-5.3 1.5-5.1 2.1 5.5zm11.2 55q-2.2-6.6-4-13.4h4.5q-.5 6.6-.5 13.3m.9-18-6.6-2-.5-2 7.9-3z" style="fill-rule:nonzero"/><path d="m1043 1051-1.7-6.8 6.6 2-.4 4.6zm5.8-20 1.3-1.2-.2 1.1h-1.1" style="fill-rule:nonzero"/><path d="m1040.8 1042.2-.2-1 3-6.1 5.1-4.3h1.2l-1.2 8.4zm5.2-11.4 3-5.1 1.4 2.4q0 .8-.3 1.4v.2l-1.4 1.1z" style="fill-rule:nonzero"/><path d="m1043.7 1035 2.4-4.2h2.7zm-3.1 6-.6-2.7 3.7-3.3zm-4.3-26-.5-5.8 3.2-5 .5 1.3 2.3 5.2zm.9 7.1-.8-5.6v-1.3l5.4-4.4q1.8 4.2 3.9 8.2z" style="fill-rule:nonzero"/><path d="M1038.6 1031q-.8-4.4-1.4-8.9l8.4-3 3.5 6.6-3 5.1zm1.4 7.4-1.4-7.3 7.5-.3-2.4 4.3q-2 1.6-3.7 3.3m212.2 108.8h-2.6q-6-10.7-13.2-20.6a212 212 0 0 0 60.5-4.3 237 237 0 0 1 10.5 18.1 229 229 0 0 1-55.2 6.8m-27-1.6a231 231 0 0 1-65.5-17.8 231 231 0 0 0-93-74.3l-1.6-2.1a208 208 0 0 1 28.8 4.2 209 209 0 0 0 113.6 66.8 209 209 0 0 1 15.6 20zm101.7-11q-4.5-9-9.7-17.6l-.1-.2a210 210 0 0 0 49.7-23.7 198 198 0 0 1 8.8 18.2 231 231 0 0 1-34.7 18q-7 3-14 5.3m65.4-35q-4.1-9.3-9.2-18.2a209 209 0 0 0 19.2-17.3q9-9.2 16.6-19.2a213 213 0 0 1 8.7 21.1 229 229 0 0 1-35.3 33.6m49.6-52.3q-4.5-10.8-10-21.2a213 213 0 0 0 19.5-42 209 209 0 0 1 9.8 29.2 230 230 0 0 1-19.3 34m-365.6-15q-1.7 0-3.5-.3l2.8-.6z" style="fill-rule:nonzero"/><path d="M1159.7 1127.8a230 230 0 0 1-93-74.3 231 231 0 0 1 93 74.3m90 19.4q-12.4-.1-24.5-1.6l-2-3.1a209 209 0 0 0-15.6-20 210 210 0 0 0 28.8 4.1 227 227 0 0 1 13.2 20.6m-155.7-91.6a208 208 0 0 0-28.8-4.2l-2-2.8q-1.8-6.5-3.3-13.1 6.5-2 13-3.5l3.5.4q8 12.2 17.6 23.2m213.5 84.8a212 212 0 0 0-10.5-18 208 208 0 0 0 20.3-5.4 232 232 0 0 1 9.7 17.6q-9.7 3.4-19.5 5.8M1072.8 1032q-6.8-.7-14-1l-1.2-7.1 5.9-4.1q5.2 4.8 10.6 9.1l1.5 2.5z" style="fill-rule:nonzero"/><path d="m1059.8 1035.5-1-4.5q7.2.3 14 1-6.6 1.5-13 3.5m315.8 75.8a178 178 0 0 0-8.8-18.2q8.4-5.4 16.4-11.7 5 9 9 18.2-8 6.1-16.7 11.7m-319-95.7-.1-1.1.6-.9 1.4 1.4zm1.1 8.3-1.1-8.3 1.9-.6 5 4.8zm370 42.2a213 213 0 0 0-8.6-21.2 207 207 0 0 0 12.8-18.8q5.5 10.3 10 21.3-6.6 9.7-14.2 18.7m-371.2-51.6v-.3l-.2-1.4.8.8zm-21.4-20.6-3.2-9.6 3.2 4.3zm437.6-10.6a230 230 0 0 0-13.5-29 209 209 0 0 0 3.4-36.7v-.3a211 211 0 0 1 11.9 50l.7 7.2zm9.9-69.7a229 229 0 0 0-28.1-54.6 210 210 0 0 0-5.5-16.5 230 230 0 0 0-10-60.5 231 231 0 0 1 43.6 131.6" style="fill-rule:nonzero"/><path d="M1461.2 1013.3a209 209 0 0 0-9.8-29.3 208 208 0 0 0 7.7-29.8 230 230 0 0 1 13.5 29 231 231 0 0 1-11.4 30.1m-398.1 35.3a234 234 0 0 1-7.6-11.8l4.3-1.3q1.4 6.7 3.3 13m-4.2-17.5-7-.2-1-1.7 6.7-5.2z" style="fill-rule:nonzero"/><path d="m1055.5 1036.8-3.6-6 7 .2 1 4.5zm-.1-21 1-1.3v1zm-4.4 13.2-.6-.9 1.3-6.6 3.7-5.6 1-.3 1.2 8.3zm1.8-12.3 1.4-5.8 2 2 .1 1.3v.3l-1 1.4z" style="fill-rule:nonzero"/><path d="m1051.7 1021.5 1-4.8 2.7-.8zm-14.9-22.6-1.8-5v-5.3l3.6 4.6zm438.2-24.4-.7-7.3a211 211 0 0 0-12-50q.1-29.6-8-58.2a229 229 0 0 1 28 54.6 230 230 0 0 1-7.3 61" style="fill-rule:nonzero"/><path d="m1039 1004.4-2.2-5.5 1.8-5.7.8 1 3.7 4.5zm11.3 23.7-1.3-2.4 2.6-4.2q-.8 3.3-1.3 6.6" style="fill-rule:nonzero"/><path d="m1041.8 1010.8-2.3-5.2-.5-1.2 4-5.7 6 6.7z" style="fill-rule:nonzero"/><path d="m1045.7 1019-4-8.2 7.4-5.4 5.1 5.5-1.4 5.8z" style="fill-rule:nonzero"/><path d="m1049 1025.7-3.4-6.7 7.2-2.3-1.1 4.8zm-12.5-96 5.2-5.2.1 2.6q-2.6 1.4-5.3 2.6m-15-13.3.2-6.4a230 230 0 0 0 22.4-92.5 231 231 0 0 1 40.6-59.2q.7 16.4-1.4 32.7a210 210 0 0 0-40.2 100.9 208 208 0 0 1-21.5 24.5m399-125.4a208 208 0 0 0-24.8-27.8 229 229 0 0 0-6.5-31.4l7.2 5.6a208 208 0 0 1 24.1 53.6M1105 766.4q0-12.9-1.4-25.8a229 229 0 0 1 49.6-31.8q1.6 10.5 2.2 21.2a208 208 0 0 0-50.4 36.4m267-22.5a212 212 0 0 0-40.7-22 232 232 0 0 0-4.6-23 232 232 0 0 1 35.8 15.7 209 209 0 0 1 9.5 29.3m-197.2-22.7a227 227 0 0 0-2.6-20.4 230 230 0 0 1 53-12.8q2.3 9.7 3.6 19.7-27.7 3-54 13.5m135-6.8a210 210 0 0 0-50.6-7.9 230 230 0 0 0-3.5-20 230 230 0 0 1 48.4 5.8q3.4 11 5.6 22.1" style="fill-rule:nonzero"/><path d="M1228.7 707.7a208 208 0 0 0-3.6-19.7l10-1a204 204 0 0 1 3.9 19.8q-5.3.3-10.3.9m-197.3 237.7-3.6-7.3q4.5-4 8.8-8.4l5.3-2.6.4 6-2.7 11.7zM1155.3 730a208 208 0 0 0-2.1-21.2 234 234 0 0 1 18.9-8 227 227 0 0 1 2.6 20.4 214 214 0 0 0-19.4 8.8" style="fill-rule:nonzero"/><path d="m1032 946.7-.7-1.3 8.3-.6-.4 1.8zm-5.9-12.2-4.3-10.7-.1-7.4a208 208 0 0 0 21.5-24.5 209 209 0 0 0-1.5 24l.1 8.6-5.2 5.2zm57.3-143.5a210 210 0 0 0 1.4-32.7 227 227 0 0 1 18.7-17.7 229 229 0 0 1 1.4 25.8l-3 3.1a210 210 0 0 0-18.5 21.5m-55.6 147-1.7-3.5q5.3-2.2 10.5-4.8zm-6-28a231 231 0 0 1 22.4-92.6 230 230 0 0 1-22.4 92.5m17.8 34.8 2.7-11.8 1.2 11.4zm-.4 1.9.4-1.8q2 0 3.9-.4 0 1 .3 2zm179.6 133.3q-15 0-29.8-2a231 231 0 0 0-110.1-45.2l-2-1.6a210 210 0 0 1 28.8-4 210 210 0 0 0 127.7 32.3q12.3 7.8 23.5 17.3a231 231 0 0 1-38.1 3.2m62-8.5a227 227 0 0 0-18.5-16 211 211 0 0 0 25.3-7.1q16.5-5.7 31.6-14a237 237 0 0 1 15.2 14.4 229 229 0 0 1-53.6 22.7m70.7-33.7a232 232 0 0 0-14.3-14.2l-.1-.1a211 211 0 0 0 41-36.7q5 5 9.5 10.2l4 4.8a232 232 0 0 1-28.2 27zm-272.7-27.4 2.6-1.4 1 .8zm325.7-24.5a230 230 0 0 0-13.9-15 209 209 0 0 0 13.6-22 210 210 0 0 0 10.6-23 211 211 0 0 1 14.2 17.9 229 229 0 0 1-24.5 42" style="fill-rule:nonzero"/><path d="M1189 1078a230 230 0 0 1-110.1-45.3c40.3 5.2 78.2 21 110 45.2m68-1.2a208 208 0 0 0-23.5-17.3q14.6-1 29-4 9.5 7.4 18.4 16-12 3.3-24 5.3m-180-45.6-2.7-2.2a215 215 0 0 1-6.8-11.7q5.6-3.6 11.4-6.9l3.5-.6q11.3 9.5 23.4 17.3-14.6 1-28.8 4.1m257.6 17.6a216 216 0 0 0-10.7-10.5l-4.5-4q9.1-5 17.9-10.8 7.6 7 14.4 14.3a231 231 0 0 1-17.1 11m-269.3-35.5-3.1-6.4 4.4-5.6q6.3 3 12.7 5.8 1 1 2.2 1.9l-2.6 1.4q-6.7 1.3-13.6 3" style="fill-rule:nonzero"/><path d="m1067.3 1017.3-2.2-4q6.7-1.7 13.6-3-5.8 3.3-11.4 7m324.3-15.6-4-4.8a205 205 0 0 0-9.5-10.2q6.7-7.6 12.4-15.9 7.3 7.2 14 15a231 231 0 0 1-12.9 15.9m-333-2.6-.5-1 .3-1 1.8 1z" style="fill-rule:nonzero"/><path d="M1062 1006.8q-1.8-3.7-3.5-7.7l1.7-1 6.2 3.1zm375.4-85a233 233 0 0 0-15.6-17.7 212 212 0 0 0 6-32.4q.7-6.7 1-13.4a209 209 0 0 1 17.6 25.3 232 232 0 0 1-9 38.1m11.6-70.1a230 230 0 0 0-21.1-24.1 210 210 0 0 0-7-36.1l-.2-.4a211 211 0 0 1 25.5 44.7l2.7 6.8zm-390.8 146.5-.1-.2-.5-1.3 1 .5z" style="fill-rule:nonzero"/><path d="M1428.9 943.7a211 211 0 0 0-14.2-18 209 209 0 0 0 7.1-21.6 233 233 0 0 1 15.6 17.6 229 229 0 0 1-8.5 22m17.5-60a209 209 0 0 0-17.6-25.4 210 210 0 0 0-1-30.8 230 230 0 0 1 21.2 24.1 231 231 0 0 1-2.6 32m-414.6 100.7-5.7-8.3 4.2 3.2zm-16.4-62 3.5-6.5.9 2.5zm-18-8.6-1.8-6.2c5.3-32 3.6-64.5-4.3-95.1a230 230 0 0 1 22.4-68.2 210 210 0 0 1 7.8 31.8 210 210 0 0 0-10.4 108.1 208 208 0 0 1-13.8 29.6M1439 782a229 229 0 0 0-42.3-44.6 215 215 0 0 0-9.8-14.3 230 230 0 0 0-26.6-55.3A231 231 0 0 1 1439 782m-403.6-35.7a230 230 0 0 0-8.6-24.3 230 230 0 0 1 38.7-44.5 210 210 0 0 1 8 19.8 208 208 0 0 0-38.2 49m54.4-63a231 231 0 0 0-8.2-18.8 230 230 0 0 1 47.3-27.1 208 208 0 0 1 8.9 18 210 210 0 0 0-48 28m255.7-1.9a209 209 0 0 0-31.6-19.7 233 233 0 0 0-15-28.3l8.5 3.3a208 208 0 0 1 38.1 44.7m-60.1-31.6a210 210 0 0 0-45.2-9.6 230 230 0 0 0-10.9-20.9q19.6 1 38.8 5a209 209 0 0 1 17.3 25.5m-128.8-1.4a230 230 0 0 0-8.8-18.2 230 230 0 0 1 48.6-10 207 207 0 0 1 11.2 19.2q-26 1.3-51 9" style="fill-rule:nonzero"/><path d="M1207.4 639.5q-5-10-11.2-19.3l9.4-.7a208 208 0 0 1 11.7 19.7q-5 0-10 .3m-185.7 306.2-1.3-1.3 2.8-2.3.4 3.6zm116.1-290.4a208 208 0 0 0-9-17.9 228 228 0 0 1 19-7 230 230 0 0 1 8.8 18.1 209 209 0 0 0-18.8 6.8" style="fill-rule:nonzero"/><path d="M1023.6 946.6h-1.1l-1-.9h2zm-8.9-7.8-5.5-6q3.3-5.3 6.2-10.5l4.4-4 2 5.5q.1 6 .7 12.1zm58.7-241.5a210 210 0 0 0-8-19.8 228 228 0 0 1 16-13 231 231 0 0 1 8.2 18.9l-3.2 2.5a212 212 0 0 0-13 11.4" style="fill-rule:nonzero"/><path d="m1020.3 944.4-5.6-5.6 7.8-2.9.6 6.2zm-13.6-14.7-7.2-9-2.2-7a208 208 0 0 0 13.8-29.6 212 212 0 0 0 7.8 31.7l-3.5 6.5zm14.8-153.7a210 210 0 0 0-7.8-31.8q5.8-11.4 13-22.2a230 230 0 0 1 8.6 24.3l-2.2 3.9a209 209 0 0 0-11.6 25.8" style="fill-rule:nonzero"/><path d="m1009.2 932.7-2.6-3q4.5-3.6 8.8-7.4zm-13.6-25.2a231 231 0 0 1-4.3-95.1c8 30.6 9.6 63 4.3 95.1m78.5 121.4a228 228 0 0 1-10.6-9.1l3.8-2.5q3.2 6 6.8 11.6m-15.7-13.9-1.4-1.4 5-6.8 3.1 6.4z" style="fill-rule:nonzero"/><path d="m1063.5 1019.8-5.1-4.8 6.7-1.8 2.2 4zm-6-20 .6-1.7.4 1z" style="fill-rule:nonzero"/><path d="m1057 1013.6-.8-.8q-.4-3.3-.6-6.7l2-6.4 1-.6q1.6 4 3.4 7.7zm-22-25-3.2-4.3-1.5-5 4.8 3.4zm-11.5-43-.4-3.5 4.7-4q1.6 3.7 3.6 7.3z" style="fill-rule:nonzero"/><path d="m1030.8 946.7-7.2-.1-.1-1q4 0 7.9-.2l.6 1.3zm-8.3-10.8-.7-12 4.3 10.6z" style="fill-rule:nonzero"/><path d="m1023 942.1-.5-6.2 3.6-1.4 1.7 3.6zm32.2 59.1-.3-6 2.5 1.4.5 1.3v.2l-.5 1.6zm.4 4.9-.3-4.9 2.2-1.5zm.7 6.7-2-2 1.4-4.7q.1 3.4.6 6.7m-17.6-19.6-3.6-4.6.1-6 1.1.8 4.7 3.2z" style="fill-rule:nonzero"/><path d="m1043 998.7-3.6-4.4-.8-1 2.3-6.7 7.7 4.9z" style="fill-rule:nonzero"/><path d="m1049 1005.4-6-6.7 5.6-7.2 6.4 3.7.3 6zm5.2 5.5-5.1-5.5 6.2-4.2q0 2.5.3 5-.8 2.2-1.4 4.7M1449 842.5l-2.8-6.8a211 211 0 0 0-25.4-44.7 208 208 0 0 0-24-53.6A229 229 0 0 1 1439 782a230 230 0 0 1 10 60.5M1203.2 1022a232 232 0 0 0-83-15.4q-17.6 0-35.4 2.8l-2.5-1a212 212 0 0 1 26.6-12 209 209 0 0 0 131.7-4.7 209 209 0 0 1 27.4 10 231 231 0 0 1-64.8 20.3m86.3-32a228 228 0 0 0-22.2-10.3 210 210 0 0 0 48.7-36.1 230 230 0 0 1 18.6 9.6 228 228 0 0 1-45.1 36.8m-211-2q1-1.2 2-2.1l1 .5zm269.4-50a233 233 0 0 0-17.7-9.7h-.2q5.5-6.7 10.4-13.7a213 213 0 0 0 18.8-33 209 209 0 0 1 17.1 10.5 231 231 0 0 1-19.5 33.9 230 230 0 0 1-8.9 12" style="fill-rule:nonzero"/><path d="M1167.5 1024.7c-27.9 0-56-5-82.7-15.4a229 229 0 0 1 118.4 12.6 231 231 0 0 1-35.7 2.8m-85.1-16.4-3.3-1.3q-5-4.5-9.8-9.3 4.5-5.1 9.1-9.9l3.2-1.5a209 209 0 0 0 27.3 10l-10.5 4.3a212 212 0 0 0-16 7.7m185.6-6.6a209 209 0 0 0-27.4-10 210 210 0 0 0 26.7-12 228 228 0 0 1 22.2 10.2 229 229 0 0 1-21.5 11.8" style="fill-rule:nonzero"/><path d="m1066.2 994.5-4.9-5.3 2.7-6.7q6.9 1.3 13.8 2l2.7 1.3-2 2a233 233 0 0 0-12.3 6.7m268.4-41.4q-6.4-3.7-13.2-7l-5.4-2.6a214 214 0 0 0 14-15.5h.2a233 233 0 0 1 17.7 9.7 230 230 0 0 1-13.3 15.4" style="fill-rule:nonzero"/><path d="m1069.4 997.7-3.2-3.2q6-3.6 12.2-6.7a210 210 0 0 0-9 10M1026 976l-7.8-6.4 5 2zm358-103a229 229 0 0 0-17.4-10.4 207 207 0 0 0 6.8-24.9 210 210 0 0 0 3.8-25 211 211 0 0 1 18.6 13.1 229 229 0 0 1-11.7 47.3m13.7-70.7a231 231 0 0 0-19.9-12.6 212 212 0 0 0-6.1-46 209 209 0 0 1 24 19.4 230 230 0 0 1 2 39.2m-8.5-70.6a231 231 0 0 0-27-17.2 210 210 0 0 0-16.9-32.7l-.2-.4a212 212 0 0 1 37 35.8l4.5 5.8zm-29.2-64a229 229 0 0 0-53-31 212 212 0 0 0-13.5-11 230 230 0 0 0-41-45.6 231 231 0 0 1 107.5 87.6m-304.3 315-.8-1v-1l2 .5z" style="fill-rule:nonzero"/><path d="m1061.3 989.2-5.4-6.5 1.3-1.4q3.3.7 6.8 1.2zm315-97.3a209 209 0 0 0-17-10.6 209 209 0 0 0 7.4-18.7 229 229 0 0 1 17.5 10.5 230 230 0 0 1-7.9 18.8m19.6-66a211 211 0 0 0-18.6-13.3q1-11.4.7-22.8a231 231 0 0 1 19.9 12.6q-.5 11.7-2 23.4m-340.8 156-1-1.1 1 .2zM1396 763.3a209 209 0 0 0-24-19.3 209 209 0 0 0-9.5-29.3 231 231 0 0 1 27 17.2 229 229 0 0 1 6.5 31.4M1079.1 1007q-6.4-2.7-12.7-5.8l3-3.5q4.7 4.8 9.7 9.3m-18.9-9-1.8-.9 3-8 4.8 5.4z" style="fill-rule:nonzero"/><path d="m1066.4 1001.2-6.2-3.1 6-3.6 3.2 3.2zm-11.3-17.6V982l.8.8z" style="fill-rule:nonzero"/><path d="m1058.4 997.1-1-.5-2.4-6.3v-6.7l.9-.9q2.6 3.3 5.4 6.5z" style="fill-rule:nonzero"/><path d="m1053.3 985.7-1.9-5.7 2.7.6 1 1.1v1.9z" style="fill-rule:nonzero"/><path d="m1055 990.3-1.7-4.6 1.8-2zm-24.7-11-4.2-3.3-2.9-4.5 5.6 2zm356.5-256-4.6-5.9a212 212 0 0 0-36.9-35.8 208 208 0 0 0-38.1-44.7 229 229 0 0 1 53 31 230 230 0 0 1 26.6 55.3" style="fill-rule:nonzero"/><path d="m1035.1 982.7-4.8-3.5-1.5-5.7 1.3.4 5.4 1.8zm22.4 13.9-2.5-1.4v-5z" style="fill-rule:nonzero"/><path d="m1041 986.6-4.8-3.2-1-.7q0-3.6.3-7l8.7 2.5z" style="fill-rule:nonzero"/><path d="m1048.6 991.5-7.7-4.9 3.3-8.4 7.2 1.8 2 5.7q-2.5 2.8-4.8 5.8" style="fill-rule:nonzero"/><path d="m1055 995.2-6.4-3.7 4.7-5.8 1.7 4.6zM993 921l1.5-7.2 1.5 2.2zm-19.8-3.1-3.4-5.5c-3.9-32.3-14.6-63-30.8-90.1a231 231 0 0 1 2.5-71.7 209 209 0 0 1 16.3 28.3 210 210 0 0 0 20.3 106.7 208 208 0 0 1-4.9 32.3m-10.4-171.3a230 230 0 0 0-15-21 230 230 0 0 1 24.6-53.5 208 208 0 0 1 13.3 16.7 208 208 0 0 0-23 57.8m34.6-75.7a230 230 0 0 0-13.2-15.8A230 230 0 0 1 1022 616q7.2 7 13.6 14.7a212 212 0 0 0-38.2 40.3m54.4-52.1a229 229 0 0 0-13.6-15 230 230 0 0 1 43.8-23.3 208 208 0 0 1 16.2 15.3 210 210 0 0 0-26.3 11.2 208 208 0 0 0-20 11.8m67.6-29.2a229 229 0 0 0-15.8-16.6 232 232 0 0 1 40.2-7.8q11.8 8.6 22.3 18.7-23.7.2-46.7 5.7" style="fill-rule:nonzero"/><path d="M1175.8 584h-9.7a211 211 0 0 0-22.3-18.8l8.2-.7a209 209 0 0 1 23.8 19.6m-77.7 11.7a208 208 0 0 0-16.1-15.3q10.6-4.3 21.6-7.5a229 229 0 0 1 15.8 16.6 213 213 0 0 0-21.3 6.2m-92.6 346-1.7-.9 2-3 1.5 3.3zm30-311.2A210 210 0 0 0 1022 616a228 228 0 0 1 16.2-12.1 229 229 0 0 1 13.6 15 211 211 0 0 0-16.2 11.8" style="fill-rule:nonzero"/><path d="m1008.1 943.2-2.6-1.4 1.8-.6zM997 937l-7-4.3 3-11.8 3.1-5 3.5 4.8 4 11.4zm-11.2-248.3a208 208 0 0 0-13.3-16.7 235 235 0 0 1 11.7-17 230 230 0 0 1 13.2 15.8 215 215 0 0 0-11.6 18" style="fill-rule:nonzero"/><path d="m1003.8 941-6.9-4 6.7-4.8q1 2.9 2.3 5.8zm-17.3-10.3-9.3-6.7-4-6.1a208 208 0 0 0 4.8-32.3 211 211 0 0 0 16.4 28.2L993 921zm-28.8-151.8a209 209 0 0 0-16.3-28.3 228 228 0 0 1 6.2-25 230 230 0 0 1 15 21 210 210 0 0 0-4.9 32.3" style="fill-rule:nonzero"/><path d="m990 932.8-3.4-2.1 6.4-9.7zm-20.2-20.4a231 231 0 0 1-30.8-90.1 230 230 0 0 1 30.8 90m50.3 33.4h-1.4l1.6-1.3 1.3 1.3zm2.4.9h-.2l-4.4-.3.8-.6h2.9zm-15.2-5.4-1.4-3.2 3.3-5.3 5.5 6q-3.7 1.5-7.4 2.5" style="fill-rule:nonzero"/><path d="m1018.7 945.7-5.6-.1-5-2.4-.8-2q3.8-1 7.4-2.4 2.7 3 5.6 5.6z" style="fill-rule:nonzero"/><path d="M1018 946.3q-2 0-3.9-.2l-1-.5 5.6.1zm-14.3-14.1q-2.2-5.7-4-11.4l7 9z" style="fill-rule:nonzero"/><path d="m1005.9 938-2.3-5.8 3-2.5q1.5 1.5 2.6 3zm236.3-340.5a208 208 0 0 0-35.8-10 232 232 0 0 0-22.4-23q4.6.3 9.1.8a208 208 0 0 1 49.1 32.2M1084 985.1l-2.6-.2a208 208 0 0 1 22.2-19q32.7 0 64-10a211 211 0 0 0 57.4-28.7l3.7-2.7h.4v-.3.3q14.6 0 28.7 2a231 231 0 0 1-56.6 37.6 232 232 0 0 0-19-.8c-33.7 0-67.2 7.3-98.1 21.8m-12.2-18.7 1.4-2.6 1.2.1zm203.2-57.2a228 228 0 0 0-24.2-3.6 208 208 0 0 0 36.7-48.3 215 215 0 0 1 20.5 4 229 229 0 0 1-33 48" style="fill-rule:nonzero"/><path d="M1103.3 986q-9.6 0-19.4-.9a231 231 0 0 1 117.2-21 230 230 0 0 1-97.8 21.9m-22-1.1-3.5-.4a212 212 0 0 1-12-6.1l6-12 2.6-2.5q14.3 2 29 2h.1a208 208 0 0 0-22.2 19m176.4-58.4a210 210 0 0 0-28.7-2v-.3a211 211 0 0 0 21.8-18.6 228 228 0 0 1 24.2 3.6 228 228 0 0 1-17.3 17.3m-29.1-2 .4-.3v.3zm87.9-81.7a234 234 0 0 0-19.7-4.3h-.2a213 213 0 0 0 6.1-16q6.1-18.4 8.9-37a208 208 0 0 1 19.4 5.3 232 232 0 0 1-9.3 38q-2.4 7.1-5.2 14m16.7-72.2a229 229 0 0 0-19.7-5.2q.6-12.9-.4-25.8a211 211 0 0 0-3.5-25.2q11 3.2 21.6 7.5a228 228 0 0 1 2 48.7m-6.6-71.8a231 231 0 0 0-22.6-6.4 212 212 0 0 0-12.4-30.6q-3-6-6.4-11.9 14.7 4.9 28.5 11.9a231 231 0 0 1 12.9 37m-28-65.3a231 231 0 0 0-30.7-9 210 210 0 0 0-25.3-26.7l-.4-.3a211 211 0 0 1 51.5 28.4zM1061.8 976l-6.2-3.7.8-7.1q7-.8 13.8-2l2.9.5-1.4 2.6a227 227 0 0 0-9.9 9.7" style="fill-rule:nonzero"/><path d="m1065.9 978.4-4-2.3a227 227 0 0 1 9.9-9.7 210 210 0 0 0-6 12M1308 861.3a215 215 0 0 0-20.5-4q5-9.2 9.1-18.8h.2a234 234 0 0 1 19.7 4.3 230 230 0 0 1-8.5 18.5m-259.3 106.5-.9-.7-.2-1 2-.1zm282.3-177a208 208 0 0 0-19.4-5.3 204 204 0 0 0 1.9-20 229 229 0 0 1 19.7 5 226 226 0 0 1-2.2 20.3m-275.2 181.6-7-4.6.8-1.8 6.9-.7zM1331.2 722a210 210 0 0 0-21.6-7.5 208 208 0 0 0-5.6-22 231 231 0 0 1 22.6 6.4 232 232 0 0 1 4.6 23m-283.4 245.3h-.2l-1.1-.9h1zm265.9-305.4q-13.8-7-28.5-11.9a209 209 0 0 0-17.3-25.4 231 231 0 0 1 30.7 9 233 233 0 0 1 15.1 28.3m-295.4 307.8-9.3-3.9 5.3.4zm-67-41-4.8-4.3a230 230 0 0 0-54.8-77.9 231 231 0 0 1-17.8-69.4 209 209 0 0 1 23.7 22.5 210 210 0 0 0 49.3 96.8 208 208 0 0 1 4.3 32.3m19.9-2.5-.6-7.3 2 1.6zm-77.9-159a230 230 0 0 0-20.3-15.9c.4-19.3 3.3-39 8.7-58.3a208 208 0 0 1 17.4 12.4 208 208 0 0 0-5.8 61.8m12-82.3a230 230 0 0 0-17-11.4 230 230 0 0 1 25.2-48.3 210 210 0 0 1 17.2 10.3 210 210 0 0 0-25.4 49.4m37.6-65.3a230 230 0 0 0-17.2-10.6 230 230 0 0 1 35.5-34.6 209 209 0 0 1 19.8 10.2q-21.4 15.3-38.1 35m56.8-47a229 229 0 0 0-19.8-11.4 232 232 0 0 1 36.4-18.8A211 211 0 0 1 1043 554l-3.7 1.2a211 211 0 0 0-39.6 17.3m71.8-24.9a232 232 0 0 0-26.4-14.9 230 230 0 0 1 16.3-3.7 208 208 0 0 1 40.7 12.5l8.3 3.8a209 209 0 0 0-39 2.3" style="fill-rule:nonzero"/><path d="m1119.8 545.8-9.5-.5-8.3-3.8a208 208 0 0 0-40.7-12.5l2.3-.4a208 208 0 0 1 56.2 17.2M1043 554a211 211 0 0 0-26.7-11.7 231 231 0 0 1 28.8-9.6 232 232 0 0 1 26.4 14.9 210 210 0 0 0-28.5 6.4m-62 30.5a209 209 0 0 0-19.8-10.2 231 231 0 0 1 18.7-13.2 229 229 0 0 1 19.8 11.4 212 212 0 0 0-18 11.4zm8 358-1.8-.3 1-3.4 2.4 2.7zm-58.3-307.1a210 210 0 0 0-17.2-10.3 229 229 0 0 1 12.2-16.2 230 230 0 0 1 17.2 10.6 208 208 0 0 0-12.2 15.9" style="fill-rule:nonzero"/><path d="m991.8 943.1-3-.5 1.7-1zm-12.4-2.7-7.9-2.1-.4-12.2 1.5-5.7 4.7 3.6 7 9.9zM899 705.3a208 208 0 0 0-17.4-12.4 235 235 0 0 1 6.5-19.5 230 230 0 0 1 17.1 11.4 214 214 0 0 0-6.2 20.5m88 236.9-7.6-1.8 5-6.5 3.8 4.9zm-19.4-5-10.9-3.8-5.6-4.8a208 208 0 0 0-4.3-32.3 210 210 0 0 0 17.1 17l6.5 5.5q.4 3.6.6 7.3zm-70.1-137.6a209 209 0 0 0-23.7-22.5 228 228 0 0 1-1-25.8 230 230 0 0 1 20.3 16l.3 4.3a210 210 0 0 0 4 28" style="fill-rule:nonzero"/><path d="m971.5 938.3-3.8-1.2 3.4-11q.4 6 .4 12.2m-25-14a231 231 0 0 1-54.8-77.9 231 231 0 0 1 54.8 78m306.2-344.2a229 229 0 0 0-59.6-14.9 214 214 0 0 0-16-6.7 230 230 0 0 0-52-32.4 231 231 0 0 1 127.6 54m-174.9 404.3a230 230 0 0 1-13.8-2l1.8-4.1q6 3.3 12 6.1m-54.6-13-5-1.9-4-3.5 6 .4zm34 9.8-2-.5.5-8.4 6.2 3.7z" style="fill-rule:nonzero"/><path d="m1064 982.5-6.8-1.2 4.7-5.2 4 2.3zm-15.8-13.7-.4-1.7 1 .7z" style="fill-rule:nonzero"/><path d="m1055.2 980.8-1-.2-4.2-5.4-1.8-6.4.5-1 7 4.6zm-8-9.5-3.5-5 2.8-.1 1.1.8.2.1.4 1.7z" style="fill-rule:nonzero"/><path d="m1050 975.2-2.9-4 1.1-2.4zm4.1 5.4-2.7-.6-1.4-4.8zm-25.3-7-5.6-2-3-5.1 7 .2zm6.7 2.1-5.4-1.8-1.3-.4-1.6-6.8h9z" style="fill-rule:nonzero"/><path d="m1044.2 978.2-8.7-2.5.7-9 7.5-.3 3.4 4.9zm7.2 1.8-7.2-1.8 3-7 2.8 4zm-48.7-37.4 1.1-1.7 1.7.9-1.5.4z" style="fill-rule:nonzero"/><path d="m1009.1 945.4-4-.2-3.9-.5 1.5-2 1.3-.5 1.5-.4 2.6 1.4z" style="fill-rule:nonzero"/><path d="m1009.2 945.6-4-.4 4 .2zm-18.7-4-2.3-2.8 1.8-6 7 4.3z" style="fill-rule:nonzero"/><path d="m997.2 944-5.4-.9-1.3-1.6 6.4-4.4 7 3.8-1.2 1.7zm4 .7-4-.6 5.5-1.5zM984.4 934l-7.1-9.9q4.6 3.5 9.3 6.7z" style="fill-rule:nonzero"/><path d="m988.2 938.8-3.8-5 2.2-3.1 3.4 2.1zm24.9 6.8-4-.2-1-2.2z" style="fill-rule:nonzero"/><path d="m1014.1 946-4.9-.4v-.2l3.9.2zm279.6-320.2-6-4.3a211 211 0 0 0-45.5-24 208 208 0 0 0-49-32.3 229 229 0 0 1 59.5 14.9 230 230 0 0 1 41 45.7M1009 965.7l-.7-.3zm-57.6-31.5-1.1-.4-1.4-3.6 2.4 1zm-28-12a210 210 0 0 1-92.1-94 211 211 0 0 1 14.2 8 210 210 0 0 0 74.3 79zm-91.3-115.9-12-5.2a209 209 0 0 1-10.3-59.8l10.6 4a208 208 0 0 0 11.7 61M820.7 724l-10.4-3.5q2-27.7 11-54l10 3a211 211 0 0 0-10.6 54.5m17.8-73.2-9.7-2.9a209 209 0 0 1 26.8-43.5l9.6 2.1a209 209 0 0 0-26.7 44.3m41.4-61-9-2.5.5-.6a211 211 0 0 1 35.3-28.4q4.8.7 9.5 1.7a212 212 0 0 0-31.1 24.7zm61.8-44-7.8-2.3 4.3-1.9a209 209 0 0 1 30.8-10.3l9.5 1.3a208 208 0 0 0-36.8 13.2m104.5-19a217 217 0 0 0-15.7-.7v-.7q8 .4 15.7 1.3m78.8-.4q-5-.5-9.9-.7a229 229 0 0 0-67.2-18.8c27.4 2 53.4 8.8 77.1 19.5m-95.3-.2-2.2-.9 3 .2v.7z" style="fill-rule:nonzero"/><path d="m1008.3 965.4-10-1 5.1-1.3zM933 945.1l-5.7-2.8A230 230 0 0 0 853 883a231 231 0 0 1-36.5-61.7 210 210 0 0 1 14.9 7 210 210 0 0 0 92.2 94 210 210 0 0 1 9.5 22.9m18.5-8-1.2-3.3 1.1.4zm-131.2-136-12-4.5q-7.6-28.1-7.9-58.4l9.6 3a209 209 0 0 0 10.3 59.8m-10-80.7-9.1-2.7a230 230 0 0 1 10.7-53.4q4.8 1 9.5 2.2-9 26.1-11 54m18.5-72.7-9.8-2.4a230 230 0 0 1 24.4-43.2q6.1.8 12.2 2a209 209 0 0 0-26.8 43.6m42-60.6-13.1-3a232 232 0 0 1 29.7-28.2 211 211 0 0 1 19.3 2.2 211 211 0 0 0-35.3 28.4zm63-43.8a232 232 0 0 0-21.5-4.6 231 231 0 0 1 14.6-8.1 209 209 0 0 1 18.4-.8v-7.5 7.5q12 0 23.7 1.3a209 209 0 0 0-30.8 10.3zm129.7-14.9a212 212 0 0 0-17.4-2 212 212 0 0 0-15.7-1.3V506v19.3l-3-.2a230 230 0 0 0-50-13 230 230 0 0 1 53-6 233 233 0 0 1 17.4.6 229 229 0 0 1 67.2 18.8q-6-.4-11.8-.4a229 229 0 0 0-39.7 3.5" style="fill-rule:nonzero"/><path d="m978.5 532.5-9.5-1.3a211 211 0 0 1 58.5-6l2.3.8q-26.3.2-51.3 6.5" style="fill:#623b18;fill-rule:nonzero"/><path d="M998.2 964.4q-2.7-.3-5.3-.8l5.1-3.1 5.4 2.6zM969 531.2a209 209 0 0 0-23.7-1.3v-7.5a229 229 0 0 1 32.3-10.2 230 230 0 0 1 49.9 13l-7.4-.2q-26.2 0-51 6.2m-42.2-.5a229 229 0 0 1 18.4-8.3v7.5q-9.3 0-18.4.8m-10.7 29.2-9.5-1.7a210 210 0 0 1 27.2-14.8q4 1 7.8 2.3a209 209 0 0 0-25.5 14.2" style="fill-rule:nonzero"/><path d="M906.7 558.2a211 211 0 0 0-19.3-2.2 231 231 0 0 1 24.9-17.2 232 232 0 0 1 21.6 4.6 210 210 0 0 0-27.2 14.8M993 963.6l-6-1 .3-.3 4.5-5.2 6.3 3.4zM865.2 606.4l-9.6-2.1a213 213 0 0 1 15.2-17.1l9.1 2.5a212 212 0 0 0-14.7 16.7" style="fill-rule:nonzero"/><path d="m855.6 604.3-12.2-2.1a231 231 0 0 1 14.3-18q6.6 1.4 13.1 3a213 213 0 0 0-15.2 17M987 962.7l-7.1-1.5 3.6-8.8 8.2 4.8zM831.2 669.4l-9.9-3a210 210 0 0 1 7.5-18.6l9.7 2.9a208 208 0 0 0-7.3 18.7" style="fill-rule:nonzero"/><path d="m971.3 949 .2-4.5 3 2-2.1 2.4zm-150-282.5-9.5-2.2a228 228 0 0 1 7.2-19l9.8 2.5a210 210 0 0 0-7.5 18.7" style="fill-rule:nonzero"/><path d="M971.3 950.1v-1l1-.2-.1.2zm1.2-1.2 2-2.4 2.6 1.7z" style="fill-rule:nonzero"/><path d="m971.1 952.9.2-2.8 1-1.2 4.7-.7 1.2.8z" style="fill-rule:nonzero"/><path d="m979.9 961.1-9.2-2.3.4-6 7.1-3.8 5.3 3.3zm-17.8-23.5-10.7-3.4v-3l5.4 2.2zM820.5 745.3l-10.6-4a215 215 0 0 1 .4-20.9l10.4 3.5a215 215 0 0 0-.2 21.4" style="fill-rule:nonzero"/><path d="M955.8 950.4a229 229 0 0 0-4.3-13.2v-3q5.2 1.9 10.6 3.4l4.3 3.3-3.5 9zm-146-209-9.5-3.1a235 235 0 0 1 .8-20.6l9.2 2.7a215 215 0 0 0-.4 21m150.5 214.4-3.4-1.1-1.2-4.3 7.1-.5zm2.5-5.9 3.5-9 5 3.6v4.5z" style="fill-rule:nonzero"/><path d="m963.3 956.7-3-.9 2.6-5.9q4.2-.3 8.4-.9v1.1l-4.6 5z" style="fill-rule:nonzero"/><path d="m964.8 957.2-1.5-.5 3.4-1.6zm2-2 4.6-5-.2 2.8z" style="fill-rule:nonzero"/><path d="m970.7 958.8-6-1.6 2-2.1 4.4-2.2q0 3-.4 6m-20.4-25a211 211 0 0 1-26.8-11.7l-3.7-7a211 211 0 0 0 29.1 15zm-104.8-97.6a211 211 0 0 0-14.2-8l-5-11a210 210 0 0 1-6-16l12 5.1 1.4 4.2a210 210 0 0 0 11.8 25.7" style="fill-rule:nonzero"/><path d="M946 950.7a228 228 0 0 1-13-5.6 210 210 0 0 0-9.5-22.9 211 211 0 0 0 26.8 11.6l1.2 3.4a210 210 0 0 1-.3 13.4zM831.3 828.3a210 210 0 0 0-14.9-7 228 228 0 0 1-8.1-24.5l12 4.4a210 210 0 0 0 6 16.1z" style="fill-rule:nonzero"/><path d="m951.1 952.6-5-2h5.1zm0-2q.4-6.7.3-13.4a229 229 0 0 1 4.3 13.2zm5.9 4.1-5.9-2 .1-2.1 4.6-.2zm-29.7-12.4A231 231 0 0 1 853 883a230 230 0 0 1 74.4 59.4m146.5 20.4 2-3.6.2-.2 6.2-1.7-5.8 5zm92.8-49.5a232 232 0 0 0 47.5-53.6l12.7-2.3a231 231 0 0 1-43.9 52 231 231 0 0 0-16.4 3.9" style="fill-rule:nonzero"/><path d="M1076 958.9a212 212 0 0 1 13.7-20.6 210 210 0 0 0 86.5-50.1 213 213 0 0 0 22-24.6 209 209 0 0 1 16-4 232 232 0 0 1-47.6 53.6 231 231 0 0 0-84.4 44z" style="fill-rule:nonzero"/><path d="m1076.4 962.2 5.8-5c31.3-8.7 60-23.9 84.3-44q8.2-2.3 16.4-4a230 230 0 0 1-106.5 53" style="fill-rule:nonzero"/><path d="M1082.2 957.2a231 231 0 0 1 84.4-44 230 230 0 0 1-84.4 44m-22.8-9.6.6-2.9q.7 0 1.3-.2zm167.4-110.4a229 229 0 0 0 19-55.8q5.5-.5 11-.7a229 229 0 0 1-18.3 55.2q-6 .5-11.7 1.3" style="fill-rule:nonzero"/><path d="M1214.3 839.1a209 209 0 0 0 21.6-56.6l6-.8 4-.4a229 229 0 0 1-19 55.8q-6.4.8-12.6 2M1249 761a233 233 0 0 0-.4-54.6h3.3l7 .1a232 232 0 0 1 1.8 39q-.3 7.5-1 15-5.4 0-10.7.5" style="fill-rule:nonzero"/><path d="M1239.5 761.9a206 206 0 0 0 1.3-17.1q.8-19.2-1.8-38l9.7-.4a233 233 0 0 1 .4 54.6l-9.5.8zm5.8-75.4a228 228 0 0 0-15.7-47q5.3.2 10.4.8a230 230 0 0 1 15.6 46.1z" style="fill-rule:nonzero"/><path d="M1235.2 687a209 209 0 0 0-7.6-24.7 211 211 0 0 0-10.3-23.1l12.3.3a228 228 0 0 1 15.7 47q-5 .1-10.1.5m-6-67.6-10.2-.2a230 230 0 0 0-23.8-33.5q5.6.7 11.2 1.8a231 231 0 0 1 22.7 32" style="fill-rule:nonzero"/><path d="M1205.6 619.5a213 213 0 0 0-29.8-35.4q9.8.4 19.4 1.6a230 230 0 0 1 23.8 33.5h-.5q-6.4 0-12.9.3m-135.3 343.8-8-1.4 13.7-3-.1.2-2.1 3.6z" style="fill-rule:nonzero"/><path d="m1062.2 961.9-5.1-1.1a211 211 0 0 1 2.3-13.2l1.9-3a209 209 0 0 0 28.4-6.3A212 212 0 0 0 1076 959a228 228 0 0 1-13.8 3m152-102.3a229 229 0 0 0 12.6-22.5q5.9-.8 11.7-1.3a229 229 0 0 1-11.7 21.5z" style="fill-rule:nonzero"/><path d="M1198.2 863.6a210 210 0 0 0 16-24.5q6.3-1.2 12.6-2a229 229 0 0 1-12.7 22.5 209 209 0 0 0-15.9 4m-145.5 96.1-7-1.8-1.7-9.5 5-2.5q5.6-.5 11-1.2l-.6 2.9a223 223 0 0 0-6.7 12.1" style="fill-rule:nonzero"/><path d="M1044 948.4q0-1-.3-2l5.3-.5zm202-167.1a230 230 0 0 0 3.1-20.3q5.4-.5 10.7-.5a233 233 0 0 1-3 20z" style="fill-rule:nonzero"/><path d="M1236 782.5a208 208 0 0 0 3.5-20.6h.1l9.5-1q-1.2 10.4-3.2 20.4zm-178.8 178.3-4.4-1q3.1-6.2 6.7-12.2a211 211 0 0 0-2.3 13.2m-19.4-5.4-1-.4-1.6-2.6 3.3-1.5zm-2.8-3-3-5.7 7.2-.1-.8 4.3zm224-245.9h-10.4a229 229 0 0 0-3.4-20h10.3a230 230 0 0 1 3.5 20" style="fill-rule:nonzero"/><path d="M1239 706.8a204 204 0 0 0-3.8-19.8l10-.5a229 229 0 0 1 3.4 20q-4.8 0-9.6.3m-193.3 251-8-2.4.7-4.5 5.6-2.5z" style="fill-rule:nonzero"/><path d="m1038.4 951 .8-4.4 4.5-.3.3 2zm-14.6-3.1-1.3-1.2h1.1zM1240 640.3q-5.2-.6-10.4-.8a230 230 0 0 0-10.6-20.3l10.1.2a230 230 0 0 1 11 20.9" style="fill-rule:nonzero"/><path d="m1229.6 639.5-12.3-.3a208 208 0 0 0-11.7-19.7l12.9-.3h.5a230 230 0 0 1 10.6 20.3m-193 315.5h-.2l-4.1-1.5 2.8-1.1zm-4.3-1.5-3.6-1.3-5-4.4v-1.2l8.3.1 3 5.7zm151.7-389-10-.5a231 231 0 0 0-12.7-10.6 217 217 0 0 1 15.8 5.2z" style="fill-rule:nonzero"/><path d="M1152 564.5a210 210 0 0 0-31.8-18.5l-.4-.2a210 210 0 0 1 41.5 7.6q6.6 5.1 12.8 10.6a232 232 0 0 0-22.1.5m-127.8 386-7.5-3.2 1.2-1 4.4.3h.2l1.3 1.2q0 1.3.4 2.6" style="fill-rule:nonzero"/><path d="m1016.7 947.3-2.6-1.2 3.8.2zm12 5-4.6-1.9q0-1.3-.3-2.6zm177.7-364.7-11.2-1.8a232 232 0 0 0-21.1-21.7l10 .5a232 232 0 0 1 22.3 23" style="fill-rule:nonzero"/><path d="M1195.2 585.7a210 210 0 0 0-19.5-1.6 209 209 0 0 0-23.7-19.6 232 232 0 0 1 22-.5 232 232 0 0 1 21.2 21.7m-138.7 379.6.3-2.5 5.4-1 8.1 1.5q-6.8 1.2-13.8 2m.3-2.5q0-1 .3-2 2.5.6 5.1 1zm-9.2 3.3-.5-2 3.6-.4-1.1 2.3zm-.6-2-1.3-6.2 7 1.8-2 4z" style="fill-rule:nonzero"/><path d="m1049.6 966 1-2.3 6.2-.9-.3 2.5z" style="fill-rule:nonzero"/><path d="m1050.7 963.7 2-4 4.4 1-.3 2.1zm-13.2-7.2-.9-1.5 1 .4zm9 9.7-2.4-1.7 3-.4.5 2z" style="fill-rule:nonzero"/><path d="m1044 964.5-3-2.3-3.5-5.7.2-1.1 8 2.5 1.4 6.2zm-6.9-5.3-6.2-5.1 1.4-.6 4.1 1.5h.2l.9 1.5z" style="fill-rule:nonzero"/><path d="m1030.9 954.1-2.2-1.9q1.8.8 3.6 1.3zm10 8.1-3.8-3 .4-2.7q1.7 3 3.5 5.7m-26.7 4-5.3-.5-.7-.3 5.4.2zm-.6-.5-5.4-.2-4.9-2.3 5.8-1.6zm-10.3-2.6-5.4-2.6.4-.3 5.7-3.7 5.1 5z" style="fill-rule:nonzero"/><path d="m998 960.5-6.3-3.4 5.8-7.4 6.6 6.8-5.7 3.7zm-10.2-17.2-1-.2.3-.9 1.8.4z" style="fill-rule:nonzero"/><path d="m986.4 944.1.4-1 1 .2h-.2zm6-.2-4.6-.6 1-.7 3 .5z" style="fill-rule:nonzero"/><path d="m985.5 946.7 1-2.6 1.1-.7.2-.1 4.7.6 1 1.1q-4 1-8 1.7" style="fill-rule:nonzero"/><path d="m991.7 957-8.2-4.7 2-5.6 8-1.7 4 4.7zm-13.2-15.5-7-1.5v-1.8l7.9 2.1z" style="fill-rule:nonzero"/><path d="m974.4 946.5-3-2 .1-4.4 7 1.5zm12.3-3.5-8.3-1.5.9-1.2q3.8 1 7.7 1.8z" style="fill-rule:nonzero"/><path d="m977 948.2-2.6-1.7 4-4.9 8.4 1.5-.4 1-5.7 3.5zm1.2.8-1.2-.8 3.7-.6zm2.5-1.4 5.7-3.5-.9 2.6z" style="fill-rule:nonzero"/><path d="m983.5 952.3-5.3-3.3 2.5-1.4 4.8-.9zM967 939l-5-1.4-5.2-4.2 10.8 3.7z" style="fill-rule:nonzero"/><path d="m966.4 940.9-4.3-3.3 5 1.4zm5.1-.8-4.4-1.1.6-1.9 3.8 1.2z" style="fill-rule:nonzero"/><path d="m971.5 944.5-5.1-3.6.7-2 4.4 1.2zm205.6-386a217 217 0 0 0-15.8-5.1 230 230 0 0 0-46.2-28l10 .8a230 230 0 0 1 52 32.4" style="fill-rule:nonzero"/><path d="M1161.3 553.4a210 210 0 0 0-41.5-7.6 208 208 0 0 0-56.2-17.2 229 229 0 0 1 51.5-3.1 230 230 0 0 1 46.2 27.9m-141.1 413-6-.3-.5-.5 6 .1z" style="fill-rule:nonzero"/><path d="M1019.7 965.7h-6l-4.5-4.2h.4l6.6-2z" style="fill-rule:nonzero"/><path d="m1009.2 961.5-5.1-5 7.7-5.5 4.4 8.4-6.6 2zm-4-16.3-4.1-.3.1-.2z" style="fill-rule:nonzero"/><path d="m1004 956.5-6.5-6.9 3.6-4.7 8.1.7 2.6 5.4zm-8-12.1-3.6-.5-.7-.8 5.4 1z" style="fill-rule:nonzero"/><path d="m993.4 945-1-1 3.7.4zm7.7-.1-5-.5 1.1-.3 4 .6z" style="fill-rule:nonzero"/><path d="m997.5 949.7-4-4.7 2.6-.6 5 .5zm46.2 16.7-1.2-1.8 1.5-.1 2.5 1.7z" style="fill-rule:nonzero"/><path d="m1042.6 964.6-1.6-2.4 3 2.3zm-15.3 2.1-7-.2-.5-.8h.4l6.8-.1z" style="fill-rule:nonzero"/><path d="M1020.1 965.7h-.4l-3.5-6.3 8.9-3 1.8 9.2zm-3.9-6.3-4.4-8.4 5-3.7 7.3 3.1 1 6zm-4.4-8.4-2.6-5.4 4.9.5 2.6 1.2zm19 15.7h-3.6l-.3-1.1q4.8 0 9.5-.5l-.2 1.6z" style="fill-rule:nonzero"/><path d="M1027 965.6q-1.1-4.6-1.9-9.3l5.8-2.2 6.2 5.1-.7 6z" style="fill-rule:nonzero"/><path d="m1025.1 956.3-1-5.9 4.6 1.8 2.2 1.9zm11.1 10.4.2-1.6 6.1-.5 1.2 1.8z" style="fill-rule:nonzero"/><path d="m1036.4 965.1.7-5.9 3.9 3 1.6 2.4z" style="fill-rule:nonzero"/></g></svg>