<?xml version="1.0" encoding="UTF-8" standalone="no"?>
<!DOCTYPE svg PUBLIC "-//W3C//DTD SVG 1.1//EN" "http://www.w3.org/Graphics/SVG/1.1/DTD/svg11.dtd">
<svg width="100%" height="100%" viewBox="0 0 50 50" version="1.1" xmlns="http://www.w3.org/2000/svg" xmlns:xlink="http://www.w3.org/1999/xlink" xml:space="preserve" xmlns:serif="http://www.serif.com/" style="fill-rule:evenodd;clip-rule:evenodd;stroke-linejoin:round;stroke-miterlimit:2;">
    <g transform="matrix(0.498152,0,0,0.498152,-182.474325,-20.571193)">
        <path d="M392.086,89.443C391.27,88.988 390.57,88.381 389.99,87.448C388.742,85.591 387.75,83.718 385.223,83.647C383.838,83.597 382.486,83.909 381.088,83.905C380.199,83.866 378.908,84.147 378.092,83.732C377.111,83.212 376.166,81.656 375.424,80.864C374.543,79.876 373.843,78.799 372.828,77.92C371.632,76.831 369.986,76.046 368.443,76.946C369.114,76.113 371.94,75.88 372.992,75.572C374.598,75.093 376.158,74.6 377.874,74.707C380.869,74.879 382.621,77.799 385.365,78.743C388.111,79.684 391.082,80.549 394.041,80.06C394.725,79.945 395.355,79.886 395.958,79.876C395.562,78.783 394.98,77.861 393.657,77.4C392.572,77.012 391.422,76.918 390.313,76.563C389.617,76.309 388.522,76.207 387.98,75.672C387.332,75.013 386.975,73.541 386.585,72.725C386.135,71.721 385.85,70.69 385.268,69.738C384.592,68.573 383.484,67.536 382.034,67.862C382.775,67.37 385.076,67.896 385.986,67.916C387.381,67.94 388.744,67.942 390.078,68.458C392.41,69.35 393.064,72.106 395.006,73.544C395.935,74.233 396.909,74.92 397.943,75.489C397.552,74.641 397.342,73.738 397.422,72.643C397.504,70.407 397.801,68.309 395.798,66.766C394.707,65.913 393.432,65.37 392.302,64.543C391.605,63.991 390.396,63.459 389.98,62.643C389.492,61.646 389.643,59.831 389.507,58.754C389.375,57.438 389.441,56.156 389.139,54.847C388.811,53.263 387.939,51.661 386.163,51.481C387.195,51.202 389.618,52.675 390.65,53.043C392.23,53.6 393.783,54.118 395.107,55.214C397.43,57.114 397.131,60.506 398.797,62.881C400.465,65.258 402.359,67.704 405.041,69.047C405.662,69.356 406.206,69.678 406.7,70.024C407.022,68.908 407.094,67.819 406.295,66.669C405.645,65.717 404.768,64.965 404.08,64.026C403.668,63.413 402.842,62.686 402.717,61.935C402.58,61.021 403.156,59.62 403.319,58.731C403.546,57.654 403.922,56.653 404.01,55.539C404.148,54.199 403.861,52.709 402.498,52.12C403.387,52.159 404.938,53.937 405.664,54.489C406.777,55.328 407.879,56.129 408.654,57.332C410.018,59.423 408.926,62.04 409.65,64.342C409.998,65.446 410.382,66.575 410.885,67.644C411.067,66.727 411.428,65.873 412.137,65.034C413.516,63.273 414.99,61.75 414.277,59.325C413.896,57.994 413.183,56.804 412.754,55.471C412.517,54.615 411.851,53.474 411.994,52.571C412.184,51.475 413.373,50.096 413.896,49.145C414.563,48.003 415.371,47.004 415.895,45.767C416.561,44.292 416.798,42.485 415.466,41.295C416.465,41.676 417.559,44.292 418.178,45.196C419.129,46.577 420.08,47.909 420.509,49.573C421.27,52.475 419.033,55.044 418.986,57.946C418.938,60.847 419.033,63.939 420.413,66.603C420.733,67.218 420.985,67.799 421.181,68.37C422.098,67.655 422.796,66.816 422.825,65.415C422.858,64.264 422.592,63.141 422.588,61.977C422.613,61.238 422.373,60.165 422.714,59.483C423.14,58.664 424.431,57.869 425.084,57.245C425.9,56.506 426.793,55.917 427.52,55.069C428.418,54.067 429.063,52.692 428.305,51.415C429.002,51.967 429.211,54.318 429.475,55.191C429.882,56.524 430.302,57.82 430.223,59.248C430.096,61.743 427.676,63.217 426.908,65.507C426.541,66.604 426.188,67.743 425.967,68.903C426.652,68.269 427.446,67.79 428.513,67.527C430.663,66.913 432.752,66.548 433.6,64.166C434.074,62.866 434.197,61.485 434.633,60.155C434.943,59.321 435.076,58.006 435.723,57.359C436.52,56.586 438.293,56.168 439.275,55.707C440.486,55.174 441.728,54.84 442.877,54.149C444.283,53.346 445.537,52.025 445.16,50.28C445.743,51.174 445.092,53.934 445.061,55.029C445.02,56.704 445.006,58.341 444.373,59.941C443.283,62.735 439.965,63.499 438.221,65.819C436.477,68.138 434.735,70.696 434.287,73.662C434.184,74.348 434.046,74.965 433.87,75.542C435.031,75.503 436.089,75.234 436.935,74.119C437.64,73.207 438.084,72.141 438.764,71.196C439.22,70.613 439.656,69.604 440.332,69.253C441.159,68.84 442.671,68.956 443.565,68.837C444.66,68.718 445.729,68.767 446.815,68.506C448.133,68.224 449.46,67.492 449.6,66.012C449.838,66.869 448.626,68.895 448.324,69.754C447.871,71.073 447.449,72.369 446.545,73.477C444.977,75.42 442.152,75.192 440.186,76.592C439.244,77.263 438.289,77.978 437.428,78.786C438.355,78.675 439.279,78.755 440.297,79.169C442.396,79.937 444.301,80.87 446.387,79.441C447.536,78.667 448.447,77.622 449.581,76.803C450.322,76.311 451.201,75.327 452.105,75.182C453.205,75.025 454.885,75.73 455.95,75.934C457.243,76.213 458.443,76.674 459.781,76.79C461.389,76.967 463.182,76.634 463.901,75C463.848,76.068 461.697,77.918 461.029,78.785C460.012,80.117 459.038,81.432 457.588,82.354C455.063,83.975 451.928,82.643 449.154,83.494C446.38,84.345 443.469,85.391 441.361,87.526C440.875,88.021 440.401,88.439 439.919,88.802C440.881,89.453 441.894,89.858 443.234,89.453C444.342,89.129 445.327,88.528 446.434,88.165C447.145,87.959 448.09,87.4 448.844,87.514C449.756,87.665 450.91,88.647 451.703,89.079C452.659,89.625 453.495,90.291 454.527,90.721C455.759,91.265 457.264,91.453 458.246,90.339C457.935,91.17 455.764,92.097 455.016,92.618C453.873,93.416 452.77,94.216 451.387,94.582C448.977,95.233 446.825,93.387 444.411,93.364C443.254,93.353 442.061,93.37 440.889,93.518C441.706,93.974 442.407,94.581 442.986,95.514C444.234,97.37 445.227,99.244 447.754,99.314C449.138,99.365 450.49,99.053 451.889,99.057C452.777,99.094 454.068,98.815 454.885,99.231C455.865,99.749 456.811,101.306 457.553,102.098C458.434,103.085 459.134,104.161 460.148,105.041C461.345,106.131 462.99,106.915 464.533,106.018C463.861,106.849 461.035,107.082 459.984,107.39C458.379,107.868 456.818,108.361 455.102,108.255C452.107,108.082 450.355,105.16 447.61,104.219C444.865,103.277 441.895,102.412 438.936,102.901C438.252,103.016 437.621,103.075 437.018,103.086C437.414,104.178 437.996,105.101 439.318,105.562C440.404,105.949 441.555,106.043 442.664,106.398C443.359,106.651 444.453,106.754 444.996,107.289C445.645,107.947 446.002,109.42 446.391,110.234C446.842,111.24 447.127,112.271 447.709,113.224C448.385,114.389 449.492,115.425 450.942,115.102C450.201,115.591 447.9,115.065 446.99,115.045C445.596,115.021 444.232,115.02 442.898,114.502C440.566,113.611 439.911,110.854 437.971,109.416C437.042,108.728 436.067,108.04 435.032,107.471C435.424,108.32 435.634,109.223 435.555,110.319C435.473,112.554 435.175,114.652 437.178,116.195C438.27,117.049 439.545,117.592 440.674,118.417C441.371,118.971 442.58,119.504 442.996,120.318C443.485,121.315 443.334,123.131 443.469,124.206C443.602,125.523 443.535,126.806 443.838,128.114C444.166,129.698 445.037,131.301 446.813,131.48C445.781,131.759 443.358,130.286 442.327,129.918C440.746,129.361 439.193,128.843 437.868,127.747C435.547,125.848 435.846,122.455 434.179,120.079C432.512,117.705 430.617,115.258 427.936,113.914C427.315,113.605 426.77,113.283 426.276,112.937C425.954,114.053 425.882,115.141 426.682,116.291C427.332,117.243 428.209,117.996 428.896,118.935C429.31,119.548 430.135,120.275 430.26,121.026C430.396,121.94 429.82,123.342 429.656,124.229C429.431,125.307 429.055,126.309 428.966,127.422C428.828,128.763 429.115,130.251 430.479,130.841C429.59,130.803 428.039,129.025 427.313,128.473C426.199,127.634 425.098,126.831 424.322,125.63C422.959,123.537 424.051,120.922 423.326,118.619C422.979,117.516 422.594,116.386 422.092,115.318C421.91,116.234 421.549,117.088 420.84,117.928C419.461,119.688 417.986,121.211 418.699,123.637C419.08,124.968 419.793,126.157 420.223,127.49C420.461,128.347 421.126,129.488 420.983,130.393C420.793,131.486 419.604,132.865 419.08,133.816C418.414,134.958 417.605,135.958 417.082,137.194C416.416,138.669 416.179,140.476 417.51,141.666C416.512,141.285 415.418,138.669 414.799,137.766C413.848,136.385 412.896,135.053 412.468,133.389C411.707,130.486 413.943,127.918 413.99,125.017C414.037,122.113 413.943,119.022 412.563,116.358C412.243,115.742 411.992,115.161 411.795,114.591C410.878,115.305 410.18,116.144 410.151,117.545C410.118,118.697 410.385,119.82 410.389,120.984C410.363,121.724 410.604,122.797 410.264,123.479C409.836,124.298 408.547,125.093 407.893,125.716C407.076,126.454 406.184,127.043 405.457,127.893C404.559,128.895 403.914,130.269 404.672,131.547C403.975,130.994 403.765,128.644 403.502,127.771C403.094,126.438 402.675,125.141 402.754,123.713C402.881,121.219 405.301,119.743 406.068,117.454C406.436,116.358 406.788,115.219 407.01,114.059C406.324,114.694 405.53,115.173 404.464,115.435C402.313,116.049 400.225,116.413 399.377,118.795C398.902,120.096 398.779,121.479 398.344,122.807C398.033,123.64 397.9,124.955 397.254,125.603C396.457,126.375 394.684,126.793 393.701,127.254C392.49,127.787 391.25,128.119 390.1,128.813C388.693,129.614 387.439,130.937 387.816,132.682C387.232,131.787 387.885,129.027 387.916,127.933C387.957,126.258 387.971,124.62 388.604,123.021C389.693,120.227 393.012,119.463 394.756,117.143C396.5,114.823 398.24,112.266 398.689,109.3C398.792,108.614 398.93,107.996 399.106,107.419C397.946,107.458 396.888,107.727 396.041,108.842C395.337,109.755 394.893,110.82 394.212,111.765C393.756,112.348 393.32,113.357 392.645,113.708C391.817,114.121 390.307,114.006 389.41,114.125C388.316,114.242 387.248,114.193 386.16,114.455C384.844,114.736 383.516,115.47 383.377,116.949C383.139,116.093 384.352,114.067 384.651,113.207C385.105,111.889 385.527,110.592 386.432,109.484C388,107.541 390.824,107.77 392.791,106.369C393.733,105.698 394.689,104.984 395.55,104.175C394.622,104.286 393.698,104.206 392.68,103.792C390.58,103.024 388.676,102.092 386.59,103.521C385.44,104.295 384.529,105.34 383.396,106.159C382.654,106.65 381.774,107.637 380.871,107.78C379.771,107.936 378.092,107.232 377.025,107.028C375.733,106.747 374.533,106.287 373.195,106.172C371.588,105.994 369.795,106.326 369.075,107.961C369.129,106.894 371.279,105.045 371.947,104.177C372.965,102.846 373.938,101.529 375.389,100.607C377.914,98.988 381.048,100.318 383.822,99.469C386.598,98.617 389.508,97.571 391.615,95.436C392.101,94.941 392.576,94.522 393.058,94.159C392.096,93.508 391.082,93.103 389.741,93.508C388.635,93.832 387.649,94.433 386.543,94.798C385.832,95.001 384.886,95.562 384.133,95.448C383.221,95.296 382.066,94.315 381.271,93.883C380.317,93.336 379.481,92.67 378.449,92.241C377.219,91.696 375.713,91.508 374.73,92.623C375.041,91.79 377.213,90.865 377.961,90.344C379.104,89.545 380.207,88.746 381.59,88.379C384,87.729 386.15,89.575 388.565,89.597C389.722,89.608 390.914,89.591 392.086,89.443ZM437.731,91.766C437.731,80.074 428.252,70.595 416.561,70.595C404.867,70.595 395.389,80.074 395.389,91.766C395.389,103.457 404.867,112.937 416.561,112.937C428.252,112.937 437.731,103.457 437.731,91.766Z"/>
    </g>
</svg>
